<svg width="201" height="83" viewBox="0 0 201 83" fill="none" xmlns="http://www.w3.org/2000/svg">
<g filter="url(#filter0_ddd_1_2742)">
<rect x="16" y="15" width="166" height="46" rx="5.76389" fill="white"/>
<path d="M81.7666 44.559H76.2969L74.9833 48.4189H72.6666L77.8474 34.1382H80.2544L85.4352 48.4189H83.079L81.7666 44.559ZM76.8634 42.7778H81.199L79.0617 36.5135H79.0018L76.8634 42.7778Z" fill="black"/>
<path d="M96.624 43.2133C96.624 46.4488 94.8839 48.5276 92.2579 48.5276C91.5927 48.5622 90.9311 48.4097 90.349 48.0875C89.7668 47.7654 89.2876 47.2866 88.9662 46.706H88.9165V51.863H86.769V38.0069H88.8476V39.7386H88.8871C89.2233 39.1608 89.7107 38.6844 90.2973 38.3603C90.8839 38.0362 91.5478 37.8764 92.2184 37.8979C94.8737 37.8979 96.624 39.9868 96.624 43.2133ZM94.4167 43.2133C94.4167 41.1054 93.322 39.7195 91.6519 39.7195C90.0111 39.7195 88.9075 41.1345 88.9075 43.2133C88.9075 45.3112 90.0111 46.7161 91.6519 46.7161C93.3221 46.7161 94.4166 45.3404 94.4166 43.2133H94.4167Z" fill="black"/>
<path d="M108.14 43.2133C108.14 46.4488 106.399 48.5276 103.773 48.5276C103.108 48.5622 102.447 48.4097 101.864 48.0875C101.282 47.7654 100.803 47.2866 100.482 46.706H100.432V51.863H98.2844V38.0069H100.363V39.7386H100.403C100.739 39.1608 101.226 38.6844 101.813 38.3603C102.399 38.0362 103.063 37.8764 103.734 37.8979C106.389 37.8979 108.14 39.9868 108.14 43.2133ZM105.932 43.2133C105.932 41.1054 104.837 39.7195 103.167 39.7195C101.527 39.7195 100.423 41.1345 100.423 43.2133C100.423 45.3112 101.527 46.7161 103.167 46.7161C104.837 46.7161 105.932 45.3404 105.932 43.2133Z" fill="black"/>
<path d="M115.749 44.4398C115.908 45.8559 117.291 46.7858 119.18 46.7858C120.99 46.7858 122.292 45.8559 122.292 44.579C122.292 43.4705 121.507 42.8068 119.647 42.352L117.787 41.9061C115.152 41.2727 113.929 40.0463 113.929 38.0563C113.929 35.5923 116.087 33.8999 119.149 33.8999C122.183 33.8999 124.261 35.5923 124.331 38.0563H122.163C122.034 36.6312 120.85 35.7709 119.12 35.7709C117.39 35.7709 116.206 36.6413 116.206 37.9081C116.206 38.9177 116.962 39.5118 118.812 39.9666L120.393 40.3529C123.337 41.0458 124.559 42.2228 124.559 44.3116C124.559 46.9834 122.422 48.6567 119.02 48.6567C115.838 48.6567 113.69 47.0227 113.551 44.4397L115.749 44.4398Z" fill="black"/>
<path d="M129.195 35.5435V38.0074H131.185V39.6999H129.195V45.4397C129.195 46.3314 129.594 46.747 130.468 46.747C130.704 46.7429 130.94 46.7264 131.175 46.6975V48.3798C130.781 48.453 130.382 48.4861 129.982 48.4787C127.864 48.4787 127.038 47.6869 127.038 45.6677V39.6999H125.516V38.0074H127.038V35.5435H129.195Z" fill="black"/>
<path d="M132.336 43.2139C132.336 39.9379 134.275 37.8794 137.298 37.8794C140.332 37.8794 142.261 39.9379 142.261 43.2139C142.261 46.4988 140.342 48.5483 137.298 48.5483C134.256 48.5483 132.336 46.4988 132.336 43.2139ZM140.073 43.2139C140.073 40.9666 139.038 39.6403 137.298 39.6403C135.558 39.6403 134.523 40.9768 134.523 43.2139C134.523 45.4701 135.558 46.7863 137.298 46.7863C139.038 46.7863 140.073 45.4701 140.073 43.2139H140.073Z" fill="black"/>
<path d="M144.032 38.0068H146.08V39.7789H146.13C146.268 39.2254 146.594 38.7363 147.052 38.3937C147.511 38.0512 148.073 37.876 148.646 37.8978C148.894 37.8969 149.141 37.9237 149.382 37.9775V39.9766C149.07 39.8816 148.744 39.8379 148.417 39.8474C148.105 39.8348 147.794 39.8896 147.505 40.0079C147.217 40.1262 146.957 40.3053 146.745 40.5329C146.532 40.7605 146.371 41.0311 146.274 41.3263C146.176 41.6215 146.144 41.9341 146.179 42.2429V48.4185H144.032L144.032 38.0068Z" fill="black"/>
<path d="M159.283 45.3611C158.994 47.2512 157.144 48.5483 154.778 48.5483C151.734 48.5483 149.845 46.519 149.845 43.2633C149.845 39.9975 151.744 37.8794 154.688 37.8794C157.582 37.8794 159.402 39.8582 159.402 43.0151V43.7473H152.013V43.8765C151.979 44.2596 152.027 44.6457 152.154 45.0089C152.282 45.3721 152.485 45.7042 152.752 45.9831C153.018 46.2621 153.34 46.4814 153.698 46.6267C154.056 46.7719 154.441 46.8397 154.827 46.8256C155.335 46.8729 155.844 46.7559 156.28 46.4921C156.715 46.2282 157.053 45.8316 157.244 45.3611L159.283 45.3611ZM152.023 42.2537H157.254C157.273 41.9091 157.22 41.5643 157.1 41.241C156.979 40.9176 156.792 40.6225 156.551 40.3744C156.31 40.1263 156.02 39.9304 155.699 39.799C155.379 39.6677 155.034 39.6037 154.688 39.6111C154.338 39.6091 153.991 39.6759 153.668 39.8079C153.344 39.9398 153.05 40.1343 152.802 40.3799C152.554 40.6256 152.358 40.9177 152.224 41.2393C152.091 41.5609 152.022 41.9056 152.023 42.2537V42.2537Z" fill="black"/>
<path d="M76.5948 23.3877C77.0451 23.3555 77.4968 23.4232 77.9176 23.5859C78.3383 23.7485 78.7176 24.0021 79.028 24.3282C79.3383 24.6544 79.5721 25.045 79.7124 25.472C79.8526 25.899 79.896 26.3516 79.8392 26.7972C79.8392 28.9894 78.6487 30.2495 76.5948 30.2495H74.1043V23.3877H76.5948ZM75.1752 29.2791H76.4752C76.7969 29.2983 77.1189 29.2458 77.4176 29.1255C77.7164 29.0051 77.9844 28.8201 78.2023 28.5837C78.4201 28.3473 78.5822 28.0655 78.6768 27.7589C78.7714 27.4523 78.7961 27.1285 78.7491 26.8112C78.7927 26.4952 78.7655 26.1734 78.6694 25.8691C78.5734 25.5647 78.4109 25.2852 78.1935 25.0507C77.9762 24.8162 77.7095 24.6324 77.4124 24.5126C77.1153 24.3927 76.7953 24.3397 76.4752 24.3574H75.1752V29.2791Z" fill="black"/>
<path d="M81.0494 27.6585C81.0167 27.3182 81.0559 26.9749 81.1643 26.6505C81.2727 26.3261 81.4481 26.0279 81.6791 25.7749C81.9102 25.5219 82.1918 25.3198 82.5059 25.1814C82.8201 25.0431 83.1598 24.9717 83.5033 24.9717C83.8468 24.9717 84.1865 25.0431 84.5007 25.1814C84.8148 25.3198 85.0964 25.5219 85.3275 25.7749C85.5585 26.0279 85.7339 26.3261 85.8423 26.6505C85.9508 26.9749 85.9899 27.3182 85.9572 27.6585C85.9905 27.9992 85.9519 28.343 85.8437 28.6679C85.7356 28.9928 85.5603 29.2916 85.3292 29.5451C85.0981 29.7985 84.8163 30.0011 84.5018 30.1397C84.1873 30.2783 83.8472 30.3499 83.5033 30.3499C83.1594 30.3499 82.8193 30.2783 82.5048 30.1397C82.1904 30.0011 81.9085 29.7985 81.6774 29.5451C81.4463 29.2916 81.2711 28.9928 81.1629 28.6679C81.0548 28.343 81.0161 27.9992 81.0494 27.6585ZM84.9009 27.6585C84.9009 26.536 84.3942 25.8796 83.505 25.8796C82.6124 25.8796 82.1102 26.536 82.1102 27.6585C82.1102 28.79 82.6124 29.4414 83.505 29.4414C84.3943 29.4413 84.9009 28.7855 84.9009 27.6585H84.9009Z" fill="black"/>
<path d="M92.4805 30.2501H91.4152L90.3398 26.4363H90.2585L89.1876 30.2501H88.1325L86.6982 25.0718H87.7398L88.6719 29.0232H88.7486L89.8184 25.0718H90.8036L91.8734 29.0232H91.9546L92.8822 25.0718H93.9091L92.4805 30.2501Z" fill="black"/>
<path d="M95.1155 25.0709H96.104V25.8935H96.1808C96.3109 25.598 96.5305 25.3504 96.8088 25.185C97.0872 25.0196 97.4104 24.9448 97.7335 24.9709C97.9867 24.952 98.2409 24.99 98.4774 25.0821C98.7138 25.1742 98.9264 25.3181 99.0993 25.503C99.2723 25.688 99.4012 25.9093 99.4766 26.1506C99.5519 26.3919 99.5717 26.647 99.5346 26.8969V30.2492H98.5077V27.1536C98.5077 26.3214 98.1443 25.9075 97.3848 25.9075C97.2129 25.8996 97.0413 25.9287 96.8818 25.9929C96.7223 26.0571 96.5786 26.1549 96.4606 26.2795C96.3426 26.4042 96.253 26.5527 96.1981 26.715C96.1432 26.8773 96.1242 27.0495 96.1424 27.2198V30.2492H95.1155L95.1155 25.0709Z" fill="black"/>
<path d="M101.171 23.0498H102.198V30.2497H101.171V23.0498Z" fill="black"/>
<path d="M103.625 27.6586C103.593 27.3183 103.632 26.9749 103.74 26.6505C103.849 26.3261 104.024 26.0279 104.255 25.7749C104.486 25.5219 104.768 25.3198 105.082 25.1814C105.396 25.0431 105.736 24.9717 106.08 24.9717C106.423 24.9717 106.763 25.0431 107.077 25.1814C107.391 25.3198 107.673 25.5219 107.904 25.7749C108.135 26.0279 108.31 26.3261 108.419 26.6505C108.527 26.9749 108.566 27.3183 108.534 27.6586C108.567 27.9993 108.528 28.3431 108.42 28.668C108.312 28.9929 108.137 29.2917 107.906 29.5452C107.674 29.7986 107.393 30.0012 107.078 30.1398C106.764 30.2784 106.423 30.35 106.08 30.35C105.736 30.35 105.395 30.2784 105.081 30.1398C104.767 30.0012 104.485 29.7986 104.254 29.5452C104.022 29.2917 103.847 28.9929 103.739 28.668C103.631 28.3431 103.592 27.9993 103.625 27.6586ZM107.477 27.6586C107.477 26.5361 106.97 25.8797 106.081 25.8797C105.188 25.8797 104.686 26.5361 104.686 27.6586C104.686 28.7901 105.188 29.4415 106.081 29.4415C106.97 29.4414 107.477 28.7856 107.477 27.6586H107.477Z" fill="black"/>
<path d="M109.614 28.7855C109.614 27.8534 110.312 27.316 111.549 27.2397L112.959 27.1588V26.7118C112.959 26.1649 112.596 25.8561 111.894 25.8561C111.32 25.8561 110.923 26.0655 110.809 26.4316H109.815C109.92 25.5422 110.761 24.9717 111.941 24.9717C113.246 24.9717 113.981 25.618 113.981 26.7118V30.25H112.993V29.5223H112.912C112.747 29.7833 112.515 29.9961 112.24 30.139C111.966 30.2818 111.658 30.3496 111.349 30.3353C111.13 30.3579 110.909 30.3347 110.701 30.2672C110.492 30.1997 110.299 30.0894 110.136 29.9434C109.972 29.7974 109.842 29.6189 109.752 29.4195C109.662 29.2201 109.615 29.0041 109.614 28.7855ZM112.959 28.3431V27.9101L111.688 27.991C110.972 28.0387 110.647 28.2813 110.647 28.7378C110.647 29.2039 111.053 29.4751 111.612 29.4751C111.775 29.4916 111.941 29.4751 112.098 29.4267C112.255 29.3783 112.401 29.2989 112.526 29.1933C112.652 29.0877 112.755 28.958 112.829 28.8119C112.904 28.6659 112.948 28.5064 112.959 28.3431Z" fill="black"/>
<path d="M115.332 27.6582C115.332 26.022 116.177 24.9854 117.492 24.9854C117.817 24.9705 118.14 25.048 118.422 25.2089C118.705 25.3698 118.936 25.6073 119.087 25.8939H119.164V23.0498H120.191V30.2497H119.207V29.4315H119.126C118.962 29.7161 118.723 29.9508 118.435 30.11C118.147 30.2693 117.821 30.3471 117.492 30.335C116.168 30.3351 115.332 29.2985 115.332 27.6582ZM116.393 27.6582C116.393 28.7566 116.913 29.4175 117.783 29.4175C118.649 29.4175 119.183 28.7471 119.183 27.6627C119.183 26.5835 118.643 25.9035 117.783 25.9035C116.919 25.9035 116.393 26.5689 116.393 27.6582H116.393Z" fill="black"/>
<path d="M124.44 27.6585C124.407 27.3182 124.446 26.9749 124.554 26.6505C124.663 26.3261 124.838 26.0279 125.069 25.7749C125.3 25.5219 125.582 25.3198 125.896 25.1814C126.21 25.0431 126.55 24.9717 126.894 24.9717C127.237 24.9717 127.577 25.0431 127.891 25.1814C128.205 25.3198 128.487 25.5219 128.718 25.7749C128.949 26.0279 129.124 26.3261 129.233 26.6505C129.341 26.9749 129.38 27.3182 129.347 27.6585C129.381 27.9992 129.342 28.343 129.234 28.6679C129.126 28.9928 128.95 29.2916 128.719 29.5451C128.488 29.7985 128.206 30.0011 127.892 30.1397C127.578 30.2783 127.237 30.3499 126.894 30.3499C126.55 30.3499 126.209 30.2783 125.895 30.1397C125.581 30.0011 125.299 29.7985 125.068 29.5451C124.837 29.2916 124.661 28.9928 124.553 28.6679C124.445 28.343 124.406 27.9992 124.44 27.6585ZM128.291 27.6585C128.291 26.536 127.784 25.8796 126.895 25.8796C126.003 25.8796 125.5 26.536 125.5 27.6585C125.5 28.79 126.003 29.4414 126.895 29.4414C127.784 29.4413 128.291 28.7855 128.291 27.6585Z" fill="black"/>
<path d="M130.724 25.0709H131.713V25.8935H131.79C131.92 25.598 132.139 25.3504 132.418 25.185C132.696 25.0196 133.019 24.9448 133.342 24.9709C133.596 24.952 133.85 24.99 134.086 25.0821C134.323 25.1742 134.535 25.3181 134.708 25.503C134.881 25.688 135.01 25.9093 135.085 26.1506C135.161 26.3919 135.181 26.647 135.143 26.8969V30.2492H134.117V27.1536C134.117 26.3214 133.753 25.9075 132.994 25.9075C132.822 25.8996 132.65 25.9287 132.491 25.9929C132.331 26.0571 132.187 26.1549 132.069 26.2795C131.951 26.4042 131.862 26.5527 131.807 26.715C131.752 26.8773 131.733 27.0495 131.751 27.2198V30.2492H130.724V25.0709Z" fill="black"/>
<path d="M140.946 23.7817V25.0946H142.074V25.9554H140.946V28.6181C140.946 29.1606 141.171 29.3981 141.682 29.3981C141.813 29.3977 141.944 29.3898 142.074 29.3745V30.2258C141.889 30.2586 141.702 30.2761 141.515 30.278C140.373 30.278 139.918 29.8782 139.918 28.8798V25.9554H139.092V25.0945H139.918V23.7817H140.946Z" fill="black"/>
<path d="M143.477 23.0498H144.495V25.9035H144.576C144.713 25.6053 144.938 25.3562 145.222 25.1902C145.506 25.0242 145.834 24.9493 146.163 24.9758C146.415 24.9622 146.666 25.004 146.9 25.0984C147.134 25.1927 147.344 25.3373 147.515 25.5217C147.686 25.706 147.814 25.9258 147.89 26.1651C147.966 26.4045 147.988 26.6576 147.955 26.9064V30.2497H146.927V27.1585C146.927 26.3313 146.54 25.9124 145.814 25.9124C145.638 25.898 145.46 25.9222 145.294 25.9832C145.128 26.0442 144.977 26.1406 144.852 26.2657C144.727 26.3907 144.632 26.5414 144.571 26.7071C144.511 26.8729 144.488 27.0497 144.504 27.2253V30.2496H143.477L143.477 23.0498Z" fill="black"/>
<path d="M153.942 28.8519C153.802 29.3252 153.5 29.7345 153.088 30.0084C152.676 30.2823 152.18 30.4032 151.687 30.35C151.344 30.359 151.004 30.2937 150.689 30.1585C150.374 30.0234 150.092 29.8216 149.863 29.5673C149.635 29.313 149.464 29.0122 149.364 28.6858C149.264 28.3594 149.236 28.0153 149.283 27.6772C149.238 27.3381 149.266 26.9931 149.366 26.6658C149.466 26.3384 149.635 26.0362 149.863 25.7797C150.09 25.5231 150.37 25.3183 150.684 25.1789C150.998 25.0395 151.339 24.9688 151.682 24.9718C153.13 24.9718 154.004 25.9562 154.004 27.5823V27.9389H150.329V27.9961C150.313 28.1862 150.337 28.3775 150.4 28.5577C150.462 28.738 150.562 28.9032 150.693 29.0429C150.823 29.1826 150.981 29.2936 151.158 29.3688C151.334 29.444 151.524 29.4818 151.715 29.4796C151.961 29.509 152.21 29.465 152.43 29.3532C152.651 29.2414 152.833 29.0669 152.953 28.8519L153.942 28.8519ZM150.329 27.183H152.958C152.971 27.0092 152.947 26.8347 152.888 26.6706C152.829 26.5064 152.736 26.3564 152.616 26.23C152.495 26.1037 152.349 26.0039 152.188 25.937C152.026 25.8701 151.852 25.8376 151.677 25.8416C151.499 25.8393 151.323 25.8725 151.158 25.9392C150.994 26.0058 150.844 26.1045 150.719 26.2296C150.593 26.3546 150.494 26.5034 150.427 26.6671C150.36 26.8309 150.327 27.0063 150.329 27.183H150.329Z" fill="black"/>
<path d="M57.303 38.34C57.317 37.238 57.6062 36.1576 58.1437 35.1991C58.6812 34.2407 59.4495 33.4354 60.3771 32.8582C59.7878 32.0064 59.0104 31.3055 58.1066 30.811C57.2028 30.3164 56.1976 30.042 55.1707 30.0095C52.9801 29.7768 50.8565 31.3362 49.7402 31.3362C48.6023 31.3362 46.8836 30.0326 45.0329 30.0712C43.8358 30.1103 42.6691 30.4626 41.6466 31.0938C40.624 31.7249 39.7804 32.6134 39.198 33.6727C36.6752 38.0934 38.557 44.5905 40.9737 48.164C42.1828 49.9138 43.5959 51.8684 45.445 51.7991C47.2544 51.7231 47.9302 50.6313 50.1143 50.6313C52.2781 50.6313 52.9122 51.7991 54.7987 51.755C56.7403 51.7231 57.9636 49.9974 59.1303 48.231C59.9991 46.9842 60.6676 45.6062 61.1111 44.1481C59.9831 43.6652 59.0205 42.857 58.3433 41.8242C57.6661 40.7913 57.3043 39.5796 57.303 38.34Z" fill="black"/>
<path d="M53.7396 27.6593C54.7983 26.3731 55.3198 24.7199 55.1935 23.0508C53.5762 23.2227 52.0822 24.005 51.0092 25.2419C50.4847 25.8461 50.0829 26.5491 49.8269 27.3106C49.5709 28.0721 49.4657 28.8772 49.5173 29.6798C50.3262 29.6882 51.1266 29.5108 51.8579 29.1608C52.5893 28.8108 53.2327 28.2974 53.7396 27.6593Z" fill="black"/>
</g>
<defs>
<filter id="filter0_ddd_1_2742" x="-2.44444" y="0.0138886" width="202.889" height="82.8889" filterUnits="userSpaceOnUse" color-interpolation-filters="sRGB">
<feFlood flood-opacity="0" result="BackgroundImageFix"/>
<feColorMatrix in="SourceAlpha" type="matrix" values="0 0 0 0 0 0 0 0 0 0 0 0 0 0 0 0 0 0 127 0" result="hardAlpha"/>
<feMorphology radius="3.45833" operator="erode" in="SourceAlpha" result="effect1_dropShadow_1_2742"/>
<feOffset dy="5.76389"/>
<feGaussianBlur stdDeviation="2.88194"/>
<feColorMatrix type="matrix" values="0 0 0 0 0.364706 0 0 0 0 0.447059 0 0 0 0 0.54902 0 0 0 0.16 0"/>
<feBlend mode="normal" in2="BackgroundImageFix" result="effect1_dropShadow_1_2742"/>
<feColorMatrix in="SourceAlpha" type="matrix" values="0 0 0 0 0 0 0 0 0 0 0 0 0 0 0 0 0 0 127 0" result="hardAlpha"/>
<feMorphology radius="2.30556" operator="dilate" in="SourceAlpha" result="effect2_dropShadow_1_2742"/>
<feOffset dy="3.45833"/>
<feGaussianBlur stdDeviation="8.06944"/>
<feColorMatrix type="matrix" values="0 0 0 0 0.364706 0 0 0 0 0.447059 0 0 0 0 0.54902 0 0 0 0.08 0"/>
<feBlend mode="normal" in2="effect1_dropShadow_1_2742" result="effect2_dropShadow_1_2742"/>
<feColorMatrix in="SourceAlpha" type="matrix" values="0 0 0 0 0 0 0 0 0 0 0 0 0 0 0 0 0 0 127 0" result="hardAlpha"/>
<feMorphology radius="1.15278" operator="dilate" in="SourceAlpha" result="effect3_dropShadow_1_2742"/>
<feOffset dy="9.22222"/>
<feGaussianBlur stdDeviation="5.76389"/>
<feColorMatrix type="matrix" values="0 0 0 0 0.364706 0 0 0 0 0.447059 0 0 0 0 0.54902 0 0 0 0.1 0"/>
<feBlend mode="normal" in2="effect2_dropShadow_1_2742" result="effect3_dropShadow_1_2742"/>
<feBlend mode="normal" in="SourceGraphic" in2="effect3_dropShadow_1_2742" result="shape"/>
</filter>
</defs>
</svg>
