<svg width="135" height="40" viewBox="0 0 135 40" fill="none" xmlns="http://www.w3.org/2000/svg">
<g clip-path="url(#clip0_74_705)">
<rect width="135" height="40" rx="5" fill="white"/>
<path d="M130 40H4.999C2.249 40 0 37.75 0 35V5C0 2.25 2.249 0 4.999 0H130C132.75 0 135 2.25 135 5V35C135 37.75 132.75 40 130 40Z" fill="white"/>
<path d="M52.875 25.7026H48.1416L47.0049 29.0591H45L49.4834 16.6411H51.5664L56.0498 29.0591H54.0107L52.875 25.7026ZM48.6318 24.1538H52.3838L50.5342 18.7065H50.4824L48.6318 24.1538Z" fill="black"/>
<path d="M65.7324 24.5327C65.7324 27.3462 64.2266 29.1538 61.9541 29.1538C61.3784 29.1839 60.8059 29.0513 60.3022 28.7712C59.7984 28.4911 59.3836 28.0747 59.1055 27.5698H59.0625V32.0542H57.2041V20.0054H59.0029V21.5112H59.0371C59.328 21.0088 59.7498 20.5946 60.2574 20.3127C60.765 20.0309 61.3396 19.8919 61.9199 19.9107C64.2178 19.9107 65.7324 21.7271 65.7324 24.5327ZM63.8223 24.5327C63.8223 22.6997 62.875 21.4946 61.4297 21.4946C60.0098 21.4946 59.0547 22.7251 59.0547 24.5327C59.0547 26.3569 60.0098 27.5786 61.4297 27.5786C62.875 27.5786 63.8222 26.3823 63.8222 24.5327H63.8223Z" fill="black"/>
<path d="M75.6978 24.5327C75.6978 27.3462 74.1914 29.1538 71.9189 29.1538C71.3433 29.1839 70.7708 29.0513 70.267 28.7712C69.7632 28.4911 69.3485 28.0747 69.0703 27.5698H69.0273V32.0542H67.1689V20.0054H68.9677V21.5112H69.0019C69.2929 21.0088 69.7146 20.5946 70.2222 20.3127C70.7299 20.0309 71.3044 19.8919 71.8847 19.9107C74.1826 19.9107 75.6978 21.7271 75.6978 24.5327ZM73.7871 24.5327C73.7871 22.6997 72.8398 21.4946 71.3945 21.4946C69.9746 21.4946 69.0195 22.7251 69.0195 24.5327C69.0195 26.3569 69.9746 27.5786 71.3945 27.5786C72.8398 27.5786 73.7871 26.3823 73.7871 24.5327Z" fill="black"/>
<path d="M82.2827 25.5991C82.4204 26.8306 83.6167 27.6391 85.2514 27.6391C86.8179 27.6391 87.9448 26.8305 87.9448 25.7202C87.9448 24.7563 87.2651 24.1792 85.6558 23.7837L84.0464 23.396C81.7661 22.8452 80.7075 21.7788 80.7075 20.0483C80.7075 17.9057 82.5747 16.434 85.2251 16.434C87.8501 16.434 89.6489 17.9057 89.7095 20.0483H87.8335C87.7212 18.809 86.6968 18.061 85.1997 18.061C83.7026 18.061 82.6782 18.8178 82.6782 19.9194C82.6782 20.7973 83.3325 21.3139 84.9331 21.7094L86.3012 22.0453C88.8491 22.6479 89.9067 23.6713 89.9067 25.4877C89.9067 27.811 88.0571 29.266 85.1137 29.266C82.3598 29.266 80.5004 27.8451 80.3803 25.599L82.2827 25.5991Z" fill="black"/>
<path d="M93.9194 17.8628V20.0054H95.6411V21.4771H93.9194V26.4683C93.9194 27.2437 94.2642 27.605 95.021 27.605C95.2254 27.6014 95.4294 27.5871 95.6323 27.562V29.0249C95.292 29.0885 94.9462 29.1172 94.6001 29.1108C92.7671 29.1108 92.0522 28.4223 92.0522 26.6665V21.4771H90.7358V20.0054H92.0522V17.8628H93.9194Z" fill="black"/>
<path d="M96.6372 24.5327C96.6372 21.6841 98.3149 19.8941 100.931 19.8941C103.556 19.8941 105.226 21.6841 105.226 24.5327C105.226 27.3892 103.565 29.1714 100.931 29.1714C98.2983 29.1714 96.6372 27.3892 96.6372 24.5327ZM103.333 24.5327C103.333 22.5786 102.437 21.4253 100.931 21.4253C99.4253 21.4253 98.5298 22.5874 98.5298 24.5327C98.5298 26.4946 99.4253 27.6392 100.931 27.6392C102.437 27.6392 103.333 26.4946 103.333 24.5327H103.333Z" fill="black"/>
<path d="M106.758 20.0054H108.531V21.5464H108.574C108.694 21.0651 108.976 20.6398 109.372 20.3419C109.769 20.044 110.256 19.8917 110.751 19.9106C110.966 19.9099 111.179 19.9331 111.388 19.98V21.7183C111.118 21.6356 110.836 21.5977 110.553 21.606C110.283 21.595 110.014 21.6426 109.764 21.7455C109.514 21.8484 109.29 22.0041 109.106 22.202C108.922 22.3999 108.783 22.6352 108.698 22.8919C108.614 23.1486 108.586 23.4205 108.617 23.689V29.0591H106.758L106.758 20.0054Z" fill="black"/>
<path d="M119.957 26.3999C119.707 28.0435 118.106 29.1714 116.058 29.1714C113.424 29.1714 111.79 27.4067 111.79 24.5757C111.79 21.7358 113.433 19.894 115.98 19.894C118.485 19.894 120.06 21.6147 120.06 24.3599V24.9966H113.666V25.1089C113.636 25.4421 113.678 25.7778 113.788 26.0936C113.898 26.4094 114.074 26.6982 114.305 26.9408C114.535 27.1833 114.814 27.3741 115.124 27.5004C115.434 27.6267 115.767 27.6856 116.101 27.6733C116.54 27.7145 116.981 27.6128 117.358 27.3833C117.734 27.1539 118.027 26.809 118.192 26.3999L119.957 26.3999ZM113.674 23.6978H118.201C118.217 23.3982 118.172 23.0983 118.067 22.8171C117.963 22.5359 117.801 22.2794 117.592 22.0636C117.384 21.8479 117.133 21.6775 116.856 21.5633C116.578 21.4491 116.28 21.3935 115.98 21.3999C115.677 21.3981 115.377 21.4562 115.097 21.571C114.817 21.6857 114.563 21.8548 114.348 22.0684C114.134 22.2821 113.964 22.536 113.848 22.8157C113.733 23.0953 113.674 23.3951 113.674 23.6978V23.6978Z" fill="black"/>
<path d="M48.3994 7.294C48.789 7.26604 49.18 7.3249 49.5441 7.46634C49.9082 7.60777 50.2364 7.82825 50.505 8.11187C50.7736 8.3955 50.9759 8.7352 51.0973 9.10647C51.2187 9.47774 51.2562 9.87133 51.207 10.2588C51.207 12.1651 50.1768 13.2608 48.3994 13.2608H46.2441V7.294H48.3994ZM47.1709 12.417H48.2959C48.5743 12.4336 48.8529 12.388 49.1114 12.2834C49.37 12.1788 49.6019 12.0178 49.7904 11.8123C49.9789 11.6067 50.1192 11.3617 50.2011 11.0951C50.2829 10.8284 50.3043 10.5469 50.2637 10.271C50.3014 9.99617 50.2778 9.7164 50.1947 9.45173C50.1116 9.18707 49.971 8.94407 49.7829 8.74014C49.5948 8.53621 49.364 8.3764 49.1069 8.27216C48.8498 8.16792 48.5729 8.12184 48.2959 8.13721H47.1709V12.417Z" fill="black"/>
<path d="M52.2539 11.0073C52.2256 10.7114 52.2595 10.4129 52.3533 10.1308C52.4471 9.84871 52.5989 9.58937 52.7988 9.36939C52.9988 9.14941 53.2425 8.97364 53.5143 8.85336C53.7862 8.73309 54.0802 8.67096 54.3774 8.67096C54.6747 8.67096 54.9687 8.73309 55.2406 8.85336C55.5124 8.97364 55.7561 9.14941 55.9561 9.36939C56.156 9.58937 56.3078 9.84871 56.4016 10.1308C56.4954 10.4129 56.5293 10.7114 56.501 11.0073C56.5298 11.3036 56.4964 11.6025 56.4028 11.8851C56.3092 12.1676 56.1575 12.4274 55.9575 12.6478C55.7575 12.8682 55.5136 13.0444 55.2415 13.1649C54.9694 13.2854 54.6751 13.3477 54.3774 13.3477C54.0798 13.3477 53.7855 13.2854 53.5134 13.1649C53.2412 13.0444 52.9973 12.8682 52.7974 12.6478C52.5974 12.4274 52.4457 12.1676 52.3521 11.8851C52.2585 11.6025 52.2251 11.3036 52.2539 11.0073ZM55.5869 11.0073C55.5869 10.0313 55.1484 9.46047 54.3789 9.46047C53.6065 9.46047 53.1719 10.0313 53.1719 11.0073C53.1719 11.9912 53.6065 12.5576 54.3789 12.5576C55.1485 12.5576 55.5869 11.9873 55.5869 11.0073H55.5869Z" fill="black"/>
<path d="M62.1465 13.2607H61.2246L60.2939 9.94433H60.2236L59.2969 13.2607H58.3838L57.1426 8.75781H58.0439L58.8506 12.1938H58.917L59.8428 8.75781H60.6953L61.6211 12.1938H61.6914L62.4941 8.75781H63.3828L62.1465 13.2607Z" fill="black"/>
<path d="M64.4268 8.75783H65.2822V9.47316H65.3486C65.4613 9.21624 65.6513 9.00086 65.8922 8.85706C66.133 8.71325 66.4128 8.64818 66.6924 8.67091C66.9115 8.65443 67.1315 8.68747 67.3361 8.76756C67.5407 8.84766 67.7246 8.97276 67.8743 9.13361C68.024 9.29445 68.1356 9.48691 68.2008 9.69673C68.266 9.90655 68.2831 10.1284 68.251 10.3457V13.2607H67.3623V10.5689C67.3623 9.84524 67.0479 9.48537 66.3906 9.48537C66.2419 9.47844 66.0934 9.50376 65.9553 9.55959C65.8173 9.61542 65.6929 9.70044 65.5908 9.80882C65.4887 9.91721 65.4112 10.0464 65.3636 10.1875C65.3161 10.3287 65.2997 10.4784 65.3154 10.6265V13.2608H64.4268L64.4268 8.75783Z" fill="black"/>
<path d="M69.667 7H70.5557V13.2607H69.667V7Z" fill="black"/>
<path d="M71.791 11.0073C71.7627 10.7114 71.7966 10.4128 71.8905 10.1307C71.9843 9.84866 72.1361 9.58931 72.3361 9.36932C72.536 9.14934 72.7798 8.97357 73.0516 8.85329C73.3235 8.73301 73.6175 8.67088 73.9148 8.67088C74.2121 8.67088 74.5061 8.73301 74.778 8.85329C75.0498 8.97357 75.2936 9.14934 75.4935 9.36932C75.6935 9.58931 75.8453 9.84866 75.9391 10.1307C76.033 10.4128 76.0669 10.7114 76.0386 11.0073C76.0674 11.3036 76.0339 11.6026 75.9403 11.8851C75.8467 12.1676 75.695 12.4274 75.495 12.6478C75.2949 12.8682 75.051 13.0444 74.7789 13.1649C74.5068 13.2854 74.2124 13.3477 73.9148 13.3477C73.6172 13.3477 73.3228 13.2854 73.0507 13.1649C72.7786 13.0444 72.5346 12.8682 72.3346 12.6478C72.1346 12.4274 71.9829 12.1676 71.8893 11.8851C71.7957 11.6026 71.7622 11.3036 71.791 11.0073ZM75.124 11.0073C75.124 10.0313 74.6855 9.46048 73.916 9.46048C73.1436 9.46048 72.709 10.0313 72.709 11.0074C72.709 11.9912 73.1436 12.5576 73.916 12.5576C74.6855 12.5576 75.124 11.9873 75.124 11.0073H75.124Z" fill="black"/>
<path d="M76.9741 11.9873C76.9741 11.1768 77.5776 10.7095 78.6489 10.6431L79.8687 10.5728V10.1841C79.8687 9.7085 79.5542 9.43995 78.9468 9.43995C78.4507 9.43995 78.1069 9.62208 78.0083 9.94044H77.1479C77.2388 9.167 77.9663 8.67091 78.9878 8.67091C80.1167 8.67091 80.7534 9.23291 80.7534 10.1841V13.2608H79.8979V12.6279H79.8276C79.6849 12.8549 79.4845 13.04 79.2469 13.1642C79.0093 13.2884 78.7429 13.3473 78.4751 13.3349C78.2861 13.3546 78.095 13.3344 77.9142 13.2757C77.7335 13.217 77.567 13.1211 77.4256 12.9941C77.2842 12.8672 77.171 12.712 77.0932 12.5386C77.0154 12.3652 76.9749 12.1774 76.9741 11.9873ZM79.8687 11.6025V11.2261L78.769 11.2964C78.1489 11.3379 77.8677 11.5488 77.8677 11.9458C77.8677 12.3511 78.2192 12.5869 78.7027 12.5869C78.8443 12.6013 78.9874 12.587 79.1234 12.5449C79.2594 12.5028 79.3856 12.4338 79.4943 12.3419C79.6031 12.2501 79.6923 12.1373 79.7566 12.0103C79.8209 11.8832 79.859 11.7446 79.8687 11.6025Z" fill="black"/>
<path d="M81.9214 11.0073C81.9214 9.58449 82.6528 8.68312 83.7905 8.68312C84.0719 8.67015 84.3512 8.73756 84.5958 8.87745C84.8403 9.01735 85.0399 9.22395 85.1714 9.47312H85.2378V7H86.1265V13.2607H85.2749V12.5493H85.2046C85.063 12.7968 84.8564 13.0008 84.6071 13.1393C84.3579 13.2778 84.0755 13.3455 83.7905 13.3349C82.645 13.335 81.9214 12.4336 81.9214 11.0073ZM82.8394 11.0073C82.8394 11.9624 83.2896 12.5371 84.0425 12.5371C84.7915 12.5371 85.2544 11.9541 85.2544 11.0112C85.2544 10.0728 84.7867 9.48146 84.0425 9.48146C83.2944 9.48146 82.8394 10.0601 82.8394 11.0073H82.8394Z" fill="black"/>
<path d="M89.8032 11.0073C89.7749 10.7114 89.8088 10.4129 89.9026 10.1308C89.9964 9.84871 90.1482 9.58937 90.3481 9.36939C90.5481 9.14941 90.7918 8.97364 91.0636 8.85336C91.3355 8.73309 91.6295 8.67096 91.9268 8.67096C92.224 8.67096 92.518 8.73309 92.7899 8.85336C93.0617 8.97364 93.3054 9.14941 93.5054 9.36939C93.7053 9.58937 93.8571 9.84871 93.9509 10.1308C94.0448 10.4129 94.0786 10.7114 94.0503 11.0073C94.0791 11.3036 94.0457 11.6025 93.9521 11.8851C93.8585 12.1676 93.7068 12.4274 93.5068 12.6478C93.3069 12.8682 93.063 13.0444 92.7908 13.1649C92.5187 13.2854 92.2244 13.3477 91.9268 13.3477C91.6291 13.3477 91.3348 13.2854 91.0627 13.1649C90.7906 13.0444 90.5467 12.8682 90.3467 12.6478C90.1467 12.4274 89.995 12.1676 89.9014 11.8851C89.8078 11.6025 89.7744 11.3036 89.8032 11.0073ZM93.1362 11.0073C93.1362 10.0313 92.6977 9.46047 91.9282 9.46047C91.1558 9.46047 90.7212 10.0313 90.7212 11.0073C90.7212 11.9912 91.1558 12.5576 91.9282 12.5576C92.6978 12.5576 93.1362 11.9873 93.1362 11.0073Z" fill="black"/>
<path d="M95.2427 8.75783H96.0981V9.47316H96.1646C96.2772 9.21624 96.4672 9.00086 96.7081 8.85706C96.949 8.71325 97.2287 8.64818 97.5083 8.67091C97.7274 8.65443 97.9474 8.68747 98.152 8.76756C98.3566 8.84766 98.5406 8.97276 98.6902 9.13361C98.8399 9.29445 98.9515 9.48691 99.0167 9.69673C99.0819 9.90655 99.0991 10.1284 99.0669 10.3457V13.2607H98.1782V10.5689C98.1782 9.84524 97.8638 9.48537 97.2066 9.48537C97.0578 9.47844 96.9093 9.50376 96.7712 9.55959C96.6332 9.61542 96.5088 9.70044 96.4067 9.80882C96.3046 9.91721 96.2271 10.0464 96.1796 10.1875C96.132 10.3287 96.1156 10.4784 96.1313 10.6265V13.2608H95.2427V8.75783Z" fill="black"/>
<path d="M104.088 7.63673V8.77833H105.064V9.52687H104.088V11.8423C104.088 12.314 104.283 12.5205 104.725 12.5205C104.838 12.5202 104.951 12.5133 105.064 12.5V13.2402C104.904 13.2688 104.743 13.284 104.581 13.2857C103.592 13.2857 103.199 12.938 103.199 12.0698V9.52683H102.484V8.77829H103.199V7.63673H104.088Z" fill="black"/>
<path d="M106.278 7H107.159V9.48145H107.229C107.347 9.22213 107.542 9.00554 107.788 8.86119C108.034 8.71684 108.318 8.65176 108.602 8.67481C108.82 8.66295 109.038 8.69934 109.24 8.78138C109.442 8.86342 109.624 8.9891 109.772 9.14943C109.92 9.30977 110.031 9.50082 110.097 9.70896C110.163 9.91709 110.182 10.1372 110.153 10.3535V13.2607H109.263V10.5728C109.263 9.85351 108.928 9.48925 108.3 9.48925C108.148 9.47672 107.994 9.49772 107.85 9.55077C107.706 9.60383 107.576 9.68766 107.468 9.79639C107.36 9.90513 107.277 10.0362 107.225 10.1803C107.173 10.3244 107.153 10.4782 107.167 10.6308V13.2607H106.278L106.278 7Z" fill="black"/>
<path d="M115.334 12.0449C115.214 12.4565 114.952 12.8125 114.595 13.0506C114.239 13.2888 113.81 13.3939 113.383 13.3477C113.087 13.3555 112.792 13.2987 112.519 13.1811C112.247 13.0636 112.003 12.8882 111.805 12.6671C111.607 12.4459 111.46 12.1844 111.373 11.9005C111.287 11.6167 111.263 11.3174 111.303 11.0235C111.264 10.7286 111.288 10.4286 111.375 10.144C111.461 9.85929 111.608 9.59652 111.805 9.37345C112.001 9.15038 112.244 8.9722 112.516 8.851C112.787 8.72979 113.082 8.66838 113.379 8.67091C114.632 8.67091 115.388 9.52691 115.388 10.9409V11.251H112.208V11.3008C112.195 11.466 112.215 11.6324 112.269 11.7891C112.324 11.9459 112.41 12.0896 112.523 12.211C112.636 12.3325 112.773 12.429 112.925 12.4944C113.078 12.5598 113.242 12.5926 113.408 12.5908C113.62 12.6163 113.836 12.578 114.026 12.4808C114.217 12.3836 114.375 12.2319 114.479 12.0449L115.334 12.0449ZM112.208 10.5938H114.483C114.494 10.4426 114.474 10.2908 114.423 10.1481C114.372 10.0054 114.291 9.87492 114.187 9.76506C114.083 9.6552 113.956 9.5684 113.816 9.51022C113.677 9.45205 113.526 9.42379 113.374 9.42726C113.221 9.42533 113.068 9.45419 112.926 9.51213C112.784 9.57008 112.654 9.65594 112.546 9.76465C112.437 9.87336 112.351 10.0027 112.293 10.1451C112.235 10.2875 112.206 10.4401 112.208 10.5938H112.208Z" fill="black"/>
<path d="M31.7045 20.2949C31.7166 19.3367 31.9669 18.3972 32.4321 17.5637C32.8972 16.7303 33.5621 16.03 34.3648 15.5281C33.8548 14.7875 33.1821 14.1779 32.4 13.7479C31.6178 13.3179 30.7479 13.0793 29.8592 13.051C27.9635 12.8487 26.1258 14.2046 25.1598 14.2046C24.1751 14.2046 22.6878 13.0711 21.0862 13.1046C20.0502 13.1387 19.0406 13.445 18.1557 13.9939C17.2708 14.5427 16.5407 15.3153 16.0367 16.2364C13.8535 20.0805 15.482 25.7301 17.5734 28.8375C18.6197 30.3591 19.8426 32.0587 21.4428 31.9984C23.0086 31.9324 23.5934 30.983 25.4835 30.983C27.3561 30.983 27.9048 31.9984 29.5374 31.9601C31.2176 31.9324 32.2762 30.4318 33.2859 28.8958C34.0377 27.8116 34.6162 26.6134 35 25.3454C34.0238 24.9256 33.1908 24.2227 32.6048 23.3246C32.0187 22.4265 31.7056 21.3728 31.7045 20.2949Z" fill="black"/>
<path d="M28.6208 11.0074C29.5369 9.88898 29.9883 8.45141 29.879 7C28.4793 7.1495 27.1865 7.82979 26.258 8.90532C25.804 9.43074 25.4563 10.042 25.2348 10.7042C25.0132 11.3663 24.9222 12.0664 24.9669 12.7644C25.6669 12.7717 26.3595 12.6174 26.9924 12.3131C27.6253 12.0087 28.1821 11.5623 28.6208 11.0074Z" fill="black"/>
</g>
<defs>
<clipPath id="clip0_74_705">
<rect width="135" height="40" rx="5" fill="white"/>
</clipPath>
</defs>
</svg>
