<svg width="201" height="83" viewBox="0 0 201 83" fill="none" xmlns="http://www.w3.org/2000/svg">
<g filter="url(#filter0_ddd_1_2770)">
<rect x="19" y="15" width="166" height="46" rx="5.76389" fill="white"/>
<path d="M35.535 23.457C35.1988 23.8112 35 24.3609 35 25.0727V50.5061C35 51.2191 35.1988 51.7677 35.535 52.1219L35.6205 52.2047L49.9367 37.9573V37.7894V37.6215L35.6205 23.373L35.535 23.457Z" fill="url(#paint0_linear_1_2770)"/>
<path d="M54.7092 42.7095L49.9379 37.9588V37.7909V37.623L54.7103 32.8735L54.8178 32.9345L60.4719 36.1315C62.0874 37.0446 62.0874 38.5384 60.4719 39.4527L54.8178 42.6497L54.7092 42.7095Z" fill="url(#paint1_linear_1_2770)"/>
<path d="M54.8178 42.6472L49.9379 37.7896L35.535 52.122C36.0677 52.6832 36.946 52.7522 37.9363 52.1922L54.8178 42.6472Z" fill="url(#paint2_linear_1_2770)"/>
<path d="M54.8178 32.9321L37.9374 23.3871C36.9471 22.827 36.0689 22.8972 35.5362 23.4572L49.9379 37.7897L54.8178 32.9321Z" fill="url(#paint3_linear_1_2770)"/>
<path opacity="0.2" d="M54.7103 42.5405L37.9374 52.0246C36.9991 52.5547 36.1602 52.5202 35.6217 52.0372L35.535 52.1235L35.6205 52.2063C36.159 52.6893 36.998 52.7249 37.9363 52.1936L54.8166 42.6486L54.7103 42.5405Z" fill="black"/>
<path opacity="0.12" d="M35.535 51.9541C35.1988 51.5999 35 51.0502 35 50.3384V50.5063C35 51.2181 35.1988 51.7678 35.535 52.122L35.6217 52.0358L35.535 51.9541Z" fill="black"/>
<path opacity="0.12" d="M60.4719 39.2826L54.7103 42.5405L54.8177 42.6475L60.4719 39.4505C61.2796 38.9939 61.6829 38.3925 61.6829 37.791C61.6147 38.335 61.2033 38.8686 60.4719 39.2826Z" fill="black"/>
<path opacity="0.25" d="M37.9363 23.5551L60.4708 36.2971C61.2034 36.7111 61.6136 37.2447 61.6818 37.7898C61.6818 37.1883 61.2785 36.5857 60.4708 36.1292L37.9363 23.3872C36.3208 22.4741 35 23.2319 35 25.0731V25.2421C35 23.401 36.322 22.642 37.9363 23.5551Z" fill="white"/>
<path d="M102.219 38.7608C99.5013 38.7608 97.2861 40.817 97.2861 43.6518C97.2861 46.4681 99.5013 48.5427 102.219 48.5427C104.937 48.5427 107.152 46.4681 107.152 43.6518C107.152 40.817 104.937 38.7608 102.219 38.7608ZM102.219 46.6165C100.73 46.6165 99.4447 45.394 99.4447 43.6518C99.4447 41.8911 100.73 40.6871 102.219 40.6871C103.709 40.6871 104.993 41.8911 104.993 43.6518C104.993 45.3929 103.709 46.6165 102.219 46.6165ZM91.4564 38.7608C88.7385 38.7608 86.5233 40.817 86.5233 43.6518C86.5233 46.4681 88.7385 48.5427 91.4564 48.5427C94.1742 48.5427 96.3894 46.4681 96.3894 43.6518C96.3906 40.817 94.1742 38.7608 91.4564 38.7608ZM91.4564 46.6165C89.9669 46.6165 88.683 45.394 88.683 43.6518C88.683 41.8911 89.968 40.6871 91.4564 40.6871C92.9459 40.6871 94.2297 41.8911 94.2297 43.6518C94.2309 45.3929 92.9459 46.6165 91.4564 46.6165ZM78.6551 40.2616V42.3362H83.6448C83.4957 43.5034 83.1052 44.3556 82.5089 44.949C81.7832 45.6712 80.6473 46.4681 78.6551 46.4681C75.5837 46.4681 73.1824 44.0037 73.1824 40.947C73.1824 37.8903 75.5837 35.4258 78.6551 35.4258C80.3122 35.4258 81.5221 36.0744 82.4153 36.9082L83.8863 35.4442C82.6395 34.2586 80.9824 33.3501 78.6551 33.3501C74.4477 33.3501 70.9106 36.7587 70.9106 40.9458C70.9106 45.133 74.4477 48.5416 78.6551 48.5416C80.9258 48.5416 82.6395 47.801 83.9799 46.4106C85.3573 45.0398 85.7861 43.1124 85.7861 41.5565C85.7861 41.0746 85.7491 40.6296 85.674 40.2593H78.6551V40.2616ZM131.011 41.8727C130.602 40.7791 129.354 38.7597 126.804 38.7597C124.272 38.7597 122.169 40.7423 122.169 43.6506C122.169 46.3922 124.253 48.5416 127.046 48.5416C129.299 48.5416 130.602 47.1708 131.142 46.3738L129.466 45.2618C128.908 46.0771 128.144 46.6142 127.046 46.6142C125.947 46.6142 125.166 46.1139 124.664 45.1318L131.235 42.427L131.011 41.8727ZM124.309 43.5034C124.253 41.614 125.78 40.6503 126.878 40.6503C127.734 40.6503 128.46 41.0758 128.702 41.6876L124.309 43.5034ZM118.966 48.246H121.125V33.8699H118.966V48.246ZM115.428 39.8533H115.354C114.87 39.2795 113.94 38.7597 112.767 38.7597C110.309 38.7597 108.057 40.909 108.057 43.669C108.057 46.4106 110.309 48.5416 112.767 48.5416C113.94 48.5416 114.87 48.0229 115.354 47.4295H115.428V48.1333C115.428 50.0044 114.423 51.0049 112.803 51.0049C111.481 51.0049 110.662 50.0596 110.327 49.2638L108.446 50.0423C108.986 51.3395 110.42 52.9323 112.803 52.9323C115.335 52.9323 117.476 51.4499 117.476 47.8378V39.0564H115.428V39.8533ZM112.953 46.6165C111.464 46.6165 110.217 45.3756 110.217 43.6702C110.217 41.9475 111.464 40.6871 112.953 40.6871C114.424 40.6871 115.577 41.9463 115.577 43.6702C115.577 45.3745 114.424 46.6165 112.953 46.6165ZM141.127 33.8699H135.96V48.246H138.115V42.7996H141.126C143.515 42.7996 145.865 41.0781 145.865 38.3353C145.865 35.5926 143.516 33.8699 141.127 33.8699ZM141.182 40.7986H138.115V35.8709H141.182C142.794 35.8709 143.709 37.1991 143.709 38.3353C143.709 39.4485 142.794 40.7986 141.182 40.7986ZM154.508 38.7344C152.947 38.7344 151.33 39.4186 150.661 40.9355L152.576 41.7313C152.985 40.9355 153.747 40.6767 154.546 40.6767C155.661 40.6767 156.795 41.3426 156.813 42.5259V42.6743C156.423 42.4523 155.586 42.1188 154.565 42.1188C152.502 42.1188 150.401 43.247 150.401 45.3561C150.401 47.28 152.093 48.5186 153.988 48.5186C155.438 48.5186 156.237 47.8711 156.738 47.1133H156.812V48.223H158.893V42.7111C158.893 40.1581 156.98 38.7344 154.508 38.7344ZM154.247 46.613C153.541 46.613 152.555 46.2611 152.555 45.3929C152.555 44.2831 153.782 43.8576 154.841 43.8576C155.788 43.8576 156.234 44.0612 156.811 44.3383C156.645 45.67 155.493 46.613 154.247 46.613ZM166.476 39.0483L164.004 45.2813H163.93L161.366 39.0483H159.044L162.89 47.7596L160.697 52.6057H162.946L168.875 39.0483H166.476ZM147.055 48.246H149.211V33.8699H147.055V48.246Z" fill="black"/>
<path fill-rule="evenodd" clip-rule="evenodd" d="M108.593 29.164C107.911 29.8621 107.064 30.2094 106.051 30.2094C105.037 30.2094 104.19 29.8609 103.51 29.164C102.828 28.4671 102.488 27.6138 102.488 26.6052C102.488 25.5967 102.828 24.7434 103.51 24.0465C104.19 23.3485 105.037 23 106.051 23C107.058 23 107.904 23.3507 108.588 24.0511C109.272 24.7514 109.614 25.6024 109.614 26.6052C109.614 27.6149 109.274 28.4682 108.593 29.164ZM104.167 28.5867C104.68 29.1042 105.308 29.3618 106.051 29.3618C106.794 29.3618 107.421 29.1031 107.934 28.5867C108.447 28.0692 108.705 27.4091 108.705 26.6064C108.705 25.8037 108.447 25.1425 107.934 24.6261C107.422 24.1086 106.794 23.851 106.051 23.851C105.308 23.851 104.68 24.1098 104.167 24.6261C103.655 25.1436 103.397 25.8037 103.397 26.6064C103.397 27.4091 103.655 28.0692 104.167 28.5867Z" fill="black"/>
<path d="M78.3277 26.8858C78.3277 27.8495 78.0411 28.6166 77.4668 29.1893C76.8151 29.8701 75.9646 30.2105 74.92 30.2105C73.9193 30.2105 73.0676 29.8655 72.3685 29.1755C71.6682 28.4843 71.3181 27.6287 71.3181 26.6075C71.3181 25.5852 71.6682 24.7296 72.3685 24.0396C73.0676 23.3484 73.9193 23.0034 74.92 23.0034C75.4169 23.0034 75.8918 23.1 76.3425 23.2921C76.7943 23.4853 77.156 23.7417 77.4264 24.0626L76.8174 24.6698C76.3586 24.1235 75.7266 23.851 74.9188 23.851C74.1885 23.851 73.5576 24.1063 73.0249 24.6169C72.4933 25.1275 72.2275 25.7899 72.2275 26.6064C72.2275 27.4229 72.4933 28.0853 73.026 28.597C73.5587 29.1076 74.1897 29.3629 74.92 29.3629C75.6942 29.3629 76.3402 29.1065 76.8567 28.5924C77.1918 28.2578 77.3859 27.792 77.4379 27.1952H74.92V26.3649H78.2792C78.3127 26.5454 78.3277 26.7191 78.3277 26.8858Z" fill="black"/>
<path d="M83.6548 24.004H80.4979V26.1913H83.3451V27.0204H80.4979V29.2077H83.6548V30.0564H79.6069V23.1564H83.6548V24.004Z" fill="black"/>
<path d="M86.5195 30.0564H87.4104V24.004H89.3471V23.1564H84.5827V24.004H86.5195V30.0564Z" fill="black"/>
<path d="M92.7953 30.0564V23.1564H93.6862V30.0564H92.7953Z" fill="black"/>
<path d="M96.745 30.0564H97.6359V24.004H99.5726V23.1564H94.8083V24.004H96.745V30.0564Z" fill="black"/>
<path d="M110.865 23.1564V30.0564H111.753V25.7577L111.715 24.4283H111.753L115.279 30.0564H116.209V23.1564H115.318V27.1952L115.356 28.5246H115.318L111.949 23.1564H110.865Z" fill="black"/>
</g>
<defs>
<filter id="filter0_ddd_1_2770" x="0.555555" y="0.0138886" width="202.889" height="82.8889" filterUnits="userSpaceOnUse" color-interpolation-filters="sRGB">
<feFlood flood-opacity="0" result="BackgroundImageFix"/>
<feColorMatrix in="SourceAlpha" type="matrix" values="0 0 0 0 0 0 0 0 0 0 0 0 0 0 0 0 0 0 127 0" result="hardAlpha"/>
<feMorphology radius="3.45833" operator="erode" in="SourceAlpha" result="effect1_dropShadow_1_2770"/>
<feOffset dy="5.76389"/>
<feGaussianBlur stdDeviation="2.88194"/>
<feColorMatrix type="matrix" values="0 0 0 0 0.364706 0 0 0 0 0.447059 0 0 0 0 0.54902 0 0 0 0.16 0"/>
<feBlend mode="normal" in2="BackgroundImageFix" result="effect1_dropShadow_1_2770"/>
<feColorMatrix in="SourceAlpha" type="matrix" values="0 0 0 0 0 0 0 0 0 0 0 0 0 0 0 0 0 0 127 0" result="hardAlpha"/>
<feMorphology radius="2.30556" operator="dilate" in="SourceAlpha" result="effect2_dropShadow_1_2770"/>
<feOffset dy="3.45833"/>
<feGaussianBlur stdDeviation="8.06944"/>
<feColorMatrix type="matrix" values="0 0 0 0 0.364706 0 0 0 0 0.447059 0 0 0 0 0.54902 0 0 0 0.08 0"/>
<feBlend mode="normal" in2="effect1_dropShadow_1_2770" result="effect2_dropShadow_1_2770"/>
<feColorMatrix in="SourceAlpha" type="matrix" values="0 0 0 0 0 0 0 0 0 0 0 0 0 0 0 0 0 0 127 0" result="hardAlpha"/>
<feMorphology radius="1.15278" operator="dilate" in="SourceAlpha" result="effect3_dropShadow_1_2770"/>
<feOffset dy="9.22222"/>
<feGaussianBlur stdDeviation="5.76389"/>
<feColorMatrix type="matrix" values="0 0 0 0 0.364706 0 0 0 0 0.447059 0 0 0 0 0.54902 0 0 0 0.1 0"/>
<feBlend mode="normal" in2="effect2_dropShadow_1_2770" result="effect3_dropShadow_1_2770"/>
<feBlend mode="normal" in="SourceGraphic" in2="effect3_dropShadow_1_2770" result="shape"/>
</filter>
<linearGradient id="paint0_linear_1_2770" x1="48.6675" y1="24.8046" x2="29.3679" y2="44.1973" gradientUnits="userSpaceOnUse">
<stop stop-color="#00A0FF"/>
<stop offset="0.0066" stop-color="#00A1FF"/>
<stop offset="0.2601" stop-color="#00BEFF"/>
<stop offset="0.5122" stop-color="#00D2FF"/>
<stop offset="0.7604" stop-color="#00DFFF"/>
<stop offset="1" stop-color="#00E3FF"/>
</linearGradient>
<linearGradient id="paint1_linear_1_2770" x1="62.5742" y1="37.7904" x2="34.6133" y2="37.7904" gradientUnits="userSpaceOnUse">
<stop stop-color="#FFE000"/>
<stop offset="0.4087" stop-color="#FFBD00"/>
<stop offset="0.7754" stop-color="#FFA500"/>
<stop offset="1" stop-color="#FF9C00"/>
</linearGradient>
<linearGradient id="paint2_linear_1_2770" x1="52.1657" y1="40.429" x2="25.9939" y2="66.7272" gradientUnits="userSpaceOnUse">
<stop stop-color="#FF3A44"/>
<stop offset="1" stop-color="#C31162"/>
</linearGradient>
<linearGradient id="paint3_linear_1_2770" x1="31.9091" y1="14.9913" x2="43.596" y2="26.7345" gradientUnits="userSpaceOnUse">
<stop stop-color="#32A071"/>
<stop offset="0.0685" stop-color="#2DA771"/>
<stop offset="0.4762" stop-color="#15CF74"/>
<stop offset="0.8009" stop-color="#06E775"/>
<stop offset="1" stop-color="#00F076"/>
</linearGradient>
</defs>
</svg>
