<svg width="136" height="40" viewBox="0 0 136 40" fill="none" xmlns="http://www.w3.org/2000/svg">
<g clip-path="url(#clip0_74_706)">
<rect x="0.664062" width="135" height="40" rx="5" fill="white"/>
<path d="M130.664 40H5.66306C2.91306 40 0.664062 37.75 0.664062 35V5C0.664062 2.25 2.91306 0 5.66306 0H130.664C133.414 0 135.664 2.25 135.664 5V35C135.664 37.75 133.414 40 130.664 40Z" fill="white"/>
<path d="M10.463 7.39766C10.172 7.70566 10 8.18366 10 8.80266V30.9187C10 31.5387 10.172 32.0157 10.463 32.3237L10.537 32.3957L22.926 20.0067V19.8607V19.7147L10.537 7.32466L10.463 7.39766Z" fill="url(#paint0_linear_74_706)"/>
<path d="M27.056 24.1387L22.927 20.0077V19.8617V19.7157L27.057 15.5857L27.15 15.6387L32.043 18.4187C33.441 19.2127 33.441 20.5117 32.043 21.3067L27.15 24.0867L27.056 24.1387Z" fill="url(#paint1_linear_74_706)"/>
<path d="M27.15 24.0847L22.927 19.8607L10.463 32.3237C10.924 32.8117 11.684 32.8717 12.541 32.3847L27.15 24.0847Z" fill="url(#paint2_linear_74_706)"/>
<path d="M27.15 15.6367L12.542 7.33667C11.685 6.84967 10.925 6.91067 10.464 7.39767L22.927 19.8607L27.15 15.6367Z" fill="url(#paint3_linear_74_706)"/>
<path opacity="0.2" d="M27.057 23.9917L12.542 32.2387C11.73 32.6997 11.004 32.6697 10.538 32.2497L10.463 32.3247L10.537 32.3967C11.003 32.8167 11.729 32.8477 12.541 32.3857L27.149 24.0857L27.057 23.9917Z" fill="black"/>
<path opacity="0.12" d="M10.463 32.1777C10.172 31.8697 10 31.3917 10 30.7727V30.9187C10 31.5377 10.172 32.0157 10.463 32.3237L10.538 32.2487L10.463 32.1777Z" fill="black"/>
<path opacity="0.12" d="M32.043 21.1587L27.057 23.9917L27.15 24.0847L32.043 21.3047C32.742 20.9077 33.091 20.3847 33.091 19.8617C33.032 20.3347 32.676 20.7987 32.043 21.1587Z" fill="black"/>
<path opacity="0.25" d="M12.541 7.48267L32.042 18.5627C32.676 18.9227 33.031 19.3867 33.09 19.8607C33.09 19.3377 32.741 18.8137 32.042 18.4167L12.541 7.33667C11.143 6.54267 10 7.20167 10 8.80267V8.94967C10 7.34867 11.144 6.68867 12.541 7.48267Z" fill="white"/>
<path d="M68.1708 20.705C65.8188 20.705 63.9018 22.493 63.9018 24.958C63.9018 27.407 65.8188 29.211 68.1708 29.211C70.5228 29.211 72.4398 27.407 72.4398 24.958C72.4398 22.493 70.5228 20.705 68.1708 20.705ZM68.1708 27.536C66.8818 27.536 65.7698 26.473 65.7698 24.958C65.7698 23.427 66.8818 22.38 68.1708 22.38C69.4598 22.38 70.5708 23.427 70.5708 24.958C70.5708 26.472 69.4598 27.536 68.1708 27.536ZM58.8568 20.705C56.5048 20.705 54.5878 22.493 54.5878 24.958C54.5878 27.407 56.5048 29.211 58.8568 29.211C61.2087 29.211 63.1258 27.407 63.1258 24.958C63.1268 22.493 61.2087 20.705 58.8568 20.705ZM58.8568 27.536C57.5678 27.536 56.4568 26.473 56.4568 24.958C56.4568 23.427 57.5688 22.38 58.8568 22.38C60.1458 22.38 61.2568 23.427 61.2568 24.958C61.2578 26.472 60.1458 27.536 58.8568 27.536ZM47.7788 22.01V23.814H52.0968C51.9678 24.829 51.6298 25.57 51.1138 26.086C50.4858 26.714 49.5028 27.407 47.7788 27.407C45.1208 27.407 43.0428 25.264 43.0428 22.606C43.0428 19.948 45.1208 17.805 47.7788 17.805C49.2128 17.805 50.2598 18.369 51.0328 19.094L52.3058 17.821C51.2268 16.79 49.7928 16 47.7788 16C44.1378 16 41.0768 18.964 41.0768 22.605C41.0768 26.246 44.1378 29.21 47.7788 29.21C49.7438 29.21 51.2268 28.566 52.3868 27.357C53.5788 26.165 53.9498 24.489 53.9498 23.136C53.9498 22.717 53.9178 22.33 53.8528 22.008H47.7788V22.01ZM93.0868 23.411C92.7328 22.46 91.6528 20.704 89.4458 20.704C87.2548 20.704 85.4348 22.428 85.4348 24.957C85.4348 27.341 87.2388 29.21 89.6558 29.21C91.6048 29.21 92.7328 28.018 93.1998 27.325L91.7497 26.358C91.2667 27.067 90.6058 27.534 89.6558 27.534C88.7048 27.534 88.0288 27.099 87.5938 26.245L93.2808 23.893L93.0868 23.411ZM87.2868 24.829C87.2388 23.186 88.5597 22.348 89.5098 22.348C90.2508 22.348 90.8788 22.718 91.0888 23.25L87.2868 24.829ZM82.6628 28.953H84.5318V16.452H82.6628V28.953ZM79.6018 21.655H79.5378C79.1188 21.156 78.3138 20.704 77.2988 20.704C75.1718 20.704 73.2228 22.573 73.2228 24.973C73.2228 27.357 75.1718 29.21 77.2988 29.21C78.3138 29.21 79.1188 28.759 79.5378 28.243H79.6018V28.855C79.6018 30.482 78.7318 31.352 77.3298 31.352C76.1857 31.352 75.4768 30.53 75.1868 29.838L73.5598 30.515C74.0268 31.643 75.2677 33.028 77.3298 33.028C79.5208 33.028 81.3737 31.739 81.3737 28.598V20.962H79.6018V21.655ZM77.4598 27.536C76.1708 27.536 75.0918 26.457 75.0918 24.974C75.0918 23.476 76.1708 22.38 77.4598 22.38C78.7328 22.38 79.7308 23.475 79.7308 24.974C79.7308 26.456 78.7328 27.536 77.4598 27.536ZM101.841 16.452H97.3698V28.953H99.2347V24.217H101.84C103.908 24.217 105.941 22.72 105.941 20.335C105.941 17.95 103.909 16.452 101.841 16.452ZM101.889 22.477H99.2347V18.192H101.889C103.284 18.192 104.076 19.347 104.076 20.335C104.076 21.303 103.284 22.477 101.889 22.477ZM113.421 20.682C112.07 20.682 110.671 21.277 110.092 22.596L111.749 23.288C112.103 22.596 112.762 22.371 113.454 22.371C114.419 22.371 115.4 22.95 115.416 23.979V24.108C115.078 23.915 114.354 23.625 113.47 23.625C111.685 23.625 109.867 24.606 109.867 26.44C109.867 28.113 111.331 29.19 112.971 29.19C114.226 29.19 114.917 28.627 115.351 27.968H115.415V28.933H117.216V24.14C117.216 21.92 115.56 20.682 113.421 20.682ZM113.195 27.533C112.584 27.533 111.731 27.227 111.731 26.472C111.731 25.507 112.793 25.137 113.709 25.137C114.529 25.137 114.915 25.314 115.414 25.555C115.27 26.713 114.273 27.533 113.195 27.533ZM123.778 20.955L121.639 26.375H121.575L119.356 20.955H117.346L120.675 28.53L118.777 32.744H120.723L125.854 20.955H123.778ZM106.971 28.953H108.837V16.452H106.971V28.953Z" fill="black"/>
<path fill-rule="evenodd" clip-rule="evenodd" d="M73.6858 12.36C73.0958 12.967 72.3628 13.269 71.4858 13.269C70.6088 13.269 69.8758 12.966 69.2868 12.36C68.6968 11.754 68.4028 11.012 68.4028 10.135C68.4028 9.258 68.6968 8.516 69.2868 7.91C69.8758 7.303 70.6088 7 71.4858 7C72.3578 7 73.0898 7.305 73.6818 7.914C74.2738 8.523 74.5698 9.263 74.5698 10.135C74.5698 11.013 74.2748 11.755 73.6858 12.36ZM69.8558 11.858C70.2998 12.308 70.8428 12.532 71.4858 12.532C72.1288 12.532 72.6718 12.307 73.1158 11.858C73.5598 11.408 73.7828 10.834 73.7828 10.136C73.7828 9.438 73.5598 8.863 73.1158 8.414C72.6728 7.964 72.1288 7.74 71.4858 7.74C70.8428 7.74 70.2998 7.965 69.8558 8.414C69.4128 8.864 69.1898 9.438 69.1898 10.136C69.1898 10.834 69.4128 11.408 69.8558 11.858Z" fill="black"/>
<path d="M47.4948 10.379C47.4948 11.217 47.2468 11.884 46.7498 12.382C46.1858 12.974 45.4498 13.27 44.5458 13.27C43.6798 13.27 42.9428 12.97 42.3378 12.37C41.7318 11.769 41.4288 11.025 41.4288 10.137C41.4288 9.248 41.7318 8.504 42.3378 7.904C42.9428 7.303 43.6798 7.003 44.5458 7.003C44.9758 7.003 45.3868 7.087 45.7768 7.254C46.1678 7.422 46.4808 7.645 46.7148 7.924L46.1878 8.452C45.7908 7.977 45.2438 7.74 44.5448 7.74C43.9128 7.74 43.3668 7.962 42.9058 8.406C42.4458 8.85 42.2158 9.426 42.2158 10.136C42.2158 10.846 42.4458 11.422 42.9068 11.867C43.3678 12.311 43.9138 12.533 44.5458 12.533C45.2158 12.533 45.7748 12.31 46.2218 11.863C46.5118 11.572 46.6798 11.167 46.7248 10.648H44.5458V9.926H47.4528C47.4818 10.083 47.4948 10.234 47.4948 10.379Z" fill="black"/>
<path d="M52.1048 7.873H49.3728V9.775H51.8368V10.496H49.3728V12.398H52.1048V13.136H48.6018V7.136H52.1048V7.873Z" fill="black"/>
<path d="M54.5838 13.136H55.3548V7.873H57.0308V7.136H52.9078V7.873H54.5838V13.136Z" fill="black"/>
<path d="M60.0148 13.136V7.136H60.7858V13.136H60.0148Z" fill="black"/>
<path d="M63.4328 13.136H64.2038V7.873H65.8798V7.136H61.7568V7.873H63.4328V13.136Z" fill="black"/>
<path d="M75.6517 7.136V13.136H76.4208V9.398L76.3877 8.242H76.4208L79.4717 13.136H80.2767V7.136H79.5058V10.648L79.5387 11.804H79.5058L76.5898 7.136H75.6517Z" fill="black"/>
</g>
<defs>
<linearGradient id="paint0_linear_74_706" x1="21.8276" y1="8.56946" x2="5.0452" y2="25.3519" gradientUnits="userSpaceOnUse">
<stop stop-color="#00A0FF"/>
<stop offset="0.0066" stop-color="#00A1FF"/>
<stop offset="0.2601" stop-color="#00BEFF"/>
<stop offset="0.5122" stop-color="#00D2FF"/>
<stop offset="0.7604" stop-color="#00DFFF"/>
<stop offset="1" stop-color="#00E3FF"/>
</linearGradient>
<linearGradient id="paint1_linear_74_706" x1="33.8623" y1="19.8612" x2="9.6654" y2="19.8612" gradientUnits="userSpaceOnUse">
<stop stop-color="#FFE000"/>
<stop offset="0.4087" stop-color="#FFBD00"/>
<stop offset="0.7754" stop-color="#FFA500"/>
<stop offset="1" stop-color="#FF9C00"/>
</linearGradient>
<linearGradient id="paint2_linear_74_706" x1="24.8549" y1="22.1559" x2="2.09661" y2="44.9142" gradientUnits="userSpaceOnUse">
<stop stop-color="#FF3A44"/>
<stop offset="1" stop-color="#C31162"/>
</linearGradient>
<linearGradient id="paint3_linear_74_706" x1="7.32522" y1="0.0359676" x2="17.4878" y2="10.1985" gradientUnits="userSpaceOnUse">
<stop stop-color="#32A071"/>
<stop offset="0.0685" stop-color="#2DA771"/>
<stop offset="0.4762" stop-color="#15CF74"/>
<stop offset="0.8009" stop-color="#06E775"/>
<stop offset="1" stop-color="#00F076"/>
</linearGradient>
<clipPath id="clip0_74_706">
<rect x="0.664062" width="135" height="40" rx="5" fill="white"/>
</clipPath>
</defs>
</svg>
