<svg width="188" height="78" viewBox="0 0 188 78" fill="none" xmlns="http://www.w3.org/2000/svg">
<g opacity="0.5" clip-path="url(#clip0_1_2775)" filter="url(#filter0_ddd_1_2775)">
<path d="M24.8374 58.9974C24.4817 58.9974 24.1346 58.9926 23.7818 58.9849C23.1294 58.966 22.3554 58.9292 21.6003 58.791C20.888 58.6603 20.2549 58.4472 19.6666 58.1414C19.058 57.8273 18.511 57.4219 18.0362 56.9351C17.5531 56.4531 17.1559 55.8996 16.8453 55.2785C16.5426 54.6795 16.3358 54.0366 16.2116 53.3123C16.069 52.5142 16.0325 51.7044 16.0173 51.0881C16.0098 50.8377 16 50.0048 16 50.0048V21.9801C16 21.9801 16.0104 21.16 16.0173 20.919C16.0325 20.2972 16.069 19.488 16.2103 18.698C16.3352 17.9698 16.542 17.3273 16.8447 16.726C17.1546 16.104 17.5525 15.5473 18.0296 15.0675C18.5123 14.5765 19.0615 14.1698 19.6662 13.8544C20.2656 13.5452 20.8978 13.334 21.5959 13.2093C22.3816 13.066 23.1783 13.0304 23.7846 13.0147L24.838 13H162.766L163.832 13.0154C164.43 13.0304 165.227 13.066 166.001 13.208C166.704 13.3333 167.34 13.5458 167.951 13.8583C168.549 14.1698 169.098 14.5765 169.575 15.063C170.053 15.545 170.453 16.1046 170.77 16.7289C171.071 17.3356 171.276 17.9779 171.394 18.6852C171.53 19.4335 171.572 20.2024 171.597 20.9241C171.601 21.26 171.601 21.6209 171.601 21.9801C171.61 22.425 171.61 22.8484 171.61 23.2752V48.7232C171.61 49.1545 171.61 49.5747 171.601 49.999C171.601 50.3849 171.601 50.7381 171.596 51.1018C171.572 51.8005 171.53 52.5687 171.397 53.3007C171.276 54.0285 171.071 54.6715 170.766 55.282C170.452 55.8983 170.052 56.4556 169.581 56.9261C169.099 57.4219 168.552 57.826 167.948 58.1388C167.342 58.452 166.725 58.659 166.001 58.791C165.253 58.9292 164.479 58.966 163.819 58.9849C163.478 58.9926 163.119 58.9974 162.772 58.9974L161.507 59L24.8374 58.9974Z" fill="white"/>
<path d="M69.1133 42.2277H73.2033L71.7391 38.3751C71.5375 37.843 71.3394 37.2551 71.1441 36.6111C70.9678 37.1806 70.7756 37.7623 70.5678 38.3564L69.1133 42.2277ZM73.9022 44.0567H68.4238L67.0828 47.6588H64.6741L70.039 34.2065H72.3153L77.8031 47.6588H75.2718L73.9022 44.0567Z" fill="#030404"/>
<path d="M84.9192 45.2023C85.3946 44.5743 85.6324 43.6567 85.6324 42.4497C85.6324 41.3297 85.4355 40.5171 85.0421 40.0126C84.6483 39.5081 84.1242 39.2561 83.4693 39.2561C83.016 39.2561 82.5973 39.3615 82.2132 39.5716C81.8291 39.7823 81.4638 40.0638 81.1174 40.4165V45.7825C81.3505 45.8938 81.6213 45.9822 81.9299 46.0469C82.2384 46.1122 82.5439 46.1447 82.8459 46.1447C83.7529 46.1447 84.4437 45.8304 84.9192 45.2023ZM78.7846 40.0825C78.7846 39.3398 78.7593 38.5228 78.7091 37.6313H80.9003C80.982 38.0463 81.0388 38.4704 81.0703 38.9034C81.977 37.9319 83.016 37.4458 84.1872 37.4458C84.8674 37.4458 85.497 37.6145 86.0764 37.9515C86.6554 38.2891 87.1231 38.8212 87.4788 39.5483C87.8348 40.2757 88.0126 41.1997 88.0126 42.3197C88.0126 43.4896 87.8095 44.489 87.4033 45.3182C86.9971 46.1478 86.4289 46.7758 85.6985 47.203C84.9681 47.6299 84.1242 47.8436 83.1673 47.8436C82.4743 47.8436 81.791 47.7289 81.1174 47.5002V51.6405L78.7846 51.8355V40.0825Z" fill="#030404"/>
<path d="M95.5417 45.2023C96.0171 44.5743 96.2549 43.6567 96.2549 42.4497C96.2549 41.3297 96.058 40.5171 95.6646 40.0126C95.2708 39.5081 94.7467 39.2561 94.0918 39.2561C93.6385 39.2561 93.2198 39.3615 92.8357 39.5716C92.4513 39.7823 92.0863 40.0638 91.7399 40.4165V45.7825C91.973 45.8938 92.2435 45.9822 92.5524 46.0469C92.8606 46.1122 93.1661 46.1447 93.4684 46.1447C94.3751 46.1447 95.0662 45.8304 95.5417 45.2023ZM89.4068 40.0825C89.4068 39.3398 89.3815 38.5228 89.3313 37.6313H91.5228C91.6045 38.0463 91.6613 38.4704 91.6928 38.9034C92.5995 37.9319 93.6385 37.4458 94.8097 37.4458C95.4899 37.4458 96.1192 37.6145 96.6989 37.9515C97.2776 38.2891 97.7456 38.8212 98.1016 39.5483C98.457 40.2757 98.6351 41.1997 98.6351 42.3197C98.6351 43.4896 98.4317 44.489 98.0258 45.3182C97.6193 46.1478 97.0511 46.7758 96.321 47.203C95.5903 47.6299 94.7467 47.8436 93.7895 47.8436C93.0968 47.8436 92.4135 47.7289 91.7399 47.5002V51.6405L89.4068 51.8355V40.0825Z" fill="#030404"/>
<path d="M102.919 47.0209C101.911 46.4735 101.136 45.6887 100.595 44.6675C100.053 43.6463 99.7827 42.4396 99.7827 41.047C99.7827 39.537 100.094 38.2539 100.718 37.1986C101.341 36.1434 102.19 35.3513 103.263 34.822C104.337 34.293 105.541 34.0283 106.876 34.0283C107.663 34.0283 108.414 34.1136 109.129 34.2835C109.843 34.454 110.509 34.6873 111.127 34.9845L110.531 36.7485C109.291 36.1667 108.107 35.8757 106.98 35.8757C106.029 35.8757 105.197 36.0753 104.482 36.4746C103.767 36.8739 103.211 37.4602 102.815 38.2339C102.418 39.0077 102.22 39.9421 102.22 41.0375C102.22 41.9971 102.372 42.8481 102.677 43.5908C102.983 44.3332 103.465 44.9214 104.123 45.3544C104.781 45.7878 105.611 46.0043 106.612 46.0043C107.065 46.0043 107.518 45.9672 107.972 45.893C108.425 45.8187 108.85 45.7105 109.247 45.5679V42.8481H106.083V41.0654H111.514V46.7286C110.733 47.0874 109.913 47.3631 109.053 47.5548C108.194 47.7464 107.339 47.8424 106.489 47.8424C105.116 47.8424 103.926 47.5689 102.919 47.0209Z" fill="#030404"/>
<path d="M118.425 45.7917C118.909 45.563 119.306 45.2781 119.615 44.9377V43.0811C118.979 43.013 118.459 42.979 118.056 42.979C117.093 42.979 116.427 43.132 116.059 43.4387C115.69 43.7444 115.506 44.1578 115.506 44.6776C115.506 45.1732 115.64 45.5396 115.908 45.7779C116.175 46.0162 116.539 46.1352 116.998 46.1352C117.464 46.1352 117.94 46.0208 118.425 45.7917ZM119.823 47.6486C119.741 47.2585 119.687 46.8163 119.662 46.321C119.303 46.7421 118.836 47.0994 118.259 47.3934C117.684 47.6872 117.033 47.8341 116.309 47.8341C115.723 47.8341 115.19 47.7213 114.708 47.4953C114.227 47.2696 113.844 46.9292 113.56 46.4741C113.277 46.0193 113.135 45.4639 113.135 44.8076C113.135 43.8361 113.491 43.0609 114.203 42.4822C114.914 41.9035 116.101 41.6143 117.763 41.6143C118.387 41.6143 119.004 41.6576 119.615 41.744V41.5493C119.615 40.6643 119.423 40.0408 119.039 39.6783C118.654 39.3165 118.103 39.1355 117.386 39.1355C116.888 39.1355 116.356 39.2067 115.789 39.349C115.223 39.4916 114.725 39.6615 114.297 39.8596L113.929 38.1885C114.344 38.0027 114.892 37.8328 115.572 37.6779C116.252 37.5234 116.97 37.4458 117.726 37.4458C118.607 37.4458 119.356 37.5774 119.974 37.8402C120.591 38.1033 121.072 38.5553 121.419 39.1956C121.765 39.8366 121.938 40.6983 121.938 41.7815V45.7638C121.938 46.1787 121.963 46.8071 122.014 47.6486H119.823Z" fill="#030404"/>
<path d="M123.715 45.254V33.4173L126.038 33.2314V44.8455C126.038 45.2727 126.112 45.5742 126.26 45.7508C126.408 45.9268 126.643 46.0155 126.964 46.0155C127.109 46.0155 127.313 45.9814 127.578 45.9133L127.852 47.5565C127.631 47.6433 127.362 47.7129 127.044 47.7653C126.726 47.8177 126.425 47.8441 126.142 47.8441C124.523 47.8441 123.715 46.9809 123.715 45.254Z" fill="#030404"/>
<path d="M129.516 45.254V33.4173L131.84 33.2314V44.8455C131.84 45.2727 131.914 45.5742 132.062 45.7508C132.21 45.9268 132.444 46.0155 132.765 46.0155C132.91 46.0155 133.115 45.9814 133.379 45.9133L133.653 47.5565C133.433 47.6433 133.164 47.7129 132.846 47.7653C132.528 47.8177 132.227 47.8441 131.944 47.8441C130.325 47.8441 129.516 46.9809 129.516 45.254Z" fill="#030404"/>
<path d="M140.953 41.4751C140.909 40.6765 140.704 40.0779 140.339 39.6783C139.974 39.2794 139.485 39.0797 138.875 39.0797C138.283 39.0797 137.79 39.2809 137.397 39.6832C137.003 40.0856 136.746 40.683 136.627 41.4751H140.953ZM143.229 42.9324H136.561C136.668 45.0306 137.685 46.0797 139.612 46.0797C140.09 46.0797 140.58 46.0223 141.081 45.908C141.581 45.7933 142.061 45.6402 142.521 45.4483L143.031 47.0172C141.891 47.5621 140.61 47.8341 139.187 47.8341C138.104 47.8341 137.19 47.6333 136.447 47.2309C135.704 46.8286 135.145 46.2499 134.771 45.4946C134.396 44.7399 134.209 43.83 134.209 42.7655C134.209 41.6576 134.407 40.7044 134.804 39.9059C135.201 39.1076 135.754 38.498 136.462 38.0769C137.17 37.6562 137.987 37.4458 138.913 37.4458C139.876 37.4458 140.681 37.6672 141.326 38.1097C141.971 38.5519 142.45 39.1417 142.762 39.878C143.073 40.6149 143.229 41.4285 143.229 42.3197V42.9324Z" fill="#030404"/>
<path d="M144.992 40.1472C144.992 39.5968 144.966 38.758 144.916 37.6313H147.098C147.136 37.9101 147.172 38.2425 147.207 38.6295C147.241 39.0162 147.265 39.3303 147.277 39.5716C147.548 39.1325 147.814 38.7626 148.076 38.4624C148.337 38.1622 148.642 37.9178 148.992 37.7289C149.341 37.5399 149.739 37.4458 150.187 37.4458C150.546 37.4458 150.854 37.4829 151.112 37.5571L150.819 39.544C150.593 39.4759 150.341 39.4419 150.064 39.4419C149.516 39.4419 149.037 39.5796 148.628 39.855C148.219 40.1304 147.781 40.5836 147.315 41.215V47.6486H144.992V40.1472Z" fill="#030404"/>
<path d="M152.412 51.7502C152.072 51.6916 151.792 51.625 151.571 51.5508L151.996 49.8798C152.153 49.9227 152.352 49.9647 152.591 50.0049C152.83 50.0454 153.057 50.0653 153.271 50.0653C154.304 50.0653 155.078 49.4121 155.595 48.1063L155.746 47.735L151.987 37.6343H154.49L156.379 43.2791C156.687 44.2445 156.886 44.9842 156.974 45.4975C157.15 44.7735 157.358 44.0494 157.597 43.3254L159.515 37.6343H161.867L158.117 47.7816C157.764 48.7408 157.383 49.5143 156.974 50.1024C156.564 50.6903 156.082 51.1267 155.524 51.4116C154.967 51.6959 154.294 51.8385 153.507 51.8385C153.117 51.8385 152.752 51.8093 152.412 51.7502Z" fill="#030404"/>
<path d="M64.6741 21.3965H68.8325L68.7155 22.3836H65.8928V24.2954H68.5545V25.2203H65.8928V27.3382H68.8665L68.7641 28.3348H64.6741V21.3965Z" fill="#030404"/>
<path d="M71.6982 24.7937L69.5045 21.3965H70.8888L72.3758 23.8931L73.9408 21.3965H75.2862L73.1118 24.7508L75.4665 28.3348H74.0625L72.3808 25.6036L70.6695 28.3348H69.3242L71.6982 24.7937Z" fill="#030404"/>
<path d="M79.4195 24.4944C79.6794 24.2629 79.8095 23.9363 79.8095 23.5146C79.8095 23.0865 79.6769 22.7783 79.4123 22.5897C79.1475 22.4014 78.7581 22.307 78.2448 22.307H77.5818V24.7698C77.8873 24.818 78.1213 24.8419 78.2838 24.8419C78.7809 24.8419 79.1596 24.7263 79.4195 24.4944ZM76.3629 21.3965H78.2642C79.1578 21.3965 79.842 21.5756 80.3165 21.9332C80.7911 22.291 81.0282 22.8087 81.0282 23.4858C81.0282 23.9458 80.9218 24.3475 80.709 24.691C80.4959 25.0345 80.1995 25.2979 79.8192 25.4816C79.4392 25.6653 79.0017 25.757 78.5079 25.757C78.2383 25.757 77.9294 25.7254 77.5818 25.6613V28.3348H76.3629V21.3965Z" fill="#030404"/>
<path d="M82.2072 21.3965H83.4258V27.3096H86.3458L86.2435 28.3348H82.2072V21.3965Z" fill="#030404"/>
<path d="M91.3541 27.1453C91.6954 26.9199 91.9503 26.6102 92.1194 26.2155C92.2885 25.8211 92.3731 25.3697 92.3731 24.8619C92.3731 24.3635 92.2982 23.9198 92.1487 23.5297C91.999 23.1402 91.7603 22.8296 91.4321 22.5977C91.1039 22.3665 90.6814 22.2506 90.1644 22.2506C89.6705 22.2506 89.2512 22.3677 88.9068 22.6026C88.5623 22.8375 88.304 23.1522 88.1317 23.5466C87.9595 23.9412 87.8734 24.3764 87.8734 24.8523C87.8734 25.3541 87.9545 25.803 88.1171 26.1989C88.2793 26.5951 88.528 26.9079 88.8631 27.1379C89.1975 27.3679 89.6119 27.4829 90.1061 27.4829C90.5969 27.4829 91.0128 27.3704 91.3541 27.1453ZM88.1951 27.9957C87.6784 27.7053 87.2834 27.2971 87.0104 26.7715C86.7374 26.2461 86.6011 25.6353 86.6011 24.9385C86.6011 24.2071 86.7462 23.5677 87.0372 23.0194C87.328 22.4717 87.7474 22.0485 88.2949 21.7498C88.8425 21.4511 89.4883 21.3018 90.2328 21.3018C90.9444 21.3018 91.5572 21.4465 92.0707 21.7354C92.584 22.0246 92.9759 22.4309 93.2454 22.9547C93.5153 23.4788 93.6501 24.0857 93.6501 24.7757C93.6501 25.5203 93.5031 26.167 93.2089 26.7163C92.9147 27.2658 92.4957 27.689 91.9512 27.9862C91.4068 28.283 90.7675 28.4318 90.0331 28.4318C89.3245 28.4318 88.7118 28.2864 88.1951 27.9957Z" fill="#030404"/>
<path d="M96.9586 24.6787C97.254 24.6787 97.5155 24.6223 97.7432 24.5088C97.9707 24.3957 98.1479 24.2356 98.2746 24.0295C98.4015 23.8234 98.4649 23.5849 98.4649 23.3132C98.4649 22.9654 98.3526 22.7106 98.1286 22.5489C97.9042 22.3879 97.5772 22.307 97.1482 22.307H96.2662V24.6787H96.9586ZM95.0475 21.3965H97.2559C98.0618 21.3965 98.672 21.5547 99.0864 21.8709C99.5007 22.1871 99.7079 22.6394 99.7079 23.227C99.7079 23.5944 99.633 23.9179 99.4836 24.1973C99.3341 24.477 99.1488 24.7045 98.9279 24.8802C98.7067 25.0559 98.4796 25.1869 98.2456 25.2731L100.415 28.3348H99.0012L97.1632 25.5846H96.2662V28.3348H95.0475V21.3965Z" fill="#030404"/>
<path d="M101.361 21.3965H105.519L105.402 22.3836H102.58V24.2954H105.241V25.2203H102.58V27.3382H105.553L105.451 28.3348H101.361V21.3965Z" fill="#030404"/>
<path d="M111.282 21.3965H110.064V28.3348H111.282V21.3965Z" fill="#030404"/>
<path d="M114.471 22.3981H112.282L112.389 21.3965H117.884L117.771 22.3981H115.69V28.3348H114.471V22.3981Z" fill="#030404"/>
<path d="M126.335 27.1453C126.676 26.9199 126.931 26.6102 127.1 26.2155C127.269 25.8211 127.354 25.3697 127.354 24.8619C127.354 24.3635 127.279 23.9198 127.13 23.5297C126.98 23.1402 126.741 22.8296 126.413 22.5977C126.084 22.3665 125.662 22.2506 125.145 22.2506C124.651 22.2506 124.232 22.3677 123.888 22.6026C123.543 22.8375 123.285 23.1522 123.113 23.5466C122.94 23.9412 122.854 24.3764 122.854 24.8523C122.854 25.3541 122.935 25.803 123.098 26.1989C123.26 26.5951 123.509 26.9079 123.844 27.1379C124.178 27.3679 124.593 27.4829 125.087 27.4829C125.577 27.4829 125.994 27.3704 126.335 27.1453ZM123.176 27.9957C122.659 27.7053 122.264 27.2971 121.991 26.7715C121.718 26.2461 121.582 25.6353 121.582 24.9385C121.582 24.2071 121.727 23.5677 122.018 23.0194C122.309 22.4717 122.728 22.0485 123.276 21.7498C123.823 21.4511 124.469 21.3018 125.214 21.3018C125.925 21.3018 126.538 21.4465 127.052 21.7354C127.565 22.0246 127.956 22.4309 128.226 22.9547C128.496 23.4788 128.631 24.0857 128.631 24.7757C128.631 25.5203 128.484 26.167 128.19 26.7163C127.896 27.2658 127.476 27.689 126.932 27.9862C126.388 28.283 125.748 28.4318 125.014 28.4318C124.305 28.4318 123.693 28.2864 123.176 27.9957Z" fill="#030404"/>
<path d="M129.985 21.3965H131.385L134.875 26.773C134.846 26.2621 134.831 25.7904 134.831 25.3592V21.3965H135.962V28.3348H134.607L131.063 22.8725C131.099 23.4922 131.116 24.0415 131.116 24.5208V28.3348H129.985V21.3965Z" fill="#030404"/>
<path fill-rule="evenodd" clip-rule="evenodd" d="M47.5391 21.4282H34.5773C28.4715 21.4282 26.2382 23.6236 26.2382 29.6248V42.3653C26.2382 48.3664 28.4715 50.5615 34.5773 50.5615H47.535C53.6409 50.5615 55.8782 48.3664 55.8782 42.3653V29.6248C55.8782 23.6236 53.6449 21.4282 47.5391 21.4282Z" fill="#C9202F"/>
<path d="M39.189 38.3255H40.3777L39.7815 36.9627L39.189 38.3255ZM38.8963 39.0124L38.5438 39.8055H37.741L39.4483 35.9988H40.1419L41.8423 39.8055H41.0179L40.6698 39.0124H38.8963ZM51.8141 39.803H52.59V35.9988H51.8141V39.803ZM48.7262 38.1682H50.1561V37.4751H48.7262V36.6953H50.802V36.0013H47.9506V39.8052H50.8768V39.1115H48.7262V38.1682ZM45.6433 38.6178L44.7635 35.9985H44.122L43.2422 38.6178L42.3861 36.0004H41.5493L42.8999 39.8073H43.5508L44.4319 37.3068L45.3126 39.8073H45.9694L47.3166 36.0004H46.5013L45.6433 38.6178ZM36.5567 38.1789C36.5567 38.7981 36.2437 39.129 35.6756 39.129C35.1043 39.129 34.7898 38.7889 34.7898 38.1526V36.001H34.0036V38.1789C34.0036 39.2504 34.6092 39.8647 35.665 39.8647C36.7311 39.8647 37.3426 39.2388 37.3426 38.1473V35.9985H36.5567V38.1789ZM32.1275 35.9988H32.9134V39.8076H32.1275V38.2608H30.3519V39.8076H29.5657V35.9988H30.3519V37.5352H32.1275V35.9988Z" fill="white"/>
<path d="M41.0689 31.1524C38.3486 31.1524 36.1353 28.9769 36.1353 26.3027H36.8323C36.8323 28.5991 38.7326 30.467 41.0689 30.467C43.4052 30.467 45.3055 28.5991 45.3055 26.3027H46.0026C46.0026 28.9769 43.7892 31.1524 41.0689 31.1524Z" fill="white"/>
</g>
<defs>
<filter id="filter0_ddd_1_2775" x="0" y="0" width="188" height="78" filterUnits="userSpaceOnUse" color-interpolation-filters="sRGB">
<feFlood flood-opacity="0" result="BackgroundImageFix"/>
<feColorMatrix in="SourceAlpha" type="matrix" values="0 0 0 0 0 0 0 0 0 0 0 0 0 0 0 0 0 0 127 0" result="hardAlpha"/>
<feMorphology radius="3" operator="erode" in="SourceAlpha" result="effect1_dropShadow_1_2775"/>
<feOffset dy="5"/>
<feGaussianBlur stdDeviation="2.5"/>
<feColorMatrix type="matrix" values="0 0 0 0 0.364706 0 0 0 0 0.447059 0 0 0 0 0.54902 0 0 0 0.16 0"/>
<feBlend mode="normal" in2="BackgroundImageFix" result="effect1_dropShadow_1_2775"/>
<feColorMatrix in="SourceAlpha" type="matrix" values="0 0 0 0 0 0 0 0 0 0 0 0 0 0 0 0 0 0 127 0" result="hardAlpha"/>
<feMorphology radius="2" operator="dilate" in="SourceAlpha" result="effect2_dropShadow_1_2775"/>
<feOffset dy="3"/>
<feGaussianBlur stdDeviation="7"/>
<feColorMatrix type="matrix" values="0 0 0 0 0.364706 0 0 0 0 0.447059 0 0 0 0 0.54902 0 0 0 0.08 0"/>
<feBlend mode="normal" in2="effect1_dropShadow_1_2775" result="effect2_dropShadow_1_2775"/>
<feColorMatrix in="SourceAlpha" type="matrix" values="0 0 0 0 0 0 0 0 0 0 0 0 0 0 0 0 0 0 127 0" result="hardAlpha"/>
<feMorphology radius="1" operator="dilate" in="SourceAlpha" result="effect3_dropShadow_1_2775"/>
<feOffset dy="8"/>
<feGaussianBlur stdDeviation="5"/>
<feColorMatrix type="matrix" values="0 0 0 0 0.364706 0 0 0 0 0.447059 0 0 0 0 0.54902 0 0 0 0.1 0"/>
<feBlend mode="normal" in2="effect2_dropShadow_1_2775" result="effect3_dropShadow_1_2775"/>
<feBlend mode="normal" in="SourceGraphic" in2="effect3_dropShadow_1_2775" result="shape"/>
</filter>
<clipPath id="clip0_1_2775">
<rect width="156" height="46" fill="white" transform="translate(16 13)"/>
</clipPath>
</defs>
</svg>
