<svg width="134" height="40" viewBox="0 0 134 40" fill="none" xmlns="http://www.w3.org/2000/svg">
<path d="M7.55333 39.9978C7.24936 39.9978 6.95266 39.9936 6.6511 39.9869C6.09354 39.9705 5.43196 39.9384 4.78655 39.8183C4.17779 39.7046 3.63667 39.5193 3.13382 39.2534C2.61371 38.9803 2.14616 38.6277 1.74032 38.2044C1.32747 37.7853 0.987924 37.304 0.722483 36.7639C0.46378 36.243 0.286999 35.684 0.180823 35.0541C0.0590167 34.3602 0.0277567 33.656 0.0148216 33.12C0.00835398 32.9024 0 32.1781 0 32.1781V7.80882C0 7.80882 0.00889295 7.09566 0.0148216 6.88609C0.0277567 6.34543 0.0590167 5.64175 0.179745 4.95478C0.28646 4.32161 0.463241 3.76284 0.721944 3.24002C0.986846 2.69909 1.32693 2.21501 1.73466 1.79781C2.14724 1.37086 2.61668 1.01721 3.13355 0.742981C3.64583 0.474047 4.18615 0.290392 4.78278 0.181983C5.45433 0.0574096 6.13531 0.0264753 6.65353 0.0128196L7.55387 0H125.441L126.352 0.013377C126.864 0.0264753 127.544 0.0574096 128.206 0.180868C128.807 0.289835 129.351 0.474605 129.873 0.746325C130.384 1.01721 130.853 1.37086 131.261 1.79391C131.669 2.21306 132.011 2.69964 132.282 3.24253C132.539 3.77008 132.714 4.32857 132.816 4.94364C132.932 5.59437 132.968 6.26294 132.989 6.89055C132.992 7.18261 132.992 7.49641 132.992 7.80882C133 8.19564 133 8.56378 133 8.935V31.0636C133 31.4387 133 31.8041 132.992 32.1731C132.992 32.5086 132.992 32.8157 132.988 33.132C132.968 33.7396 132.932 34.4076 132.818 35.0441C132.714 35.677 132.539 36.236 132.279 36.7669C132.01 37.3029 131.668 37.7875 131.266 38.1966C130.854 38.6277 130.386 38.9792 129.87 39.2512C129.353 39.5234 128.824 39.7035 128.206 39.8183C127.567 39.9384 126.905 39.9705 126.341 39.9869C126.049 39.9936 125.743 39.9978 125.446 39.9978L124.365 40L7.55333 39.9978Z" fill="white"/>
<path d="M45.3959 25.415H48.8917L47.6402 22.0649C47.4679 21.6022 47.2986 21.091 47.1317 20.531C46.981 21.0262 46.8167 21.5321 46.6391 22.0486L45.3959 25.415ZM49.489 27.0054H44.8066L43.6605 30.1377H41.6018L46.1871 18.4401H48.1327L52.8231 30.1377H50.6597L49.489 27.0054Z" fill="#030404"/>
<path d="M58.9053 28.0015C59.3117 27.4554 59.5149 26.6575 59.5149 25.6079C59.5149 24.634 59.3466 23.9274 59.0103 23.4887C58.6738 23.05 58.2258 22.8308 57.6661 22.8308C57.2786 22.8308 56.9207 22.9226 56.5925 23.1052C56.2642 23.2884 55.9519 23.5332 55.6559 23.8399V28.506C55.8551 28.6028 56.0866 28.6796 56.3503 28.7359C56.6141 28.7927 56.8751 28.821 57.1333 28.821C57.9085 28.821 58.4989 28.5476 58.9053 28.0015ZM53.6621 23.5495C53.6621 22.9036 53.6405 22.1932 53.5975 21.418H55.4703C55.5402 21.7788 55.5887 22.1476 55.6157 22.5242C56.3906 21.6794 57.2786 21.2567 58.2797 21.2567C58.861 21.2567 59.3991 21.4034 59.8943 21.6964C60.3893 21.99 60.789 22.4527 61.093 23.085C61.3973 23.7175 61.5493 24.521 61.5493 25.4948C61.5493 26.5122 61.3757 27.3812 61.0285 28.1023C60.6813 28.8236 60.1957 29.3698 59.5714 29.7412C58.9471 30.1124 58.2258 30.2983 57.4079 30.2983C56.8157 30.2983 56.2317 30.1986 55.6559 29.9996V33.5999L53.6621 33.7695V23.5495Z" fill="#030404"/>
<path d="M67.9843 28.0015C68.3907 27.4554 68.5939 26.6575 68.5939 25.6079C68.5939 24.634 68.4256 23.9274 68.0893 23.4887C67.7528 23.05 67.3048 22.8308 66.7451 22.8308C66.3576 22.8308 65.9997 22.9226 65.6715 23.1052C65.3429 23.2884 65.0309 23.5332 64.7349 23.8399V28.506C64.9341 28.6028 65.1653 28.6796 65.4293 28.7359C65.6928 28.7927 65.9539 28.821 66.2123 28.821C66.9872 28.821 67.5779 28.5476 67.9843 28.0015ZM62.7408 23.5495C62.7408 22.9036 62.7192 22.1932 62.6763 21.418H64.5493C64.6192 21.7788 64.6677 22.1476 64.6947 22.5242C65.4696 21.6794 66.3576 21.2567 67.3587 21.2567C67.94 21.2567 68.4779 21.4034 68.9733 21.6964C69.468 21.99 69.868 22.4527 70.1723 23.085C70.476 23.7175 70.6283 24.521 70.6283 25.4948C70.6283 26.5122 70.4544 27.3812 70.1075 28.1023C69.76 28.8236 69.2744 29.3698 68.6504 29.7412C68.0259 30.1124 67.3048 30.2983 66.4867 30.2983C65.8947 30.2983 65.3107 30.1986 64.7349 29.9996V33.5999L62.7408 33.7695V23.5495Z" fill="#030404"/>
<path d="M74.2894 29.583C73.4281 29.107 72.7662 28.4246 72.3035 27.5366C71.8403 26.6486 71.6091 25.5993 71.6091 24.3884C71.6091 23.0753 71.8755 21.9596 72.4083 21.042C72.9411 20.1244 73.6665 19.4356 74.5838 18.9753C75.5017 18.5153 76.5307 18.2852 77.6721 18.2852C78.3446 18.2852 78.9865 18.3593 79.5974 18.507C80.2081 18.6553 80.7771 18.8582 81.3049 19.1166L80.7961 20.6505C79.7358 20.1446 78.7241 19.8916 77.7609 19.8916C76.9481 19.8916 76.2363 20.0652 75.6257 20.4124C75.0147 20.7596 74.5395 21.2694 74.2006 21.9422C73.8614 22.615 73.6921 23.4276 73.6921 24.3801C73.6921 25.2145 73.8225 25.9545 74.0833 26.6004C74.3446 27.246 74.7563 27.7574 75.3187 28.134C75.8811 28.5108 76.5902 28.699 77.4459 28.699C77.8334 28.699 78.2209 28.6668 78.6083 28.6022C78.9958 28.5377 79.3593 28.4436 79.6982 28.3196V25.9545H76.9939V24.4044H81.6358V29.3289C80.9683 29.6409 80.2673 29.8806 79.5329 30.0473C78.7979 30.214 78.0675 30.2974 77.3409 30.2974C76.1675 30.2974 75.1502 30.0596 74.2894 29.583Z" fill="#030404"/>
<path d="M87.5426 28.514C87.9567 28.3151 88.2959 28.0674 88.5596 27.7714V26.157C88.0159 26.0978 87.5719 26.0682 87.2276 26.0682C86.4042 26.0682 85.8348 26.2012 85.5204 26.4679C85.2052 26.7338 85.0479 27.0932 85.0479 27.5452C85.0479 27.9762 85.1623 28.2948 85.3911 28.502C85.6199 28.7092 85.9306 28.8127 86.3234 28.8127C86.7215 28.8127 87.1279 28.7132 87.5426 28.514ZM88.7372 30.1287C88.6671 29.7895 88.6212 29.405 88.5999 28.9743C88.2932 29.3404 87.8938 29.6511 87.401 29.9068C86.909 30.1623 86.353 30.29 85.734 30.29C85.2335 30.29 84.7775 30.1919 84.3655 29.9954C83.9543 29.7991 83.6271 29.5031 83.385 29.1074C83.1428 28.7119 83.0215 28.229 83.0215 27.6583C83.0215 26.8135 83.3255 26.1394 83.9337 25.6362C84.542 25.133 85.5564 24.8815 86.9772 24.8815C87.51 24.8815 88.0375 24.9191 88.5596 24.9943V24.825C88.5596 24.0554 88.3953 23.5132 88.0671 23.198C87.7388 22.8834 87.2679 22.726 86.6546 22.726C86.2292 22.726 85.7746 22.7879 85.29 22.9116C84.8058 23.0356 84.3804 23.1834 84.0146 23.3556L83.6996 21.9026C84.0548 21.741 84.5231 21.5932 85.1044 21.4586C85.6858 21.3242 86.2991 21.2567 86.945 21.2567C87.6986 21.2567 88.3388 21.3711 88.8663 21.5996C89.3938 21.8284 89.8055 22.2215 90.1015 22.7783C90.3975 23.3356 90.5455 24.085 90.5455 25.0268V28.4898C90.5455 28.8506 90.5668 29.397 90.61 30.1287H88.7372Z" fill="#030404"/>
<path d="M92.0638 28.0468V17.754L94.0497 17.5924V27.6916C94.0497 28.063 94.1129 28.3252 94.2393 28.4788C94.3657 28.6318 94.5662 28.7089 94.8409 28.7089C94.9646 28.7089 95.1396 28.6793 95.3655 28.6201L95.5996 30.0489C95.4111 30.1244 95.1812 30.1849 94.9097 30.2305C94.6377 30.2761 94.3806 30.299 94.1385 30.299C92.755 30.299 92.0638 29.5484 92.0638 28.0468Z" fill="#030404"/>
<path d="M97.0225 28.0468V17.754L99.0083 17.5924V27.6916C99.0083 28.063 99.0715 28.3252 99.1979 28.4788C99.3246 28.6318 99.5251 28.7089 99.7995 28.7089C99.9233 28.7089 100.098 28.6793 100.324 28.6201L100.558 30.0489C100.37 30.1244 100.14 30.1849 99.8683 30.2305C99.5963 30.2761 99.3393 30.299 99.0971 30.299C97.7139 30.299 97.0225 29.5484 97.0225 28.0468Z" fill="#030404"/>
<path d="M106.797 24.7604C106.76 24.066 106.585 23.5455 106.273 23.198C105.96 22.8511 105.543 22.6775 105.021 22.6775C104.515 22.6775 104.094 22.8524 103.758 23.2023C103.421 23.5522 103.202 24.0716 103.1 24.7604H106.797ZM108.743 26.0276H103.043C103.135 27.8522 104.004 28.7644 105.651 28.7644C106.06 28.7644 106.478 28.7146 106.907 28.6151C107.334 28.5154 107.744 28.3823 108.137 28.2154L108.573 29.5796C107.599 30.0535 106.504 30.29 105.288 30.29C104.362 30.29 103.581 30.1154 102.947 29.7655C102.311 29.4156 101.834 28.9124 101.514 28.2556C101.193 27.5994 101.033 26.8082 101.033 25.8826C101.033 24.9191 101.203 24.0903 101.542 23.3959C101.881 22.7018 102.353 22.1716 102.959 21.8055C103.564 21.4396 104.263 21.2567 105.054 21.2567C105.877 21.2567 106.565 21.4492 107.116 21.834C107.668 22.2186 108.077 22.7314 108.343 23.3716C108.609 24.0124 108.743 24.7199 108.743 25.4948V26.0276Z" fill="#030404"/>
<path d="M110.249 23.6058C110.249 23.1271 110.228 22.3978 110.185 21.418H112.05C112.082 21.6604 112.113 21.9495 112.142 22.286C112.172 22.6223 112.192 22.8954 112.203 23.1052C112.434 22.7234 112.662 22.4018 112.885 22.1407C113.108 21.8796 113.37 21.6671 113.668 21.5028C113.967 21.3386 114.307 21.2567 114.689 21.2567C114.996 21.2567 115.26 21.289 115.481 21.3535L115.23 23.0812C115.037 23.022 114.821 22.9924 114.585 22.9924C114.116 22.9924 113.707 23.1122 113.357 23.3516C113.007 23.5911 112.633 23.9852 112.235 24.5343V30.1287H110.249V23.6058Z" fill="#030404"/>
<path d="M116.591 33.6955C116.301 33.6445 116.061 33.5867 115.873 33.5221L116.236 32.0691C116.37 32.1064 116.54 32.1429 116.745 32.1779C116.949 32.2131 117.143 32.2304 117.326 32.2304C118.209 32.2304 118.87 31.6624 119.312 30.5269L119.441 30.204L116.228 21.4208H118.367L119.982 26.3293C120.245 27.1688 120.415 27.812 120.49 28.2584C120.641 27.6288 120.819 26.9992 121.023 26.3696L122.662 21.4208H124.672L121.467 30.2445C121.166 31.0787 120.84 31.7512 120.49 32.2627C120.141 32.7739 119.728 33.1533 119.251 33.4011C118.775 33.6483 118.2 33.7723 117.528 33.7723C117.194 33.7723 116.882 33.7469 116.591 33.6955Z" fill="#030404"/>
<path d="M41.6018 7.30127H45.1559L45.0559 8.15967H42.6434V9.82207H44.9183V10.6263H42.6434V12.4679H45.185L45.0975 13.3346H41.6018V7.30127Z" fill="#030404"/>
<path d="M47.6052 10.2554L45.7303 7.30127H46.9135L48.1844 9.4722L49.522 7.30127H50.6719L48.8135 10.2181L50.826 13.3346H49.626L48.1887 10.9597L46.726 13.3346H45.5762L47.6052 10.2554Z" fill="#030404"/>
<path d="M54.2047 9.99514C54.4268 9.7938 54.538 9.5098 54.538 9.14314C54.538 8.77087 54.4247 8.50287 54.1986 8.33887C53.9722 8.17514 53.6394 8.093 53.2007 8.093H52.634V10.2346C52.8951 10.2765 53.0951 10.2973 53.234 10.2973C53.6588 10.2973 53.9826 10.1967 54.2047 9.99514ZM51.5922 7.30127H53.2172C53.981 7.30127 54.5658 7.457 54.9714 7.76794C55.377 8.07914 55.5796 8.52927 55.5796 9.11807C55.5796 9.51807 55.4887 9.8674 55.3068 10.1661C55.1247 10.4647 54.8714 10.6938 54.5463 10.8535C54.2215 11.0133 53.8476 11.093 53.4255 11.093C53.1951 11.093 52.9311 11.0655 52.634 11.0098V13.3346H51.5922V7.30127Z" fill="#030404"/>
<path d="M56.5873 7.30127H57.6289V12.4431H60.1246L60.0371 13.3346H56.5873V7.30127Z" fill="#030404"/>
<path d="M64.4052 12.3006C64.6969 12.1046 64.9148 11.8352 65.0593 11.492C65.2038 11.1491 65.2761 10.7566 65.2761 10.315C65.2761 9.88164 65.2121 9.49577 65.0844 9.15657C64.9564 8.81791 64.7524 8.54777 64.4718 8.34617C64.1913 8.14511 63.8302 8.04431 63.3884 8.04431C62.9662 8.04431 62.6078 8.14617 62.3134 8.35044C62.019 8.55471 61.7982 8.82831 61.651 9.17124C61.5038 9.51444 61.4302 9.89284 61.4302 10.3067C61.4302 10.743 61.4996 11.1334 61.6385 11.4776C61.7772 11.8222 61.9897 12.0942 62.2761 12.2942C62.562 12.4942 62.9161 12.5942 63.3385 12.5942C63.758 12.5942 64.1134 12.4963 64.4052 12.3006ZM61.7052 13.04C61.2636 12.7875 60.926 12.4326 60.6926 11.9755C60.4593 11.5187 60.3428 10.9875 60.3428 10.3816C60.3428 9.74564 60.4668 9.18964 60.7156 8.71284C60.9641 8.23657 61.3225 7.86857 61.7905 7.60884C62.2585 7.34911 62.8105 7.21924 63.4468 7.21924C64.055 7.21924 64.5788 7.34511 65.0177 7.59631C65.4564 7.84777 65.7913 8.20111 66.0217 8.65657C66.2524 9.11231 66.3676 9.64004 66.3676 10.24C66.3676 10.8875 66.242 11.4499 65.9905 11.9275C65.739 12.4054 65.3809 12.7734 64.9156 13.0318C64.4502 13.2899 63.9038 13.4192 63.2761 13.4192C62.6705 13.4192 62.1468 13.2928 61.7052 13.04Z" fill="#030404"/>
<path d="M69.1953 10.1554C69.4479 10.1554 69.6713 10.1063 69.866 10.0077C70.0604 9.90927 70.2119 9.77007 70.3201 9.59087C70.4287 9.41167 70.4828 9.2042 70.4828 8.96794C70.4828 8.66554 70.3868 8.44394 70.1953 8.3034C70.0036 8.1634 69.7241 8.093 69.3575 8.093H68.6036V10.1554H69.1953ZM67.562 7.30127H69.4495C70.1383 7.30127 70.6599 7.43887 71.014 7.7138C71.3681 7.98874 71.5452 8.38207 71.5452 8.893C71.5452 9.21247 71.4812 9.4938 71.3535 9.73674C71.2257 9.97994 71.0673 10.1778 70.8785 10.3306C70.6895 10.4834 70.4953 10.5973 70.2953 10.6722L72.1495 13.3346H70.9412L69.3703 10.9431H68.6036V13.3346H67.562V7.30127Z" fill="#030404"/>
<path d="M72.9583 7.30127H76.5124L76.4124 8.15967H73.9999V9.82207H76.2748V10.6263H73.9999V12.4679H76.5414L76.454 13.3346H72.9583V7.30127Z" fill="#030404"/>
<path d="M81.438 7.30127H80.3964V13.3346H81.438V7.30127Z" fill="#030404"/>
<path d="M84.1632 8.1722H82.2922L82.384 7.30127H87.08L86.984 8.1722H85.2048V13.3346H84.1632V8.1722Z" fill="#030404"/>
<path d="M94.3034 12.3006C94.5949 12.1046 94.813 11.8352 94.9575 11.492C95.1018 11.1491 95.1741 10.7566 95.1741 10.315C95.1741 9.88164 95.1101 9.49577 94.9826 9.15657C94.8546 8.81791 94.6503 8.54777 94.3701 8.34617C94.0893 8.14511 93.7282 8.04431 93.2866 8.04431C92.8642 8.04431 92.5061 8.14617 92.2117 8.35044C91.917 8.55471 91.6962 8.82831 91.5493 9.17124C91.4018 9.51444 91.3282 9.89284 91.3282 10.3067C91.3282 10.743 91.3975 11.1334 91.5367 11.4776C91.6754 11.8222 91.8879 12.0942 92.1741 12.2942C92.4602 12.4942 92.8143 12.5942 93.2367 12.5942C93.6559 12.5942 94.0117 12.4963 94.3034 12.3006ZM91.6034 13.04C91.1615 12.7875 90.8242 12.4326 90.5909 11.9755C90.3575 11.5187 90.2407 10.9875 90.2407 10.3816C90.2407 9.74564 90.365 9.18964 90.6138 8.71284C90.8621 8.23657 91.2205 7.86857 91.6887 7.60884C92.1567 7.34911 92.7087 7.21924 93.345 7.21924C93.9533 7.21924 94.4767 7.34511 94.9159 7.59631C95.3546 7.84777 95.6893 8.20111 95.9199 8.65657C96.1503 9.11231 96.2658 9.64004 96.2658 10.24C96.2658 10.8875 96.1399 11.4499 95.8887 11.9275C95.6373 12.4054 95.2789 12.7734 94.8138 13.0318C94.3485 13.2899 93.8018 13.4192 93.1741 13.4192C92.5685 13.4192 92.045 13.2928 91.6034 13.04Z" fill="#030404"/>
<path d="M97.4235 7.30127H98.6195L101.603 11.9765C101.578 11.5322 101.565 11.1221 101.565 10.7471V7.30127H102.532V13.3346H101.374L98.3445 8.58474C98.3749 9.12367 98.3901 9.60127 98.3901 10.0181V13.3346H97.4235V7.30127Z" fill="#030404"/>
<path fill-rule="evenodd" clip-rule="evenodd" d="M26.9565 7.32867H15.8781C10.6594 7.32867 8.75061 9.23774 8.75061 14.4561V25.5348C8.75061 30.7532 10.6594 32.662 15.8781 32.662H26.953C32.1717 32.662 34.0839 30.7532 34.0839 25.5348V14.4561C34.0839 9.23774 32.1751 7.32867 26.9565 7.32867Z" fill="#C9202F"/>
<path d="M19.8197 22.0223H20.8357L20.3261 20.8372L19.8197 22.0223ZM19.5695 22.6196L19.2682 23.3092H18.5821L20.0413 19.9991H20.6341L22.0874 23.3092H21.3829L21.0853 22.6196H19.5695ZM30.6103 23.3071H31.2735V19.9991H30.6103V23.3071ZM27.9711 21.8855H29.1933V21.2828H27.9711V20.6047H29.7453V20.0012H27.3082V23.309H29.8093V22.7058H27.9711V21.8855ZM25.3362 22.2764L24.5842 19.9988H24.0359L23.2839 22.2764L22.5522 20.0004H21.837L22.9914 23.3108H23.5477L24.3007 21.1364L25.0535 23.3108H25.6149L26.7663 20.0004H26.0695L25.3362 22.2764ZM17.5698 21.8948C17.5698 22.4332 17.3023 22.721 16.8167 22.721C16.3285 22.721 16.0597 22.4252 16.0597 21.8719V20.001H15.3877V21.8948C15.3877 22.8266 15.9053 23.3607 16.8077 23.3607C17.7189 23.3607 18.2415 22.8164 18.2415 21.8674V19.9988H17.5698V21.8948ZM13.7842 19.9991H14.4559V23.3111H13.7842V21.966H12.2666V23.3111H11.5946V19.9991H12.2666V21.3351H13.7842V19.9991Z" fill="white"/>
<path d="M21.4264 15.7843C19.1013 15.7843 17.2096 13.8926 17.2096 11.5673H17.8053C17.8053 13.5641 19.4296 15.1883 21.4264 15.1883C23.4232 15.1883 25.0474 13.5641 25.0474 11.5673H25.6432C25.6432 13.8926 23.7515 15.7843 21.4264 15.7843Z" fill="white"/>
</svg>
