<svg width="59" height="23" viewBox="0 0 59 23" fill="none" xmlns="http://www.w3.org/2000/svg">
<path d="M55.994 19.6273C55.9653 19.5418 55.272 17.5226 53.3181 15.5206C51.5266 13.6855 48.2859 11.496 43.0209 11.496C37.8298 11.496 34.1986 13.4269 32.0675 15.0464C31.6982 15.3274 31.3593 15.6084 31.0513 15.8831C31.1334 15.5665 31.2291 15.2345 31.341 14.891C32.3938 11.648 34.2829 8.94692 36.9547 6.86234C41.7346 3.13477 46.7278 4.26566 49.8664 5.69188L46.936 8.6229C46.7382 8.82063 46.6272 9.0888 46.6272 9.36842C46.6272 9.64804 46.7382 9.91621 46.936 10.1139C47.1337 10.3117 47.4019 10.4227 47.6815 10.4227C47.9611 10.4227 48.2293 10.3117 48.427 10.1139L52.3874 6.15353C52.5025 6.03801 52.5893 5.89736 52.6408 5.74263C52.6923 5.58791 52.7073 5.42334 52.6844 5.26187C52.6616 5.10039 52.6016 4.94642 52.5091 4.81207C52.4167 4.67771 52.2943 4.56664 52.1517 4.48759L52.1093 4.46408C50.1704 3.39799 48.1793 2.70409 46.1876 2.4099C44.5193 2.15421 42.8184 2.20552 41.1686 2.5613C39.2073 2.99656 37.3561 3.88372 35.6603 5.20443C32.8293 7.41016 30.691 10.3822 29.4995 13.7675C28.308 10.3822 26.1697 7.41016 23.3387 5.20443C21.643 3.88372 19.7918 2.99656 17.8288 2.5613C16.1795 2.20573 14.4792 2.15442 12.8115 2.4099C10.8198 2.70409 8.8287 3.39799 6.89093 4.46465L6.84735 4.48759C6.70432 4.56648 6.58159 4.67754 6.48883 4.81199C6.39607 4.94644 6.33584 5.10061 6.31287 5.26233C6.2899 5.42405 6.30483 5.5889 6.35649 5.74386C6.40814 5.89882 6.4951 6.03965 6.61051 6.15525L10.5749 10.1162C10.6728 10.2141 10.7891 10.2918 10.917 10.3448C11.0449 10.3978 11.182 10.425 11.3204 10.425C11.4589 10.425 11.596 10.3978 11.7239 10.3448C11.8518 10.2918 11.9681 10.2141 12.066 10.1162C12.1639 10.0183 12.2415 9.9021 12.2945 9.77418C12.3475 9.64627 12.3748 9.50917 12.3748 9.37071C12.3748 9.23226 12.3475 9.09516 12.2945 8.96724C12.2415 8.83933 12.1639 8.7231 12.066 8.6252L9.13551 5.69418C12.2701 4.2691 17.2633 3.13878 22.0444 6.86578C24.7162 8.94864 26.6052 11.6497 27.6581 14.8944C27.7699 15.2385 27.8657 15.57 27.9477 15.8865C27.6398 15.6118 27.3008 15.3308 26.9315 15.0498C24.7993 13.4303 21.1681 11.4994 15.9782 11.4994C10.7131 11.4994 7.47244 13.6878 5.68091 15.5241C3.72479 17.5244 3.03146 19.5435 3.00508 19.6273C2.95173 19.7857 2.93686 19.9545 2.96171 20.1198C2.98656 20.2851 3.0504 20.4422 3.14797 20.5779C3.24554 20.7136 3.37402 20.8242 3.52279 20.9004C3.67156 20.9766 3.83634 21.0163 4.0035 21.0162H25.3441C25.6235 21.0162 25.8915 20.9052 26.0891 20.7077C26.2866 20.5101 26.3976 20.2422 26.3976 19.9628C26.3976 19.6834 26.2866 19.4154 26.0891 19.2178C25.8915 19.0203 25.6235 18.9093 25.3441 18.9093H5.7004C6.12412 18.2163 6.62426 17.573 7.19143 16.9916C9.38095 14.7447 12.3384 13.6058 15.9759 13.6058C19.6369 13.6058 22.869 14.6381 25.5816 16.671C27.6208 18.2005 28.5906 19.7575 28.5986 19.7678C28.6066 19.7781 28.6061 19.7792 28.6095 19.785L28.6307 19.8171C28.6399 19.8303 28.6491 19.8435 28.6588 19.8561L28.6806 19.8836C28.6909 19.8968 28.7018 19.9094 28.7127 19.922C28.7236 19.9347 28.7282 19.9387 28.7357 19.9467C28.7431 19.9547 28.7592 19.9714 28.7718 19.9828L28.7965 20.0058C28.8091 20.0167 28.8211 20.0281 28.8343 20.0385L28.8624 20.0602C28.875 20.07 28.8876 20.0797 28.9014 20.0889L28.9324 20.109L28.9719 20.1336L29.0058 20.152L29.0471 20.1732L29.0815 20.1881C29.0958 20.1944 29.1107 20.2007 29.1262 20.2065C29.1417 20.2122 29.148 20.2145 29.1595 20.2185C29.1709 20.2225 29.1921 20.2294 29.2082 20.234L29.2225 20.2386L29.2415 20.2426C29.2581 20.2472 29.2747 20.2506 29.2914 20.2541L29.3269 20.261L29.3745 20.2678L29.4129 20.2713C29.4278 20.2713 29.4433 20.2713 29.4582 20.2742H29.499H29.542C29.5563 20.2742 29.5706 20.2742 29.5856 20.2713C29.6005 20.2684 29.6119 20.2713 29.6251 20.2673L29.6716 20.261L29.7083 20.2541L29.757 20.2432L29.7765 20.2386L29.7914 20.234C29.8075 20.2294 29.8235 20.2243 29.839 20.2185L29.8734 20.2065L29.9176 20.1881C29.9293 20.1836 29.9408 20.1784 29.952 20.1726C29.9663 20.1663 29.9801 20.1589 29.9933 20.152L30.0271 20.1336L30.0667 20.109L30.0982 20.0889C30.1114 20.0797 30.124 20.07 30.1372 20.0597L30.1648 20.0385C30.1779 20.0281 30.1906 20.0167 30.2032 20.0052C30.2158 19.9937 30.2198 19.9909 30.2273 19.9828C30.2347 19.9748 30.2519 19.9587 30.2634 19.9467C30.2749 19.9347 30.2789 19.9306 30.2863 19.922C30.2938 19.9134 30.3081 19.8968 30.3184 19.8836L30.3402 19.8561C30.35 19.8435 30.3592 19.8303 30.3683 19.8171L30.3896 19.785C30.393 19.7792 30.397 19.7741 30.4005 19.7678C30.4383 19.7076 34.237 13.6058 43.0232 13.6058C46.6223 13.6058 49.5573 14.7235 51.7457 16.9274C52.3398 17.5262 52.8622 18.1923 53.3021 18.9122H33.6549C33.3755 18.9122 33.1076 19.0231 32.91 19.2207C32.7124 19.4183 32.6014 19.6862 32.6014 19.9656C32.6014 20.245 32.7124 20.513 32.91 20.7105C33.1076 20.9081 33.3755 21.0191 33.6549 21.0191H54.9979C55.1652 21.019 55.33 20.979 55.4788 20.9025C55.6276 20.8259 55.756 20.715 55.8533 20.579C55.9507 20.4429 56.0142 20.2856 56.0387 20.1201C56.0632 19.9546 56.0478 19.7857 55.994 19.6273Z" fill="#1A938A"/>
</svg>
