<svg width="100" height="33" viewBox="0 0 100 33" fill="none" xmlns="http://www.w3.org/2000/svg">
<path d="M99.8872 30.542C94.7177 19.5594 83.0445 17.1014 81.9884 16.8922C73.2057 14.8003 64.6454 16.317 57.1968 21.2853C55.4181 22.4881 53.8616 23.7433 52.6387 24.8938C53.0278 23.2726 53.5281 21.4422 54.3619 19.5071C57.5859 11.9239 63.3669 6.79873 71.5381 4.28843C71.5381 4.28843 71.5381 4.28843 71.5937 4.28843C71.7049 4.23613 80.0428 1.62124 89.2146 6.17116L83.3224 11.7147C82.5998 12.3946 82.5998 13.4929 83.3224 14.1727C84.0451 14.8526 85.2124 14.8526 85.935 14.1727L93.4948 7.06022C93.8839 6.69414 94.1062 6.17116 94.0506 5.64818C93.995 5.1252 93.6615 4.65452 93.2168 4.39303C81.9328 -2.458 71.0934 0.836767 70.3708 1.04596C61.199 3.87005 54.4731 9.88431 50.9156 18.4089C50.582 19.141 50.3597 19.8732 50.0818 20.5531C49.8594 19.8732 49.5815 19.141 49.248 18.4089C45.5793 9.83201 38.8533 3.81775 29.7371 0.993661C29.0701 0.784469 18.2307 -2.5626 6.89109 4.34073C6.4464 4.60222 6.11288 5.0729 6.05729 5.59588C6.00171 6.11886 6.16847 6.64184 6.61316 7.00792L14.1173 14.1204C14.84 14.8003 16.0073 14.8003 16.7299 14.1204C17.4525 13.4406 17.4525 12.3423 16.7299 11.6624L10.8933 6.17116C20.0095 1.62124 28.1807 4.18384 28.5142 4.28843C28.5142 4.28843 28.5142 4.28843 28.5698 4.28843C36.6854 6.79873 42.4664 11.9239 45.6904 19.5071C46.5242 21.4422 47.0801 23.2726 47.4136 24.8938C46.1907 23.7433 44.6343 22.4881 42.8555 21.2853C35.4069 16.317 26.8466 14.8526 18.064 16.8922C17.0078 17.1014 5.27908 19.5594 0.165132 30.542C-0.1128 31.065 -0.0572136 31.6926 0.331892 32.2155C0.720997 32.7385 1.27686 33 1.88831 33H41.9105C42.9111 33 43.7449 32.2155 43.7449 31.2742C43.7449 30.3328 42.9111 29.5483 41.9105 29.5483H4.94557C9.94835 22.0697 18.731 20.3962 18.8422 20.3962C18.8978 20.3962 18.8978 20.3962 18.9533 20.3962C26.7354 18.5135 34.0173 19.8209 40.6321 24.1616C45.6904 27.4564 48.4142 31.4311 48.4697 31.4834C48.5253 31.5357 48.5253 31.588 48.5809 31.588L48.6365 31.6403L48.6921 31.6926C48.7477 31.7449 48.7477 31.7449 48.8033 31.7971C48.8589 31.8494 48.9144 31.8494 48.9144 31.9017C48.97 31.9017 48.97 31.954 49.0256 31.954C49.0812 31.954 49.1368 32.0063 49.1924 32.0063C49.248 32.0063 49.3035 32.0586 49.3591 32.0586C49.4147 32.0586 49.4703 32.1109 49.4703 32.1109C49.5259 32.1109 49.5815 32.1109 49.6371 32.1109C49.6926 32.1109 49.7482 32.1109 49.8038 32.1109C49.8594 32.1109 49.915 32.1109 49.9706 32.1109C50.0262 32.1109 50.0818 32.1109 50.1373 32.1109C50.1373 32.1109 50.1373 32.1109 50.1929 32.1109C50.2485 32.1109 50.3041 32.0586 50.3597 32.0586C50.4153 32.0586 50.4709 32.0063 50.5264 32.0063C50.5264 32.0063 50.5264 32.0063 50.582 32.0063C50.6376 32.0063 50.6932 31.954 50.7488 31.9017C50.8044 31.9017 50.8044 31.8494 50.86 31.8494C50.9156 31.7972 50.9711 31.7971 50.9711 31.7449C50.9711 31.7449 51.0267 31.7449 51.0267 31.6926C51.0267 31.6926 51.0823 31.6403 51.1379 31.6403C51.1935 31.588 51.1935 31.588 51.2491 31.5357L51.3047 31.4834C51.3602 31.4311 51.3602 31.4311 51.4158 31.3788C51.4158 31.3265 54.1396 27.4564 59.1423 24.1616C65.8127 19.7686 73.1501 18.4612 80.9322 20.3439C80.9878 20.3439 80.9878 20.3439 81.0434 20.3439C81.1546 20.3439 89.9372 22.0174 94.94 29.496H57.975C56.9745 29.496 56.1407 30.2805 56.1407 31.2219C56.1407 32.1632 56.9745 32.9477 57.975 32.9477H97.9973C98.6087 32.9477 99.2202 32.6339 99.5537 32.1632C99.8872 31.6926 100.11 31.1173 99.8872 30.542Z" fill="#1A938A"/>
</svg>
