<svg width="36" height="36" viewBox="0 0 36 36" fill="none" xmlns="http://www.w3.org/2000/svg">
<path fill-rule="evenodd" clip-rule="evenodd" d="M17.5532 0C7.85883 0 0 7.85883 0 17.5532C0 27.2476 7.85883 35.1064 17.5532 35.1064C27.2476 35.1064 35.1064 27.2476 35.1064 17.5532C35.1064 7.85883 27.2476 0 17.5532 0ZM13.6938 8.24797C14.6924 8.20252 15.0115 8.19141 17.554 8.19141H17.5511C20.0943 8.19141 20.4123 8.20252 21.4109 8.24797C22.4075 8.29361 23.0882 8.45139 23.685 8.6829C24.3013 8.92182 24.8221 9.24168 25.3428 9.76243C25.8636 10.2828 26.1834 10.8051 26.4233 11.4208C26.6535 12.0161 26.8114 12.6964 26.8582 13.693C26.9031 14.6916 26.9148 15.0107 26.9148 17.5532C26.9148 20.0957 26.9031 20.414 26.8582 21.4126C26.8114 22.4089 26.6535 23.0893 26.4233 23.6848C26.1834 24.3003 25.8636 24.8226 25.3428 25.343C24.8226 25.8638 24.3011 26.1844 23.6856 26.4235C23.0899 26.655 22.4089 26.8128 21.4122 26.8584C20.4136 26.9039 20.0955 26.915 17.5528 26.915C15.0105 26.915 14.6916 26.9039 13.693 26.8584C12.6966 26.8128 12.0161 26.655 11.4204 26.4235C10.8051 26.1844 10.2828 25.8638 9.76263 25.343C9.24207 24.8226 8.92221 24.3003 8.6829 23.6846C8.45159 23.0893 8.2938 22.4091 8.24797 21.4124C8.20272 20.4138 8.19141 20.0957 8.19141 17.5532C8.19141 15.0107 8.20311 14.6914 8.24777 13.6928C8.29263 12.6966 8.45061 12.0161 8.68271 11.4206C8.9226 10.8051 9.24246 10.2828 9.76321 9.76243C10.2836 9.24188 10.8059 8.92202 11.4216 8.6829C12.0169 8.45139 12.6972 8.29361 13.6938 8.24797Z" fill="#EC9A2B"/>
<path fill-rule="evenodd" clip-rule="evenodd" d="M16.7143 9.87929C16.8774 9.87904 17.0528 9.87912 17.2421 9.8792L17.5541 9.87929C20.0537 9.87929 20.35 9.88827 21.3371 9.93312C22.2498 9.97486 22.7452 10.1274 23.0752 10.2555C23.5121 10.4252 23.8236 10.628 24.1511 10.9557C24.4787 11.2834 24.6816 11.5954 24.8516 12.0323C24.9798 12.3619 25.1325 12.8573 25.174 13.7701C25.2189 14.757 25.2286 15.0534 25.2286 17.5519C25.2286 20.0503 25.2189 20.3468 25.174 21.3337C25.1323 22.2464 24.9798 22.7418 24.8516 23.0714C24.682 23.5083 24.4787 23.8194 24.1511 24.1469C23.8234 24.4745 23.5123 24.6774 23.0752 24.8471C22.7456 24.9758 22.2498 25.1279 21.3371 25.1696C20.3502 25.2145 20.0537 25.2243 17.5541 25.2243C15.0543 25.2243 14.7581 25.2145 13.7712 25.1696C12.8584 25.1275 12.363 24.975 12.0328 24.8469C11.5959 24.6772 11.2839 24.4743 10.9562 24.1467C10.6285 23.819 10.4257 23.5077 10.2556 23.0707C10.1275 22.741 9.97477 22.2456 9.93322 21.3329C9.88837 20.346 9.87939 20.0495 9.87939 17.5495C9.87939 15.0495 9.88837 14.7546 9.93322 13.7678C9.97496 12.855 10.1275 12.3596 10.2556 12.0296C10.4253 11.5927 10.6285 11.2806 10.9562 10.953C11.2839 10.6253 11.5959 10.4225 12.0328 10.2524C12.3628 10.1237 12.8584 9.97155 13.7712 9.92961C14.6348 9.89061 14.9695 9.8789 16.7143 9.87695V9.87929ZM22.5514 11.433C21.9312 11.433 21.428 11.9356 21.428 12.556C21.428 13.1763 21.9312 13.6794 22.5514 13.6794C23.1716 13.6794 23.6748 13.1763 23.6748 12.556C23.6748 11.9358 23.1716 11.4326 22.5514 11.4326V11.433ZM12.7463 17.5528C12.7463 14.8977 14.899 12.7451 17.554 12.7451H17.5538C20.2089 12.7451 22.3609 14.8977 22.3609 17.5528C22.3609 20.2078 20.2091 22.3595 17.554 22.3595C14.899 22.3595 12.7463 20.2078 12.7463 17.5528Z" fill="#EC9A2B"/>
<path fill-rule="evenodd" clip-rule="evenodd" d="M17.5542 14.4326C19.2775 14.4326 20.6748 15.8297 20.6748 17.5532C20.6748 19.2766 19.2775 20.6738 17.5542 20.6738C15.8306 20.6738 14.4336 19.2766 14.4336 17.5532C14.4336 15.8297 15.8306 14.4326 17.5542 14.4326V14.4326Z" fill="#EC9A2B"/>
</svg>
