<svg width="36" height="36" viewBox="0 0 36 36" fill="none" xmlns="http://www.w3.org/2000/svg">
<path fill-rule="evenodd" clip-rule="evenodd" d="M17.6596 0C7.96528 0 0.106445 7.85883 0.106445 17.5532C0.106445 27.2476 7.96528 35.1064 17.6596 35.1064C27.354 35.1064 35.2128 27.2476 35.2128 17.5532C35.2128 7.85883 27.354 0 17.6596 0ZM13.8002 8.24797C14.7988 8.20252 15.1179 8.19141 17.6604 8.19141H17.6575C20.2008 8.19141 20.5187 8.20252 21.5173 8.24797C22.5139 8.29361 23.1946 8.45139 23.7914 8.6829C24.4078 8.92182 24.9285 9.24168 25.4493 9.76243C25.97 10.2828 26.2899 10.8051 26.5298 11.4208C26.7599 12.0161 26.9179 12.6964 26.9647 13.693C27.0096 14.6916 27.0213 15.0107 27.0213 17.5532C27.0213 20.0957 27.0096 20.414 26.9647 21.4126C26.9179 22.4089 26.7599 23.0893 26.5298 23.6848C26.2899 24.3003 25.97 24.8226 25.4493 25.343C24.9291 25.8638 24.4076 26.1844 23.792 26.4235C23.1964 26.655 22.5153 26.8128 21.5187 26.8584C20.5201 26.9039 20.202 26.915 17.6593 26.915C15.1169 26.915 14.7981 26.9039 13.7995 26.8584C12.803 26.8128 12.1225 26.655 11.5269 26.4235C10.9115 26.1844 10.3892 25.8638 9.86907 25.343C9.34852 24.8226 9.02866 24.3003 8.78935 23.6846C8.55803 23.0893 8.40025 22.4091 8.35441 21.4124C8.30916 20.4138 8.29785 20.0957 8.29785 17.5532C8.29785 15.0107 8.30955 14.6914 8.35422 13.6928C8.39908 12.6966 8.55706 12.0161 8.78915 11.4206C9.02905 10.8051 9.34891 10.2828 9.86966 9.76243C10.39 9.24188 10.9123 8.92202 11.5281 8.6829C12.1233 8.45139 12.8036 8.29361 13.8002 8.24797Z" fill="#EC9A2B"/>
<path fill-rule="evenodd" clip-rule="evenodd" d="M16.8207 9.87929C16.9838 9.87904 17.1592 9.87912 17.3485 9.8792L17.6606 9.87929C20.1602 9.87929 20.4564 9.88827 21.4435 9.93312C22.3563 9.97486 22.8517 10.1274 23.1817 10.2555C23.6186 10.4252 23.93 10.628 24.2575 10.9557C24.5852 11.2834 24.788 11.5954 24.9581 12.0323C25.0862 12.3619 25.2389 12.8573 25.2805 13.7701C25.3253 14.757 25.3351 15.0534 25.3351 17.5519C25.3351 20.0503 25.3253 20.3468 25.2805 21.3337C25.2387 22.2464 25.0862 22.7418 24.9581 23.0714C24.7884 23.5083 24.5852 23.8194 24.2575 24.1469C23.9299 24.4745 23.6188 24.6774 23.1817 24.8471C22.8521 24.9758 22.3563 25.1279 21.4435 25.1696C20.4566 25.2145 20.1602 25.2243 17.6606 25.2243C15.1608 25.2243 14.8645 25.2145 13.8776 25.1696C12.9648 25.1275 12.4694 24.975 12.1392 24.8469C11.7024 24.6772 11.3903 24.4743 11.0626 24.1467C10.735 23.819 10.5321 23.5077 10.3621 23.0707C10.2339 22.741 10.0812 22.2456 10.0397 21.3329C9.99481 20.346 9.98584 20.0495 9.98584 17.5495C9.98584 15.0495 9.99481 14.7546 10.0397 13.7678C10.0814 12.855 10.2339 12.3596 10.3621 12.0296C10.5317 11.5927 10.735 11.2806 11.0626 10.953C11.3903 10.6253 11.7024 10.4225 12.1392 10.2524C12.4693 10.1237 12.9648 9.97155 13.8776 9.92961C14.7412 9.89061 15.0759 9.8789 16.8207 9.87695V9.87929ZM22.6578 11.433C22.0376 11.433 21.5344 11.9356 21.5344 12.556C21.5344 13.1763 22.0376 13.6794 22.6578 13.6794C23.2781 13.6794 23.7813 13.1763 23.7813 12.556C23.7813 11.9358 23.2781 11.4326 22.6578 11.4326V11.433ZM12.8528 17.5528C12.8528 14.8977 15.0054 12.7451 17.6605 12.7451H17.6603C20.3153 12.7451 22.4674 14.8977 22.4674 17.5528C22.4674 20.2078 20.3155 22.3595 17.6605 22.3595C15.0054 22.3595 12.8528 20.2078 12.8528 17.5528Z" fill="#EC9A2B"/>
<path fill-rule="evenodd" clip-rule="evenodd" d="M17.6606 14.4326C19.384 14.4326 20.7812 15.8297 20.7812 17.5532C20.7812 19.2766 19.384 20.6738 17.6606 20.6738C15.9371 20.6738 14.54 19.2766 14.54 17.5532C14.54 15.8297 15.9371 14.4326 17.6606 14.4326V14.4326Z" fill="#EC9A2B"/>
</svg>
