<svg width="36" height="36" viewBox="0 0 36 36" fill="none" xmlns="http://www.w3.org/2000/svg">
<path fill-rule="evenodd" clip-rule="evenodd" d="M17.5532 0C7.85883 0 0 7.85883 0 17.5532C0 27.2476 7.85883 35.1064 17.5532 35.1064C27.2476 35.1064 35.1064 27.2476 35.1064 17.5532C35.1064 7.85883 27.2476 0 17.5532 0ZM17.0643 14.8742L17.0275 14.2668C16.917 12.6926 17.887 11.2547 19.4217 10.6969C19.9865 10.4986 20.9442 10.4738 21.5704 10.6473C21.8159 10.7217 22.2825 10.9696 22.614 11.1927L23.2157 11.6018L23.8787 11.391C24.247 11.2795 24.7381 11.0935 24.9591 10.9696C25.1679 10.858 25.352 10.796 25.352 10.8332C25.352 11.044 24.8977 11.7629 24.5171 12.1596C24.0014 12.7174 24.1488 12.7669 25.1924 12.3951C25.8186 12.1843 25.8309 12.1843 25.7081 12.4199C25.6344 12.5438 25.2538 12.9777 24.8486 13.3743C24.1611 14.0561 24.1242 14.1304 24.1242 14.7006C24.1242 15.5807 23.7068 17.4152 23.2893 18.4193C22.5158 20.3034 20.8583 22.2495 19.2007 23.2287C16.8679 24.6046 13.7615 24.9517 11.1463 24.146C10.2745 23.8733 8.77661 23.1792 8.77661 23.0552C8.77661 23.018 9.2309 22.9684 9.78341 22.956C10.9376 22.9313 12.0917 22.609 13.0739 22.0388L13.737 21.6421L12.9757 21.3818C11.8952 21.0099 10.9253 20.1547 10.6797 19.3489C10.606 19.0886 10.6306 19.0762 11.3182 19.0762L12.0303 19.0639L11.4287 18.7788C10.7165 18.4193 10.0658 17.8119 9.74658 17.1921C9.5133 16.7459 9.21862 15.6179 9.30457 15.5311C9.32913 15.4939 9.58697 15.5683 9.88164 15.6675C10.7288 15.9774 10.8393 15.903 10.3482 15.3824C9.42735 14.4403 9.14495 13.0396 9.58697 11.7133L9.79569 11.1183L10.606 11.924C12.2636 13.5478 14.2158 14.5147 16.4504 14.7998L17.0643 14.8742Z" fill="#EC9A2B"/>
</svg>
