<svg width="36" height="36" viewBox="0 0 36 36" fill="none" xmlns="http://www.w3.org/2000/svg">
<path fill-rule="evenodd" clip-rule="evenodd" d="M17.766 0C8.0716 0 0.212769 7.85883 0.212769 17.5532C0.212769 27.2476 8.0716 35.1064 17.766 35.1064C27.4603 35.1064 35.3192 27.2476 35.3192 17.5532C35.3192 7.85883 27.4603 0 17.766 0ZM17.2771 14.8742L17.2403 14.2668C17.1298 12.6926 18.0997 11.2547 19.6345 10.6969C20.1993 10.4986 21.157 10.4738 21.7832 10.6473C22.0287 10.7217 22.4953 10.9696 22.8268 11.1927L23.4284 11.6018L24.0914 11.391C24.4598 11.2795 24.9509 11.0935 25.1719 10.9696C25.3806 10.858 25.5648 10.796 25.5648 10.8332C25.5648 11.044 25.1105 11.7629 24.7299 12.1596C24.2142 12.7174 24.3616 12.7669 25.4052 12.3951C26.0314 12.1843 26.0437 12.1843 25.9209 12.4199C25.8472 12.5438 25.4666 12.9777 25.0614 13.3743C24.3738 14.0561 24.337 14.1304 24.337 14.7006C24.337 15.5807 23.9195 17.4152 23.5021 18.4193C22.7286 20.3034 21.071 22.2495 19.4135 23.2287C17.0806 24.6046 13.9743 24.9517 11.3591 24.146C10.4873 23.8733 8.98938 23.1792 8.98938 23.0552C8.98938 23.018 9.44367 22.9684 9.99618 22.956C11.1503 22.9313 12.3045 22.609 13.2867 22.0388L13.9497 21.6421L13.1885 21.3818C12.108 21.0099 11.138 20.1547 10.8925 19.3489C10.8188 19.0886 10.8434 19.0762 11.5309 19.0762L12.2431 19.0639L11.6414 18.7788C10.9293 18.4193 10.2786 17.8119 9.95935 17.1921C9.72607 16.7459 9.43139 15.6179 9.51734 15.5311C9.54189 15.4939 9.79973 15.5683 10.0944 15.6675C10.9416 15.9774 11.0521 15.903 10.561 15.3824C9.64012 14.4403 9.35772 13.0396 9.79973 11.7133L10.0085 11.1183L10.8188 11.924C12.4764 13.5478 14.4286 14.5147 16.6632 14.7998L17.2771 14.8742Z" fill="#EC9A2B"/>
</svg>
