<svg width="36" height="36" viewBox="0 0 36 36" fill="none" xmlns="http://www.w3.org/2000/svg">
<path fill-rule="evenodd" clip-rule="evenodd" d="M17.5532 0C7.85883 0 0 7.85883 0 17.5532C0 27.2476 7.85883 35.1064 17.5532 35.1064C27.2476 35.1064 35.1064 27.2476 35.1064 17.5532C35.1064 7.85883 27.2476 0 17.5532 0ZM8.42676 14.5381H12.4047V26.4901H8.42676V14.5381ZM12.6666 10.8418C12.6407 9.66993 11.8027 8.77734 10.4419 8.77734C9.08107 8.77734 8.19141 9.66993 8.19141 10.8418C8.19141 11.9894 9.05477 12.9077 10.3903 12.9077H10.4157C11.8027 12.9077 12.6666 11.9894 12.6666 10.8418ZM22.1704 14.2578C24.7881 14.2578 26.7505 15.9664 26.7505 19.6376L26.7504 26.4905H22.7726V20.0962C22.7726 18.49 22.197 17.3941 20.7569 17.3941C19.658 17.3941 19.0034 18.1329 18.7159 18.8465C18.6107 19.1023 18.5849 19.4586 18.5849 19.8158V26.4908H14.6064C14.6064 26.4908 14.6589 15.6603 14.6064 14.5388H18.5849V16.2317C19.1128 15.4179 20.0584 14.2578 22.1704 14.2578Z" fill="#EC9A2B"/>
</svg>
