<svg width="36" height="36" viewBox="0 0 36 36" fill="none" xmlns="http://www.w3.org/2000/svg">
<path fill-rule="evenodd" clip-rule="evenodd" d="M17.8723 0C8.17792 0 0.319092 7.85883 0.319092 17.5532C0.319092 27.2476 8.17792 35.1064 17.8723 35.1064C27.5666 35.1064 35.4255 27.2476 35.4255 17.5532C35.4255 7.85883 27.5666 0 17.8723 0ZM8.74585 14.5381H12.7238V26.4901H8.74585V14.5381ZM12.9857 10.8418C12.9598 9.66993 12.1218 8.77734 10.761 8.77734C9.40016 8.77734 8.5105 9.66993 8.5105 10.8418C8.5105 11.9894 9.37386 12.9077 10.7093 12.9077H10.7348C12.1218 12.9077 12.9857 11.9894 12.9857 10.8418ZM22.4895 14.2578C25.1072 14.2578 27.0696 15.9664 27.0696 19.6376L27.0695 26.4905H23.0917V20.0962C23.0917 18.49 22.5161 17.3941 21.076 17.3941C19.977 17.3941 19.3224 18.1329 19.0349 18.8465C18.9298 19.1023 18.904 19.4586 18.904 19.8158V26.4908H14.9255C14.9255 26.4908 14.978 15.6603 14.9255 14.5388H18.904V16.2317C19.4319 15.4179 20.3775 14.2578 22.4895 14.2578Z" fill="#EC9A2B"/>
</svg>
