<svg width="201" height="83" viewBox="0 0 201 83" fill="none" xmlns="http://www.w3.org/2000/svg">
<g filter="url(#filter0_ddd_819_8385)">
<rect x="16" y="15" width="166" height="46" rx="5.76389" fill="white"/>
<path d="M81.7667 44.559H76.297L74.9835 48.4189H72.6667L77.8476 34.1382H80.2546L85.4354 48.4189H83.0792L81.7667 44.559ZM76.8635 42.7778H81.1992L79.0618 36.5135H79.002L76.8635 42.7778Z" fill="black"/>
<path d="M96.624 43.2133C96.624 46.4488 94.8839 48.5276 92.258 48.5276C91.5928 48.5622 90.9312 48.4097 90.349 48.0875C89.7669 47.7654 89.2876 47.2866 88.9662 46.706H88.9165V51.863H86.769V38.0069H88.8477V39.7386H88.8872C89.2234 39.1608 89.7107 38.6844 90.2973 38.3603C90.8839 38.0362 91.5478 37.8764 92.2184 37.8979C94.8738 37.8979 96.624 39.9868 96.624 43.2133ZM94.4167 43.2133C94.4167 41.1054 93.3221 39.7195 91.652 39.7195C90.0112 39.7195 88.9075 41.1345 88.9075 43.2133C88.9075 45.3112 90.0112 46.7161 91.652 46.7161C93.3221 46.7161 94.4167 45.3404 94.4167 43.2133H94.4167Z" fill="black"/>
<path d="M108.14 43.2133C108.14 46.4488 106.399 48.5276 103.773 48.5276C103.108 48.5622 102.447 48.4097 101.864 48.0875C101.282 47.7654 100.803 47.2866 100.482 46.706H100.432V51.863H98.2844V38.0069H100.363V39.7386H100.403C100.739 39.1608 101.226 38.6844 101.813 38.3603C102.399 38.0362 103.063 37.8764 103.734 37.8979C106.389 37.8979 108.14 39.9868 108.14 43.2133ZM105.932 43.2133C105.932 41.1054 104.837 39.7195 103.167 39.7195C101.527 39.7195 100.423 41.1345 100.423 43.2133C100.423 45.3112 101.527 46.7161 103.167 46.7161C104.837 46.7161 105.932 45.3404 105.932 43.2133Z" fill="black"/>
<path d="M115.749 44.4393C115.908 45.8554 117.291 46.7853 119.18 46.7853C120.99 46.7853 122.292 45.8554 122.292 44.5785C122.292 43.47 121.507 42.8063 119.647 42.3515L117.787 41.9056C115.152 41.2722 113.929 40.0459 113.929 38.0558C113.929 35.5918 116.087 33.8994 119.149 33.8994C122.183 33.8994 124.261 35.5918 124.331 38.0558H122.164C122.034 36.6307 120.85 35.7704 119.12 35.7704C117.39 35.7704 116.206 36.6408 116.206 37.9076C116.206 38.9172 116.962 39.5113 118.812 39.9661L120.393 40.3524C123.337 41.0453 124.559 42.2223 124.559 44.3111C124.559 46.9829 122.422 48.6562 119.021 48.6562C115.838 48.6562 113.69 47.0222 113.551 44.4392L115.749 44.4393Z" fill="black"/>
<path d="M129.195 35.5432V38.0072H131.185V39.6996H129.195V45.4395C129.195 46.3312 129.594 46.7467 130.468 46.7467C130.705 46.7426 130.94 46.7261 131.175 46.6973V48.3796C130.782 48.4527 130.382 48.4858 129.982 48.4784C127.864 48.4784 127.038 47.6867 127.038 45.6674V39.6996H125.517V38.0072H127.038V35.5432H129.195Z" fill="black"/>
<path d="M132.336 43.2136C132.336 39.9377 134.275 37.8792 137.298 37.8792C140.332 37.8792 142.261 39.9377 142.261 43.2136C142.261 46.4985 140.342 48.5481 137.298 48.5481C134.256 48.5481 132.336 46.4985 132.336 43.2136ZM140.073 43.2136C140.073 40.9664 139.038 39.6401 137.298 39.6401C135.558 39.6401 134.523 40.9765 134.523 43.2136C134.523 45.4698 135.558 46.786 137.298 46.786C139.038 46.786 140.073 45.4698 140.073 43.2136H140.073Z" fill="black"/>
<path d="M144.032 38.0068H146.08V39.7789H146.13C146.268 39.2254 146.594 38.7363 147.053 38.3937C147.511 38.0512 148.074 37.876 148.646 37.8978C148.894 37.8969 149.141 37.9237 149.382 37.9775V39.9766C149.07 39.8816 148.744 39.8379 148.417 39.8474C148.105 39.8348 147.794 39.8896 147.506 40.0079C147.217 40.1262 146.957 40.3053 146.745 40.5329C146.532 40.7605 146.371 41.0311 146.274 41.3263C146.176 41.6215 146.144 41.9341 146.179 42.2429V48.4185H144.032L144.032 38.0068Z" fill="black"/>
<path d="M159.283 45.3609C158.994 47.251 157.144 48.5481 154.778 48.5481C151.735 48.5481 149.845 46.5187 149.845 43.263C149.845 39.9972 151.745 37.8792 154.688 37.8792C157.582 37.8792 159.402 39.858 159.402 43.0148V43.7471H152.013V43.8762C151.979 44.2594 152.027 44.6454 152.155 45.0086C152.282 45.3718 152.485 45.7039 152.752 45.9829C153.018 46.2618 153.341 46.4812 153.699 46.6264C154.057 46.7717 154.441 46.8395 154.828 46.8253C155.335 46.8727 155.844 46.7557 156.28 46.4918C156.715 46.228 157.053 45.8313 157.244 45.3609L159.283 45.3609ZM152.023 42.2534H157.254C157.273 41.9089 157.221 41.5641 157.1 41.2407C156.979 40.9173 156.792 40.6223 156.551 40.3742C156.31 40.126 156.02 39.9302 155.699 39.7988C155.379 39.6675 155.034 39.6035 154.688 39.6109C154.338 39.6088 153.991 39.6757 153.668 39.8076C153.344 39.9396 153.05 40.134 152.802 40.3797C152.555 40.6254 152.358 40.9174 152.225 41.239C152.091 41.5606 152.023 41.9054 152.023 42.2534V42.2534Z" fill="black"/>
<path d="M76.595 23.3874C77.0452 23.3553 77.497 23.423 77.9178 23.5856C78.3385 23.7483 78.7178 24.0018 79.0281 24.328C79.3385 24.6541 79.5723 25.0448 79.7125 25.4718C79.8528 25.8987 79.8962 26.3513 79.8394 26.797C79.8394 28.9892 78.6489 30.2493 76.595 30.2493H74.1045V23.3874H76.595ZM75.1754 29.2789H76.4754C76.7971 29.298 77.1191 29.2455 77.4178 29.1252C77.7166 29.0049 77.9846 28.8198 78.2024 28.5834C78.4203 28.347 78.5824 28.0653 78.677 27.7586C78.7715 27.452 78.7963 27.1283 78.7493 26.811C78.7928 26.4949 78.7656 26.1732 78.6696 25.8688C78.5735 25.5645 78.411 25.285 78.1937 25.0505C77.9764 24.816 77.7096 24.6322 77.4126 24.5123C77.1155 24.3924 76.7955 24.3394 76.4754 24.3571H75.1754V29.2789Z" fill="black"/>
<path d="M81.0497 27.6583C81.017 27.318 81.0561 26.9746 81.1645 26.6502C81.273 26.3259 81.4483 26.0276 81.6794 25.7746C81.9104 25.5216 82.1921 25.3195 82.5062 25.1812C82.8203 25.0429 83.16 24.9714 83.5036 24.9714C83.8471 24.9714 84.1868 25.0429 84.5009 25.1812C84.8151 25.3195 85.0967 25.5216 85.3277 25.7746C85.5588 26.0276 85.7341 26.3259 85.8426 26.6502C85.951 26.9746 85.9901 27.318 85.9574 27.6583C85.9908 27.9989 85.9521 28.3428 85.844 28.6677C85.7358 28.9926 85.5605 29.2914 85.3294 29.5448C85.0983 29.7983 84.8165 30.0009 84.502 30.1395C84.1876 30.2781 83.8475 30.3497 83.5036 30.3497C83.1596 30.3497 82.8195 30.2781 82.5051 30.1395C82.1906 30.0009 81.9088 29.7983 81.6777 29.5448C81.4466 29.2914 81.2713 28.9926 81.1632 28.6677C81.055 28.3428 81.0164 27.9989 81.0497 27.6583ZM84.9012 27.6583C84.9012 26.5358 84.3945 25.8794 83.5052 25.8794C82.6126 25.8794 82.1105 26.5358 82.1105 27.6583C82.1105 28.7898 82.6127 29.4411 83.5052 29.4411C84.3945 29.4411 84.9012 28.7852 84.9012 27.6583H84.9012Z" fill="black"/>
<path d="M92.4805 30.2501H91.4153L90.3398 26.4363H90.2586L89.1877 30.2501H88.1325L86.6982 25.0718H87.7398L88.6719 29.0232H88.7487L89.8185 25.0718H90.8036L91.8734 29.0232H91.9547L92.8823 25.0718H93.9092L92.4805 30.2501Z" fill="black"/>
<path d="M95.1157 25.0709H96.1043V25.8935H96.181C96.3112 25.598 96.5307 25.3504 96.8091 25.185C97.0874 25.0196 97.4107 24.9448 97.7338 24.9709C97.987 24.952 98.2412 24.99 98.4776 25.0821C98.714 25.1742 98.9266 25.3181 99.0996 25.503C99.2725 25.688 99.4015 25.9093 99.4768 26.1506C99.5522 26.3919 99.572 26.647 99.5348 26.8969V30.2492H98.5079V27.1536C98.5079 26.3214 98.1446 25.9075 97.3851 25.9075C97.2132 25.8996 97.0416 25.9287 96.8821 25.9929C96.7225 26.0571 96.5788 26.1549 96.4608 26.2795C96.3428 26.4042 96.2533 26.5527 96.1984 26.715C96.1434 26.8773 96.1244 27.0495 96.1426 27.2198V30.2492H95.1157L95.1157 25.0709Z" fill="black"/>
<path d="M101.171 23.0498H102.198V30.2497H101.171V23.0498Z" fill="black"/>
<path d="M103.626 27.6584C103.593 27.318 103.632 26.9747 103.741 26.6503C103.849 26.3259 104.024 26.0276 104.255 25.7746C104.487 25.5217 104.768 25.3195 105.082 25.1812C105.396 25.0429 105.736 24.9714 106.08 24.9714C106.423 24.9714 106.763 25.0429 107.077 25.1812C107.391 25.3195 107.673 25.5217 107.904 25.7746C108.135 26.0276 108.31 26.3259 108.419 26.6503C108.527 26.9747 108.567 27.318 108.534 27.6584C108.567 27.999 108.528 28.3429 108.42 28.6678C108.312 28.9927 108.137 29.2915 107.906 29.5449C107.675 29.7984 107.393 30.0009 107.078 30.1396C106.764 30.2782 106.424 30.3498 106.08 30.3498C105.736 30.3498 105.396 30.2782 105.081 30.1396C104.767 30.0009 104.485 29.7984 104.254 29.5449C104.023 29.2915 103.847 28.9927 103.739 28.6678C103.631 28.3429 103.592 27.999 103.626 27.6584ZM107.477 27.6584C107.477 26.5359 106.97 25.8795 106.081 25.8795C105.189 25.8795 104.686 26.5359 104.686 27.6584C104.686 28.7899 105.189 29.4412 106.081 29.4412C106.97 29.4412 107.477 28.7853 107.477 27.6584H107.477Z" fill="black"/>
<path d="M109.614 28.7853C109.614 27.8532 110.312 27.3158 111.55 27.2394L112.959 27.1586V26.7116C112.959 26.1647 112.596 25.8558 111.894 25.8558C111.321 25.8558 110.923 26.0653 110.809 26.4314H109.815C109.92 25.5419 110.761 24.9714 111.941 24.9714C113.246 24.9714 113.981 25.6177 113.981 26.7116V30.2498H112.993V29.522H112.912C112.747 29.7831 112.515 29.9959 112.241 30.1387C111.966 30.2816 111.658 30.3493 111.349 30.3351C111.13 30.3577 110.91 30.3345 110.701 30.267C110.492 30.1995 110.299 30.0892 110.136 29.9432C109.973 29.7971 109.842 29.6187 109.752 29.4192C109.662 29.2198 109.615 29.0039 109.614 28.7853ZM112.959 28.3428V27.9099L111.688 27.9907C110.972 28.0385 110.647 28.281 110.647 28.7376C110.647 29.2036 111.053 29.4748 111.612 29.4748C111.775 29.4913 111.941 29.4749 112.098 29.4265C112.255 29.3781 112.401 29.2987 112.527 29.1931C112.652 29.0875 112.755 28.9578 112.83 28.8117C112.904 28.6656 112.948 28.5062 112.959 28.3428Z" fill="black"/>
<path d="M115.332 27.6582C115.332 26.022 116.177 24.9854 117.492 24.9854C117.817 24.9705 118.14 25.048 118.422 25.2089C118.705 25.3698 118.936 25.6073 119.088 25.8939H119.164V23.0498H120.191V30.2497H119.207V29.4315H119.126C118.962 29.7161 118.724 29.9508 118.436 30.11C118.148 30.2693 117.821 30.3471 117.492 30.335C116.168 30.3351 115.332 29.2985 115.332 27.6582ZM116.393 27.6582C116.393 28.7566 116.913 29.4175 117.783 29.4175C118.649 29.4175 119.184 28.7471 119.184 27.6627C119.184 26.5835 118.643 25.9035 117.783 25.9035C116.919 25.9035 116.393 26.5689 116.393 27.6582H116.393Z" fill="black"/>
<path d="M124.44 27.6583C124.407 27.318 124.446 26.9746 124.555 26.6502C124.663 26.3259 124.838 26.0276 125.07 25.7746C125.301 25.5216 125.582 25.3195 125.896 25.1812C126.21 25.0429 126.55 24.9714 126.894 24.9714C127.237 24.9714 127.577 25.0429 127.891 25.1812C128.205 25.3195 128.487 25.5216 128.718 25.7746C128.949 26.0276 129.124 26.3259 129.233 26.6502C129.341 26.9746 129.38 27.318 129.348 27.6583C129.381 27.9989 129.342 28.3428 129.234 28.6677C129.126 28.9926 128.951 29.2914 128.72 29.5448C128.488 29.7983 128.207 30.0009 127.892 30.1395C127.578 30.2781 127.238 30.3497 126.894 30.3497C126.55 30.3497 126.21 30.2781 125.895 30.1395C125.581 30.0009 125.299 29.7983 125.068 29.5448C124.837 29.2914 124.661 28.9926 124.553 28.6677C124.445 28.3428 124.406 27.9989 124.44 27.6583ZM128.291 27.6583C128.291 26.5358 127.785 25.8794 126.895 25.8794C126.003 25.8794 125.501 26.5358 125.501 27.6583C125.501 28.7898 126.003 29.4411 126.895 29.4411C127.785 29.4411 128.291 28.7852 128.291 27.6583Z" fill="black"/>
<path d="M130.725 25.0709H131.713V25.8935H131.79C131.92 25.598 132.14 25.3504 132.418 25.185C132.696 25.0196 133.02 24.9448 133.343 24.9709C133.596 24.952 133.85 24.99 134.086 25.0821C134.323 25.1742 134.535 25.3181 134.708 25.503C134.881 25.688 135.01 25.9093 135.086 26.1506C135.161 26.3919 135.181 26.647 135.144 26.8969V30.2492H134.117V27.1536C134.117 26.3214 133.753 25.9075 132.994 25.9075C132.822 25.8996 132.65 25.9287 132.491 25.9929C132.331 26.0571 132.188 26.1549 132.07 26.2795C131.952 26.4042 131.862 26.5527 131.807 26.715C131.752 26.8773 131.733 27.0495 131.752 27.2198V30.2492H130.725V25.0709Z" fill="black"/>
<path d="M140.946 23.7815V25.0943H142.074V25.9552H140.946V28.6179C140.946 29.1603 141.171 29.3979 141.682 29.3979C141.813 29.3974 141.944 29.3896 142.074 29.3743V30.2255C141.889 30.2584 141.702 30.2758 141.515 30.2778C140.373 30.2778 139.918 29.8779 139.918 28.8796V25.9551H139.092V25.0943H139.918V23.7815H140.946Z" fill="black"/>
<path d="M143.477 23.0498H144.495V25.9035H144.576C144.713 25.6053 144.938 25.3562 145.222 25.1902C145.506 25.0242 145.835 24.9493 146.163 24.9758C146.415 24.9622 146.666 25.004 146.9 25.0984C147.134 25.1927 147.344 25.3373 147.515 25.5217C147.686 25.706 147.814 25.9258 147.89 26.1651C147.966 26.4045 147.988 26.6576 147.955 26.9064V30.2497H146.927V27.1585C146.927 26.3313 146.54 25.9124 145.814 25.9124C145.638 25.898 145.46 25.9222 145.294 25.9832C145.128 26.0442 144.977 26.1406 144.852 26.2657C144.728 26.3907 144.632 26.5414 144.572 26.7071C144.511 26.8729 144.488 27.0497 144.504 27.2253V30.2496H143.477L143.477 23.0498Z" fill="black"/>
<path d="M153.942 28.8516C153.802 29.3249 153.5 29.7343 153.088 30.0082C152.676 30.282 152.18 30.403 151.687 30.3498C151.344 30.3588 151.004 30.2934 150.689 30.1583C150.374 30.0231 150.092 29.8214 149.864 29.5671C149.635 29.3128 149.464 29.012 149.364 28.6856C149.264 28.3592 149.237 28.015 149.283 27.6769C149.238 27.3378 149.266 26.9929 149.366 26.6655C149.466 26.3382 149.635 26.036 149.863 25.7794C150.09 25.5229 150.37 25.318 150.684 25.1786C150.998 25.0392 151.339 24.9686 151.683 24.9715C153.13 24.9715 154.004 25.9559 154.004 27.582V27.9386H150.33V27.9959C150.313 28.1859 150.337 28.3772 150.4 28.5575C150.463 28.7377 150.562 28.903 150.693 29.0427C150.823 29.1823 150.982 29.2933 151.158 29.3686C151.334 29.4438 151.524 29.4815 151.715 29.4794C151.961 29.5087 152.21 29.4647 152.43 29.3529C152.651 29.2411 152.833 29.0666 152.953 28.8516L153.942 28.8516ZM150.329 27.1828H152.958C152.971 27.009 152.947 26.8344 152.888 26.6703C152.829 26.5062 152.736 26.3561 152.616 26.2298C152.495 26.1035 152.349 26.0036 152.188 25.9367C152.026 25.8698 151.852 25.8373 151.677 25.8413C151.499 25.8391 151.323 25.8723 151.158 25.9389C150.994 26.0056 150.845 26.1043 150.719 26.2293C150.593 26.3543 150.494 26.5031 150.427 26.6669C150.36 26.8306 150.327 27.006 150.33 27.1828H150.329Z" fill="black"/>
<path d="M57.303 38.3398C57.317 37.2378 57.6062 36.1573 58.1437 35.1989C58.6812 34.2404 59.4495 33.4352 60.3771 32.858C59.7878 32.0062 59.0104 31.3052 58.1066 30.8107C57.2028 30.3162 56.1976 30.0418 55.1707 30.0093C52.9801 29.7766 50.8565 31.3359 49.7402 31.3359C48.6023 31.3359 46.8836 30.0324 45.0329 30.0709C43.8358 30.1101 42.6691 30.4624 41.6466 31.0935C40.624 31.7247 39.7804 32.6132 39.198 33.6724C36.6752 38.0932 38.557 44.5903 40.9737 48.1637C42.1828 49.9135 43.5959 51.8681 45.445 51.7988C47.2544 51.7228 47.9302 50.6311 50.1143 50.6311C52.2781 50.6311 52.9122 51.7988 54.7987 51.7547C56.7403 51.7228 57.9636 49.9972 59.1303 48.2308C59.9991 46.984 60.6676 45.606 61.1111 44.1479C59.9831 43.665 59.0205 42.8568 58.3433 41.8239C57.6661 40.7911 57.3043 39.5793 57.303 38.3398Z" fill="black"/>
<path d="M53.7395 27.6591C54.7981 26.3729 55.3197 24.7197 55.1934 23.0505C53.576 23.2225 52.0821 24.0048 51.0091 25.2417C50.4845 25.8459 50.0828 26.5488 49.8268 27.3103C49.5708 28.0718 49.4655 28.8769 49.5172 29.6796C50.3261 29.688 51.1264 29.5105 51.8578 29.1606C52.5892 28.8106 53.2326 28.2972 53.7395 27.6591Z" fill="black"/>
</g>
<defs>
<filter id="filter0_ddd_819_8385" x="-2.44444" y="0.0138886" width="202.889" height="82.8889" filterUnits="userSpaceOnUse" color-interpolation-filters="sRGB">
<feFlood flood-opacity="0" result="BackgroundImageFix"/>
<feColorMatrix in="SourceAlpha" type="matrix" values="0 0 0 0 0 0 0 0 0 0 0 0 0 0 0 0 0 0 127 0" result="hardAlpha"/>
<feMorphology radius="3.45833" operator="erode" in="SourceAlpha" result="effect1_dropShadow_819_8385"/>
<feOffset dy="5.76389"/>
<feGaussianBlur stdDeviation="2.88194"/>
<feColorMatrix type="matrix" values="0 0 0 0 0.364706 0 0 0 0 0.447059 0 0 0 0 0.54902 0 0 0 0.16 0"/>
<feBlend mode="normal" in2="BackgroundImageFix" result="effect1_dropShadow_819_8385"/>
<feColorMatrix in="SourceAlpha" type="matrix" values="0 0 0 0 0 0 0 0 0 0 0 0 0 0 0 0 0 0 127 0" result="hardAlpha"/>
<feMorphology radius="2.30556" operator="dilate" in="SourceAlpha" result="effect2_dropShadow_819_8385"/>
<feOffset dy="3.45833"/>
<feGaussianBlur stdDeviation="8.06944"/>
<feColorMatrix type="matrix" values="0 0 0 0 0.364706 0 0 0 0 0.447059 0 0 0 0 0.54902 0 0 0 0.08 0"/>
<feBlend mode="normal" in2="effect1_dropShadow_819_8385" result="effect2_dropShadow_819_8385"/>
<feColorMatrix in="SourceAlpha" type="matrix" values="0 0 0 0 0 0 0 0 0 0 0 0 0 0 0 0 0 0 127 0" result="hardAlpha"/>
<feMorphology radius="1.15278" operator="dilate" in="SourceAlpha" result="effect3_dropShadow_819_8385"/>
<feOffset dy="9.22222"/>
<feGaussianBlur stdDeviation="5.76389"/>
<feColorMatrix type="matrix" values="0 0 0 0 0.364706 0 0 0 0 0.447059 0 0 0 0 0.54902 0 0 0 0.1 0"/>
<feBlend mode="normal" in2="effect2_dropShadow_819_8385" result="effect3_dropShadow_819_8385"/>
<feBlend mode="normal" in="SourceGraphic" in2="effect3_dropShadow_819_8385" result="shape"/>
</filter>
</defs>
</svg>
