<svg width="12" height="12" viewBox="0 0 12 12" fill="none" xmlns="http://www.w3.org/2000/svg">
<path fill-rule="evenodd" clip-rule="evenodd" d="M9.29293 4.00004C9.48819 3.80478 9.80478 3.80478 10 4.00004C10.1953 4.1953 10.1953 4.51188 10 4.70714L6.00004 8.70715L2.00004 4.70714C1.80478 4.51188 1.80478 4.1953 2.00004 4.00004C2.1953 3.80478 2.51188 3.80478 2.70714 4.00004L6.00004 7.29293L9.29293 4.00004Z" fill="#1A938A"/>
<mask id="mask0_819_6294" style="mask-type:luminance" maskUnits="userSpaceOnUse" x="1" y="3" width="10" height="6">
<path fill-rule="evenodd" clip-rule="evenodd" d="M9.29293 4.00004C9.48819 3.80478 9.80478 3.80478 10 4.00004C10.1953 4.1953 10.1953 4.51188 10 4.70714L6.00004 8.70715L2.00004 4.70714C1.80478 4.51188 1.80478 4.1953 2.00004 4.00004C2.1953 3.80478 2.51188 3.80478 2.70714 4.00004L6.00004 7.29293L9.29293 4.00004Z" fill="white"/>
</mask>
<g mask="url(#mask0_819_6294)">
</g>
</svg>
