<svg width="24" height="24" viewBox="0 0 24 24" fill="none" xmlns="http://www.w3.org/2000/svg">
<path d="M5.62553 21.2001H2.37408C1.50977 21.2001 0.799805 20.4095 0.799805 19.4357V9.35309C0.799805 8.39066 1.50977 7.6001 2.37408 7.6001H5.62553C6.48984 7.6001 7.1998 8.39066 7.1998 9.35309V19.4357C7.1998 20.4095 6.50013 21.2001 5.62553 21.2001ZM2.37408 9.20414C2.30206 9.20414 2.24032 9.27289 2.24032 9.35309V19.4357C2.24032 19.5159 2.30206 19.5846 2.37408 19.5846H5.62553C5.69755 19.5846 5.75929 19.5159 5.75929 19.4357V9.35309C5.75929 9.27289 5.69755 9.20414 5.62553 9.20414H2.37408Z" fill="#1A938A"/>
<path d="M13.5272 21.1997H10.0726C9.15424 21.1997 8.3999 20.4451 8.3999 19.5264V6.87298C8.3999 5.95432 9.15424 5.19971 10.0726 5.19971H13.5272C14.4456 5.19971 15.1999 5.95432 15.1999 6.87298V19.5155C15.1999 20.4451 14.4456 21.1997 13.5272 21.1997ZM10.0726 6.71987C9.99604 6.71987 9.93045 6.78549 9.93045 6.86204V19.5155C9.93045 19.5921 9.99604 19.6577 10.0726 19.6577H13.5272C13.6038 19.6577 13.6694 19.5921 13.6694 19.5155V6.87298C13.6694 6.79643 13.6038 6.73081 13.5272 6.73081H10.0726V6.71987Z" fill="#1A938A"/>
<path d="M22.1094 21.1999H17.8901C17.2904 21.1999 16.7998 20.6818 16.7998 20.0486V3.55116C16.7998 2.91797 17.2904 2.3999 17.8901 2.3999H22.1094C22.709 2.3999 23.1996 2.91797 23.1996 3.55116V20.0371C23.2105 20.6818 22.7199 21.1999 22.1094 21.1999Z" fill="#284B64"/>
</svg>
