<svg width="16" height="16" viewBox="0 0 16 16" fill="none" xmlns="http://www.w3.org/2000/svg">
<path fill-rule="evenodd" clip-rule="evenodd" d="M4.66669 4.66683V6.66683H4.00002C3.28779 6.66683 2.66669 7.18441 2.66669 7.88905V13.4446C2.66669 14.1492 3.28779 14.6668 4.00002 14.6668H12C12.7123 14.6668 13.3334 14.1492 13.3334 13.4446V7.88905C13.3334 7.18441 12.7123 6.66683 12 6.66683H11.3334V4.66683C11.3334 2.82588 9.84097 1.3335 8.00002 1.3335C6.15907 1.3335 4.66669 2.82588 4.66669 4.66683ZM10 4.66683V6.66683H6.00002V4.66683C6.00002 3.56226 6.89545 2.66683 8.00002 2.66683C9.10459 2.66683 10 3.56226 10 4.66683ZM4.00002 13.3335V8.00016H12V13.3335H4.00002ZM8.00002 11.3335C8.36821 11.3335 8.66669 11.035 8.66669 10.6668C8.66669 10.2986 8.36821 10.0002 8.00002 10.0002C7.63183 10.0002 7.33335 10.2986 7.33335 10.6668C7.33335 11.035 7.63183 11.3335 8.00002 11.3335Z" fill="white"/>
</svg>
