<svg width="80" height="80" viewBox="0 0 80 80" fill="none" xmlns="http://www.w3.org/2000/svg">
<circle cx="40" cy="40" r="39" fill="white" stroke="#E9EDEF" stroke-width="2"/>
<path d="M52.2493 58.4001H28.5855C27.4681 58.4001 26.3945 57.8883 25.6714 57.0205C24.9483 56.1305 24.6635 54.9958 24.8607 53.861C26.263 46.2959 32.7924 40.8 40.3955 40.8C47.9986 40.8 54.528 46.2959 55.9303 53.861C56.1494 54.9958 55.8427 56.1305 55.1196 57.0205C54.4404 57.8883 53.3667 58.4001 52.2493 58.4001ZM40.4174 43.8928C34.2824 43.8928 29.0238 48.3207 27.8844 54.4172C27.8406 54.7065 27.9501 54.9067 28.0378 55.018C28.1254 55.107 28.3007 55.285 28.5855 55.285H52.2493C52.5341 55.285 52.7094 55.1293 52.7971 55.018C52.8847 54.929 52.9942 54.7065 52.9504 54.4172C51.8111 48.3207 46.5525 43.8928 40.4174 43.8928Z" fill="#1A938A"/>
<path d="M48.8 29.2C48.8 33.8473 45.0473 37.6 40.4 37.6C35.7745 37.6 32 33.8473 32 29.2C32 24.5528 35.7745 20.8 40.4 20.8C45.0473 20.8 48.8 24.5528 48.8 29.2Z" fill="#043344"/>
</svg>
