<svg width="24" height="24" viewBox="0 0 24 24" fill="none" xmlns="http://www.w3.org/2000/svg">
<path d="M17.2001 13.5999C14.1065 13.5999 11.6001 11.0847 11.6001 8.00554C11.6001 4.91511 14.1178 2.3999 17.2001 2.3999C20.2936 2.3999 22.8001 4.91511 22.8001 8.00554C22.8113 11.0847 20.2936 13.5999 17.2001 13.5999ZM17.2001 3.97896C14.9759 3.97896 13.1807 5.78359 13.1807 8.00554C13.1807 10.2275 14.9872 12.0209 17.2001 12.0209C19.4243 12.0209 21.2194 10.2162 21.2194 8.00554C21.2307 5.78359 19.4243 3.97896 17.2001 3.97896Z" fill="#1A938A"/>
<path d="M8.07804 15.6002H2.72186C1.88422 15.6002 1.19995 14.9159 1.19995 14.0783V8.72211C1.19995 7.88447 1.88422 7.2002 2.72186 7.2002H8.07804C8.91568 7.2002 9.59995 7.88447 9.59995 8.72211V14.0783C9.58815 14.9277 8.91568 15.6002 8.07804 15.6002ZM2.85164 13.9485H7.93647V8.86368H2.85164V13.9485Z" fill="#1A938A"/>
<path d="M18.6699 20.429L12.5187 14.1361C12.3397 13.9546 12.0601 13.9546 11.8812 14.1361L5.72994 20.429C5.45034 20.7124 5.65165 21.2 6.05428 21.2H18.3567C18.7482 21.2 18.9495 20.7124 18.6699 20.429Z" fill="#043344"/>
</svg>
