<svg width="310" height="259" viewBox="0 0 310 259" fill="none" xmlns="http://www.w3.org/2000/svg">
<g filter="url(#filter0_dd_965_8983)">
<g filter="url(#filter1_ddd_965_8983)">
<rect x="24" y="20" width="262" height="209.156" rx="11.1017" fill="white"/>
</g>
<g filter="url(#filter2_ddd_965_8983)">
<rect x="29.3286" y="25.3289" width="251.342" height="198.498" rx="7.99322" fill="white"/>
</g>
<g filter="url(#filter3_ddd_965_8983)">
<rect x="29.3286" y="99.0441" width="251.342" height="124.783" rx="7.99322" fill="white"/>
</g>
<path d="M46.2879 107.13C46.6636 107.13 46.9087 106.868 46.9087 106.509C46.9087 106.138 46.6663 105.891 46.2879 105.891H45.5392V107.817H45.8004V107.13H46.2879ZM46.2426 106.125C46.4878 106.125 46.6343 106.264 46.6343 106.506C46.6343 106.743 46.4904 106.895 46.232 106.895H45.8004V106.125H46.2426ZM47.1934 107.817L47.3639 107.337H48.1739L48.347 107.817H48.6215L47.9154 105.891H47.625L46.9216 107.817H47.1934ZM47.7369 106.306C47.7502 106.266 47.7635 106.221 47.7689 106.194C47.7742 106.224 47.7875 106.269 47.8008 106.306L48.0966 107.111H47.4438L47.7369 106.306ZM49.1406 107.034V107.817H49.4017V107.034L50.0492 105.891H49.7641L49.3378 106.661C49.3032 106.725 49.2978 106.741 49.2738 106.789C49.2525 106.743 49.2365 106.706 49.2099 106.661L48.7809 105.891H48.4878L49.1406 107.034ZM50.5566 107.817V106.994C50.5566 106.725 50.5513 106.527 50.538 106.434L51.0975 107.817H51.3426L51.9048 106.429C51.8915 106.565 51.8888 106.695 51.8888 107.055V107.817H52.1446V105.891H51.8835L51.22 107.511L50.5566 105.891H50.3008V107.817H50.5566ZM53.7682 107.817V107.575H52.8543V106.964H53.6776V106.733H52.8543V106.13H53.7682V105.891H52.5932V107.817H53.7682ZM54.4076 107.817V106.328L55.3935 107.817H55.6546V105.891H55.3935V107.38L54.4076 105.891H54.1465V107.817H54.4076ZM55.9167 106.13H56.4975V107.817H56.7586V106.13H57.3368V105.891H55.9167V106.13ZM58.5837 107.817V106.994C58.5837 106.725 58.5783 106.527 58.565 106.434L59.1245 107.817H59.3697L59.9318 106.429C59.9185 106.565 59.9159 106.695 59.9159 107.055V107.817H60.1716V105.891H59.9105L59.2471 107.511L58.5837 105.891H58.3279V107.817H58.5837ZM62.3574 106.853C62.3574 106.266 61.9764 105.856 61.4302 105.856C60.8866 105.856 60.5056 106.269 60.5056 106.853C60.5056 107.439 60.884 107.849 61.4275 107.849C61.9737 107.849 62.3574 107.439 62.3574 106.853ZM62.083 106.853C62.083 107.297 61.8218 107.599 61.4302 107.599C61.0385 107.599 60.7801 107.3 60.7801 106.853C60.7801 106.405 61.0385 106.109 61.4302 106.109C61.8218 106.109 62.083 106.405 62.083 106.853ZM62.9525 107.817V106.328L63.9383 107.817H64.1994V105.891H63.9383V107.38L62.9525 105.891H62.6914V107.817H62.9525ZM64.4615 106.13H65.0424V107.817H65.3035V106.13H65.8817V105.891H64.4615V106.13ZM66.4053 107.817V106.962H67.3591V107.817H67.6202V105.891H67.3591V106.719H66.4053V105.891H66.1442V107.817H66.4053ZM68.0883 106.306C68.1656 106.336 68.2269 106.346 68.3068 106.357C68.2562 106.402 68.2109 106.448 68.1549 106.527L68.051 106.677L68.1762 106.762L68.2828 106.615C68.3361 106.543 68.3654 106.482 68.3867 106.418C68.4107 106.474 68.44 106.535 68.496 106.615L68.5999 106.762L68.7225 106.677L68.6185 106.527C68.5679 106.448 68.5279 106.405 68.472 106.357C68.5333 106.349 68.6026 106.338 68.6905 106.306L68.8663 106.245L68.8104 106.104L68.6425 106.162C68.5493 106.194 68.496 106.226 68.44 106.261C68.4533 106.2 68.464 106.13 68.464 106.037V105.853H68.3148V106.037C68.3148 106.13 68.3228 106.194 68.3388 106.261C68.2828 106.224 68.2295 106.194 68.1336 106.162L67.9684 106.106L67.9151 106.245L68.0883 106.306Z" fill="#93A5B1"/>
<path d="M133.533 90.6136V89.5479H131.345V88.4608H133.284V87.4519H131.345V86.4216H133.533V85.3559H130.194V90.6136H133.533ZM135.242 90.6136L135.839 89.5905L136.45 90.6136H137.708L136.578 88.8729L137.75 87.0611H136.528L135.917 88.1411L135.263 87.0611H133.999L135.192 88.8942L133.999 90.6136H135.242ZM138.232 92.3189H139.326V90.2584C139.532 90.5284 139.987 90.7131 140.477 90.7131C141.536 90.7131 142.147 89.9031 142.147 88.7805C142.147 87.6366 141.458 86.9474 140.47 86.9474C139.966 86.9474 139.518 87.1677 139.319 87.4945L139.262 87.0611H138.232V92.3189ZM139.334 88.8374C139.334 88.3045 139.689 87.9492 140.2 87.9492C140.719 87.9492 141.046 88.3116 141.046 88.8374C141.046 89.3632 140.719 89.7255 140.2 89.7255C139.689 89.7255 139.334 89.3703 139.334 88.8374ZM144.425 90.706C145.399 90.706 146.102 90.2016 146.23 89.4129H145.228C145.15 89.6687 144.859 89.8179 144.447 89.8179C143.964 89.8179 143.701 89.5976 143.637 89.1287L146.216 89.1145V88.8374C146.216 87.6792 145.52 86.9474 144.404 86.9474C143.331 86.9474 142.585 87.7219 142.585 88.8303C142.585 89.9245 143.353 90.706 144.425 90.706ZM144.411 87.8356C144.852 87.8356 145.129 88.0771 145.129 88.4537H143.651C143.736 88.0274 143.978 87.8356 144.411 87.8356ZM147.958 90.6136V88.6669C147.958 88.2263 148.235 87.9421 148.668 87.9421C149.045 87.9421 149.294 88.2334 149.294 88.6811V90.6136H150.388V88.4182C150.388 87.4874 149.898 86.9474 149.052 86.9474C148.59 86.9474 148.185 87.1251 147.965 87.4306L147.894 87.0611H146.864V90.6136H147.958ZM150.875 89.491C150.875 90.2087 151.465 90.706 152.403 90.706C153.326 90.706 153.973 90.2442 153.973 89.4839C153.973 88.9155 153.653 88.6455 153.071 88.5176L152.41 88.3755C152.161 88.3187 152.026 88.2263 152.026 88.0629C152.026 87.8711 152.183 87.7432 152.431 87.7432C152.694 87.7432 152.843 87.9066 152.843 88.1482H153.881C153.881 87.4306 153.305 86.9474 152.481 86.9474C151.628 86.9474 150.996 87.3737 150.996 88.1127C150.996 88.7379 151.316 89.0221 151.969 89.1642L152.623 89.3063C152.886 89.3632 152.943 89.4768 152.943 89.5834C152.943 89.7681 152.787 89.8889 152.445 89.8889C152.112 89.8889 151.927 89.7397 151.913 89.491H150.875ZM156.193 90.706C157.167 90.706 157.87 90.2016 157.998 89.4129H156.996C156.918 89.6687 156.627 89.8179 156.214 89.8179C155.731 89.8179 155.468 89.5976 155.405 89.1287L157.984 89.1145V88.8374C157.984 87.6792 157.287 86.9474 156.172 86.9474C155.099 86.9474 154.353 87.7219 154.353 88.8303C154.353 89.9245 155.12 90.706 156.193 90.706ZM156.179 87.8356C156.619 87.8356 156.897 88.0771 156.897 88.4537H155.419C155.504 88.0274 155.746 87.8356 156.179 87.8356ZM162.921 90.6989C164.235 90.6989 165.216 89.9245 165.4 88.7521H164.207C164.064 89.2708 163.588 89.5905 162.942 89.5905C162.096 89.5905 161.571 88.9724 161.571 87.9848C161.571 86.9829 162.089 86.379 162.942 86.379C163.574 86.379 164.022 86.6774 164.178 87.2032H165.393C165.23 86.0238 164.285 85.2706 162.97 85.2706C161.4 85.2706 160.356 86.3506 160.356 87.9919C160.356 89.6545 161.343 90.6989 162.921 90.6989ZM167.095 90.6136V85.2564H166V90.6136H167.095ZM168.988 90.706C169.521 90.706 169.99 90.4715 170.104 90.1447L170.175 90.6136H171.141V88.539C171.141 87.5229 170.558 86.9474 169.528 86.9474C168.512 86.9474 167.851 87.4732 167.851 88.2761H168.761C168.761 87.9563 169.01 87.7787 169.471 87.7787C169.862 87.7787 170.075 87.9635 170.075 88.3116V88.3684L169.081 88.4466C168.228 88.5105 167.766 88.9155 167.766 89.5692C167.766 90.2655 168.235 90.706 168.988 90.706ZM169.372 89.896C169.038 89.896 168.882 89.7752 168.882 89.5195C168.882 89.2921 169.052 89.1855 169.528 89.1429L170.082 89.0932V89.285C170.082 89.69 169.791 89.896 169.372 89.896ZM172.466 86.5069C172.807 86.5069 173.084 86.2298 173.084 85.8817C173.084 85.5335 172.807 85.2635 172.466 85.2635C172.118 85.2635 171.841 85.5335 171.841 85.8817C171.841 86.2298 172.118 86.5069 172.466 86.5069ZM171.926 90.6136H173.02V87.0611H171.926V90.6136ZM174.935 90.6136V88.7095C174.935 88.1127 175.255 87.9421 175.567 87.9421C175.916 87.9421 176.143 88.1553 176.143 88.5958V90.6136H177.237V88.7095C177.237 88.1056 177.55 87.935 177.862 87.935C178.211 87.935 178.445 88.1482 178.445 88.5958V90.6136H179.539V88.2903C179.539 87.4803 179.084 86.9474 178.168 86.9474C177.656 86.9474 177.237 87.1961 177.052 87.5727C176.846 87.1961 176.505 86.9474 175.972 86.9474C175.461 86.9474 175.113 87.1819 174.935 87.4306L174.864 87.0611H173.841V90.6136H174.935Z" fill="#284B64"/>
<path d="M29.3286 33.3221C29.3286 28.9075 32.9073 25.3289 37.3218 25.3289H272.678C277.092 25.3289 280.671 28.9075 280.671 33.3221V69.2916H29.3286V33.3221Z" fill="url(#paint0_radial_965_8983)"/>
<circle cx="155" cy="66.1831" r="12.878" fill="#8479FF"/>
<path fill-rule="evenodd" clip-rule="evenodd" d="M151.448 63.8149C151.448 63.4879 151.713 63.2228 152.04 63.2228L156.777 63.2228C157.104 63.2228 157.369 63.4879 157.369 63.8149C157.369 64.1419 157.104 64.407 156.777 64.407L152.04 64.407C151.713 64.407 151.448 64.1419 151.448 63.8149Z" fill="white"/>
<path fill-rule="evenodd" clip-rule="evenodd" d="M151.448 66.1832C151.448 65.8562 151.713 65.5911 152.04 65.5911L154.704 65.5911C155.031 65.5911 155.297 65.8562 155.297 66.1832C155.297 66.5102 155.031 66.7753 154.704 66.7753L152.04 66.7753C151.713 66.7753 151.448 66.5102 151.448 66.1832Z" fill="white"/>
<path fill-rule="evenodd" clip-rule="evenodd" d="M151.448 68.5516C151.448 68.2246 151.713 67.9595 152.04 67.9595L154.704 67.9595C155.031 67.9595 155.297 68.2246 155.297 68.5516C155.297 68.8786 155.031 69.1437 154.704 69.1437L152.04 69.1437C151.713 69.1437 151.448 68.8786 151.448 68.5516Z" fill="white"/>
<path d="M150.856 60.2623C149.875 60.2623 149.08 61.0576 149.08 62.0386V70.3279C149.08 71.3089 149.875 72.1041 150.856 72.1041H156.185L155 70.92H150.856C150.529 70.92 150.264 70.6549 150.264 70.3279V62.0386C150.264 61.7116 150.529 61.4465 150.856 61.4465H157.961C158.288 61.4465 158.553 61.7116 158.553 62.0386V64.6043L159.737 65.3938V62.0386C159.737 61.0576 158.942 60.2623 157.961 60.2623H150.856Z" fill="white"/>
<path d="M157.961 63.8149C155.977 63.8149 154.408 64.8695 154.408 66.1978V70.3139C154.408 71.6536 155.965 72.6962 157.961 72.6962C159.956 72.6962 161.513 71.6476 161.513 70.3133V66.2451C161.502 64.8695 159.944 63.8149 157.961 63.8149ZM160.33 70.4265C160.33 70.9445 159.323 71.5224 157.961 71.5224C156.599 71.5224 155.592 70.9265 155.592 70.4265V70.3013C155.592 70.2899 155.595 70.2786 155.6 70.269C155.606 70.2594 155.613 70.2504 155.623 70.2444C155.633 70.2384 155.643 70.2348 155.655 70.2342C155.666 70.2336 155.677 70.236 155.687 70.2414C156.392 70.5816 157.156 70.7421 157.949 70.7421C158.736 70.7421 159.529 70.5822 160.234 70.2414C160.244 70.236 160.255 70.2336 160.267 70.2342C160.278 70.2348 160.289 70.2384 160.298 70.2444C160.303 70.2474 160.307 70.2509 160.311 70.2549C160.319 70.2633 160.322 70.2746 160.325 70.2858C160.328 70.2961 160.329 70.3067 160.329 70.3173L160.33 70.4265ZM160.33 68.3777C160.33 68.8958 159.323 69.4737 157.961 69.4737C156.599 69.4737 155.592 68.8778 155.592 68.3777V68.2526C155.592 68.2412 155.595 68.2298 155.6 68.2202C155.606 68.21 155.613 68.2017 155.623 68.1957C155.633 68.1897 155.643 68.1861 155.655 68.1855C155.666 68.1849 155.677 68.1873 155.687 68.1927C156.392 68.5328 157.156 68.6933 157.949 68.6933C158.736 68.6933 159.529 68.5334 160.234 68.1927C160.244 68.1873 160.255 68.1849 160.267 68.1855C160.278 68.1861 160.289 68.1897 160.298 68.1957C160.306 68.2002 160.312 68.2061 160.317 68.2132C160.32 68.2177 160.322 68.2229 160.323 68.2283C160.327 68.2444 160.329 68.2609 160.329 68.2775V68.3777H160.33ZM157.961 67.3674C156.611 67.3674 155.592 66.7458 155.592 66.1978C155.592 65.6498 156.599 64.9995 157.961 64.9995C159.323 64.9995 160.33 65.6438 160.33 66.1978C160.33 66.7518 159.311 67.3674 157.961 67.3674Z" fill="white"/>
<path d="M141.575 37.9792C142.353 37.9792 142.865 37.4516 142.865 36.7002C142.865 35.9382 142.359 35.4267 141.575 35.4267H140.035V39.322H140.717V37.9792H141.575ZM141.442 36.0341C141.895 36.0341 142.151 36.2686 142.151 36.6949C142.151 37.1212 141.9 37.3717 141.431 37.3717H140.717V36.0341H141.442ZM144.022 39.3913C144.432 39.3913 144.789 39.2048 144.901 38.933L144.949 39.322H145.519V37.7234C145.519 36.9933 145.082 36.6097 144.374 36.6097C143.66 36.6097 143.191 36.9827 143.191 37.5529H143.745C143.745 37.2758 143.958 37.1159 144.342 37.1159C144.672 37.1159 144.885 37.2598 144.885 37.6168V37.6754L144.097 37.734C143.473 37.782 143.121 38.0857 143.121 38.5707C143.121 39.0662 143.462 39.3913 144.022 39.3913ZM144.235 38.901C143.942 38.901 143.782 38.7838 143.782 38.544C143.782 38.3309 143.937 38.1976 144.342 38.1603L144.891 38.1177V38.2563C144.891 38.6612 144.635 38.901 144.235 38.901ZM145.856 40.5423C146 40.5796 146.16 40.6009 146.341 40.6009C146.773 40.6009 147.05 40.3984 147.247 39.9082L148.536 36.6896H147.865L147.151 38.608L146.474 36.6896H145.787L146.847 39.4339L146.773 39.6311C146.661 39.9402 146.501 39.9988 146.245 39.9988H145.856V40.5423ZM151.12 39.322V37.8673H151.957L152.617 39.322H153.363L152.623 37.7234C153.081 37.5369 153.326 37.1639 153.326 36.6416C153.326 35.8743 152.809 35.4267 151.925 35.4267H150.438V39.322H151.12ZM151.12 36.0341H151.925C152.356 36.0341 152.612 36.2526 152.612 36.6416C152.612 37.036 152.356 37.2651 151.925 37.2651H151.12V36.0341ZM154.902 39.3913C155.59 39.3913 156.069 39.0449 156.181 38.4694H155.579C155.504 38.7199 155.27 38.8584 154.913 38.8584C154.481 38.8584 154.236 38.6239 154.188 38.1603L156.17 38.155V37.9578C156.17 37.1372 155.669 36.6097 154.881 36.6097C154.108 36.6097 153.57 37.1798 153.57 38.0058C153.57 38.8211 154.119 39.3913 154.902 39.3913ZM154.886 37.1425C155.275 37.1425 155.526 37.3823 155.526 37.7447H154.204C154.268 37.3504 154.502 37.1425 154.886 37.1425ZM156.536 37.9738C156.536 38.7945 156.984 39.3913 157.767 39.3913C158.156 39.3913 158.503 39.2368 158.668 38.9703V40.5423H159.312V36.6896H158.716L158.673 37.0892C158.513 36.7855 158.167 36.6097 157.767 36.6097C157.026 36.6097 156.536 37.1479 156.536 37.9738ZM157.186 38.0058C157.186 37.5369 157.463 37.2012 157.916 37.2012C158.369 37.2012 158.662 37.5315 158.662 38.0058C158.662 38.4801 158.369 38.8051 157.916 38.8051C157.463 38.8051 157.186 38.4747 157.186 38.0058ZM161.775 36.6896V38.0698C161.775 38.5707 161.578 38.8105 161.168 38.8105C160.805 38.8105 160.608 38.608 160.608 38.1071V36.6896H159.958V38.3362C159.958 38.981 160.315 39.3913 160.923 39.3913C161.274 39.3913 161.615 39.2208 161.775 38.9703L161.823 39.322H162.425V36.6896H161.775ZM164.222 39.3913C164.91 39.3913 165.389 39.0449 165.501 38.4694H164.899C164.825 38.7199 164.59 38.8584 164.233 38.8584C163.801 38.8584 163.556 38.6239 163.508 38.1603L165.491 38.155V37.9578C165.491 37.1372 164.99 36.6097 164.201 36.6097C163.428 36.6097 162.89 37.1798 162.89 38.0058C162.89 38.8211 163.439 39.3913 164.222 39.3913ZM164.206 37.1425C164.595 37.1425 164.846 37.3823 164.846 37.7447H163.524C163.588 37.3504 163.823 37.1425 164.206 37.1425ZM165.808 38.5227C165.808 39.0396 166.224 39.3913 166.88 39.3913C167.53 39.3913 167.983 39.0609 167.983 38.528C167.983 38.123 167.759 37.9205 167.316 37.8193L166.842 37.7074C166.618 37.6541 166.501 37.5582 166.501 37.409C166.501 37.2118 166.65 37.0946 166.906 37.0946C167.157 37.0946 167.306 37.2385 167.311 37.4623H167.929C167.924 36.9507 167.524 36.6097 166.933 36.6097C166.325 36.6097 165.888 36.9187 165.888 37.4356C165.888 37.8566 166.118 38.0804 166.592 38.187L167.066 38.2989C167.301 38.3522 167.37 38.4481 167.37 38.5813C167.37 38.7732 167.205 38.8957 166.901 38.8957C166.602 38.8957 166.432 38.7518 166.427 38.5227H165.808ZM169.373 39.322V37.2331H169.884V36.6896H169.373V35.869H168.723V36.6896H168.216V37.2331H168.723V39.322H169.373Z" fill="#284B64"/>
<g filter="url(#filter4_ddd_965_8983)">
<rect x="111.038" y="204.288" width="87.4814" height="14.2102" rx="5.32881" fill="#1A938A"/>
</g>
<path d="M138.016 210.588C138.016 211.185 138.362 211.564 139.023 211.707L139.641 211.846C139.961 211.915 140.094 212.07 140.094 212.331C140.094 212.656 139.807 212.853 139.354 212.853C138.917 212.853 138.65 212.656 138.645 212.326H137.963C137.979 213.024 138.522 213.466 139.354 213.466C140.212 213.466 140.776 212.997 140.776 212.272C140.776 211.692 140.451 211.35 139.785 211.207L139.172 211.073C138.847 210.999 138.698 210.844 138.698 210.567C138.698 210.242 138.97 210.04 139.391 210.04C139.775 210.04 140.014 210.237 140.03 210.572H140.712C140.691 209.869 140.19 209.432 139.402 209.432C138.581 209.432 138.016 209.906 138.016 210.588ZM142.475 213.466C143.163 213.466 143.642 213.12 143.754 212.544H143.152C143.077 212.795 142.843 212.933 142.486 212.933C142.054 212.933 141.809 212.699 141.761 212.235L143.743 212.23V212.033C143.743 211.212 143.243 210.684 142.454 210.684C141.681 210.684 141.143 211.255 141.143 212.081C141.143 212.896 141.692 213.466 142.475 213.466ZM142.459 211.217C142.848 211.217 143.099 211.457 143.099 211.819H141.777C141.841 211.425 142.076 211.217 142.459 211.217ZM144.914 213.397V211.979C144.914 211.553 145.159 211.276 145.559 211.276C145.894 211.276 146.113 211.489 146.113 211.931V213.397H146.763V211.777C146.763 211.095 146.422 210.684 145.761 210.684C145.404 210.684 145.084 210.839 144.919 211.105L144.866 210.764H144.264V213.397H144.914ZM148.483 213.466C148.883 213.466 149.224 213.29 149.384 212.986L149.427 213.397H150.023V209.432H149.379V211.1C149.214 210.839 148.888 210.684 148.521 210.684C147.727 210.684 147.247 211.271 147.247 212.091C147.247 212.906 147.721 213.466 148.483 213.466ZM148.627 212.869C148.174 212.869 147.897 212.539 147.897 212.07C147.897 211.601 148.174 211.265 148.627 211.265C149.08 211.265 149.373 211.596 149.373 212.07C149.373 212.544 149.08 212.869 148.627 212.869ZM152.915 213.397V211.942H153.752L154.413 213.397H155.159L154.418 211.798C154.876 211.612 155.121 211.239 155.121 210.716C155.121 209.949 154.605 209.501 153.72 209.501H152.233V213.397H152.915ZM152.915 210.109H153.72C154.152 210.109 154.407 210.327 154.407 210.716C154.407 211.111 154.152 211.34 153.72 211.34H152.915V210.109ZM156.697 213.466C157.385 213.466 157.865 213.12 157.976 212.544H157.374C157.3 212.795 157.065 212.933 156.708 212.933C156.277 212.933 156.031 212.699 155.983 212.235L157.966 212.23V212.033C157.966 211.212 157.465 210.684 156.676 210.684C155.904 210.684 155.365 211.255 155.365 212.081C155.365 212.896 155.914 213.466 156.697 213.466ZM156.682 211.217C157.071 211.217 157.321 211.457 157.321 211.819H155.999C156.063 211.425 156.298 211.217 156.682 211.217ZM158.332 212.049C158.332 212.869 158.779 213.466 159.562 213.466C159.951 213.466 160.298 213.311 160.463 213.045V214.617H161.108V210.764H160.511L160.468 211.164C160.309 210.86 159.962 210.684 159.562 210.684C158.822 210.684 158.332 211.223 158.332 212.049ZM158.982 212.081C158.982 211.612 159.259 211.276 159.712 211.276C160.165 211.276 160.458 211.606 160.458 212.081C160.458 212.555 160.165 212.88 159.712 212.88C159.259 212.88 158.982 212.549 158.982 212.081ZM163.571 210.764V212.144C163.571 212.645 163.373 212.885 162.963 212.885C162.601 212.885 162.403 212.683 162.403 212.182V210.764H161.753V212.411C161.753 213.056 162.11 213.466 162.718 213.466C163.07 213.466 163.411 213.295 163.571 213.045L163.618 213.397H164.221V210.764H163.571ZM166.018 213.466C166.705 213.466 167.185 213.12 167.297 212.544H166.694C166.62 212.795 166.385 212.933 166.028 212.933C165.597 212.933 165.352 212.699 165.304 212.235L167.286 212.23V212.033C167.286 211.212 166.785 210.684 165.996 210.684C165.224 210.684 164.686 211.255 164.686 212.081C164.686 212.896 165.234 213.466 166.018 213.466ZM166.002 211.217C166.391 211.217 166.641 211.457 166.641 211.819H165.32C165.384 211.425 165.618 211.217 166.002 211.217ZM167.604 212.597C167.604 213.114 168.019 213.466 168.675 213.466C169.325 213.466 169.778 213.136 169.778 212.603C169.778 212.198 169.554 211.995 169.112 211.894L168.638 211.782C168.414 211.729 168.297 211.633 168.297 211.484C168.297 211.287 168.446 211.169 168.702 211.169C168.952 211.169 169.101 211.313 169.107 211.537H169.725C169.719 211.025 169.32 210.684 168.728 210.684C168.121 210.684 167.684 210.993 167.684 211.51C167.684 211.931 167.913 212.155 168.387 212.262L168.861 212.374C169.096 212.427 169.165 212.523 169.165 212.656C169.165 212.848 169 212.97 168.696 212.97C168.398 212.97 168.227 212.827 168.222 212.597H167.604ZM171.168 213.397V211.308H171.68V210.764H171.168V209.944H170.518V210.764H170.012V211.308H170.518V213.397H171.168Z" fill="white"/>
<path fill-rule="evenodd" clip-rule="evenodd" d="M37.0265 113.402C37.0265 113.566 36.8939 113.698 36.7304 113.698C36.5669 113.698 36.4344 113.566 36.4344 113.402V113.402H35.8429V114.29H40.5796V113.402H39.9866V113.402C39.9866 113.566 39.8541 113.698 39.6906 113.698C39.5271 113.698 39.3945 113.566 39.3945 113.402V113.402H37.0265V113.402ZM35.8429 117.843V114.882H40.5796V117.843H35.8429ZM39.9866 112.81L40.5793 112.81C40.9063 112.81 41.1714 113.075 41.1714 113.402V117.843C41.1714 118.17 40.9063 118.435 40.5793 118.435H35.8426C35.5156 118.435 35.2505 118.17 35.2505 117.843V113.402C35.2505 113.075 35.5156 112.81 35.8426 112.81H36.4344C36.4344 112.647 36.5669 112.514 36.7304 112.514C36.8939 112.514 37.0265 112.647 37.0265 112.81L39.3945 112.81C39.3945 112.647 39.5271 112.514 39.6906 112.514C39.8541 112.514 39.9866 112.647 39.9866 112.81ZM38.9759 115.474L37.9143 116.536L37.4449 116.067C37.3293 115.951 37.1418 115.951 37.0262 116.067C36.9106 116.182 36.9106 116.37 37.0262 116.485L37.9143 117.373L39.3946 115.893C39.5102 115.778 39.5102 115.59 39.3946 115.474C39.2789 115.359 39.0915 115.359 38.9759 115.474Z" fill="#93A5B1"/>
<path d="M50.5598 116.482V115.972H49.3519V115.088H50.7907V114.564H48.7835V117.81H49.3519V116.482H50.5598ZM52.0354 117.868C52.6083 117.868 53.0079 117.579 53.1012 117.1H52.5994C52.5372 117.308 52.3418 117.424 52.0443 117.424C51.6846 117.424 51.4803 117.228 51.4404 116.842L53.0923 116.838V116.673C53.0923 115.99 52.6749 115.55 52.0177 115.55C51.3738 115.55 50.9252 116.025 50.9252 116.713C50.9252 117.393 51.3826 117.868 52.0354 117.868ZM52.0221 115.994C52.3463 115.994 52.555 116.194 52.555 116.496H51.4537C51.507 116.167 51.7024 115.994 52.0221 115.994ZM54.0277 117.81L54.0632 117.468C54.192 117.721 54.4718 117.868 54.8004 117.868C55.4309 117.868 55.8439 117.402 55.8439 116.727C55.8439 116.034 55.462 115.545 54.8359 115.545C54.5028 115.545 54.2098 115.692 54.0677 115.936V114.506H53.5259V117.81H54.0277ZM54.0721 116.704C54.0721 116.309 54.3163 116.034 54.6893 116.034C55.0712 116.034 55.2977 116.314 55.2977 116.704C55.2977 117.095 55.0712 117.371 54.6893 117.371C54.3163 117.371 54.0721 117.1 54.0721 116.704ZM56.8647 117.615C56.8647 117.339 56.7048 117.157 56.4828 117.157C56.283 117.157 56.1453 117.3 56.1453 117.513C56.1453 117.69 56.2874 117.819 56.4606 117.819C56.5139 117.819 56.5538 117.81 56.5894 117.792C56.5894 117.948 56.4384 118.068 56.2386 118.103V118.321C56.5982 118.276 56.8647 117.983 56.8647 117.615ZM59.6091 117.806V117.277H58.2591L58.8453 116.776C59.3382 116.354 59.5869 116.012 59.5869 115.559C59.5869 114.902 59.1561 114.506 58.4634 114.506C57.7751 114.506 57.3221 114.968 57.3177 115.679H57.8817C57.8861 115.261 58.1081 115.013 58.4634 115.013C58.8053 115.013 59.0052 115.221 59.0052 115.59C59.0052 115.901 58.8586 116.114 58.419 116.487L57.3577 117.384V117.81L59.6091 117.806ZM59.9593 116.194C59.9593 117.197 60.47 117.868 61.3315 117.868C62.193 117.868 62.7081 117.197 62.7081 116.194C62.7081 115.186 62.1619 114.502 61.3315 114.502C60.5011 114.502 59.9593 115.186 59.9593 116.194ZM60.5188 116.194C60.5188 115.426 60.8208 115.004 61.3315 115.004C61.8466 115.004 62.1486 115.426 62.1486 116.194C62.1486 116.944 61.8466 117.366 61.3315 117.366C60.8208 117.366 60.5188 116.944 60.5188 116.194ZM65.3551 117.806V117.277H64.0051L64.5913 116.776C65.0842 116.354 65.3329 116.012 65.3329 115.559C65.3329 114.902 64.9021 114.506 64.2094 114.506C63.5211 114.506 63.0681 114.968 63.0637 115.679H63.6277C63.6321 115.261 63.8541 115.013 64.2094 115.013C64.5513 115.013 64.7512 115.221 64.7512 115.59C64.7512 115.901 64.6046 116.114 64.165 116.487L63.1037 117.384V117.81L65.3551 117.806ZM66.6949 116.203C67.1478 116.203 67.361 116.442 67.361 116.771C67.361 117.131 67.1256 117.362 66.7704 117.362C66.424 117.362 66.1931 117.149 66.1931 116.776H65.6335C65.6335 117.477 66.1265 117.868 66.7615 117.868C67.4187 117.868 67.9382 117.446 67.9382 116.78C67.9382 116.207 67.5519 115.843 67.0546 115.745L67.845 115.017V114.564H65.7845V115.066H67.1345L66.2996 115.834V116.203H66.6949Z" fill="#043344"/>
<path fill-rule="evenodd" clip-rule="evenodd" d="M259.442 115.326C259.5 115.269 259.594 115.269 259.652 115.326C259.71 115.384 259.71 115.478 259.652 115.536L258.468 116.72L257.283 115.536C257.226 115.478 257.226 115.384 257.283 115.326C257.341 115.269 257.435 115.269 257.493 115.326L258.468 116.301L259.442 115.326Z" fill="#93A5B1"/>
<mask id="mask0_965_8983" style="mask-type:luminance" maskUnits="userSpaceOnUse" x="257" y="115" width="3" height="2">
<path fill-rule="evenodd" clip-rule="evenodd" d="M259.442 115.326C259.5 115.269 259.594 115.269 259.652 115.326C259.71 115.384 259.71 115.478 259.652 115.536L258.468 116.72L257.283 115.536C257.226 115.478 257.226 115.384 257.283 115.326C257.341 115.269 257.435 115.269 257.493 115.326L258.468 116.301L259.442 115.326Z" fill="white"/>
</mask>
<g mask="url(#mask0_965_8983)">
</g>
<rect x="45.0931" y="110.812" width="218.481" height="10.2136" rx="1.11017" stroke="#32C69A" stroke-width="0.444068"/>
<path fill-rule="evenodd" clip-rule="evenodd" d="M40.5195 129.805C40.1937 129.639 39.7698 129.548 39.3261 129.548C39.1944 129.548 39.0643 129.556 38.9381 129.571V128.027C38.9381 127.667 38.7009 127.34 38.2873 127.129C37.9615 126.964 37.5376 126.872 37.0939 126.872C36.6502 126.872 36.2262 126.964 35.9003 127.129C35.4867 127.34 35.2495 127.667 35.2495 128.027V131.18C35.2495 131.54 35.4867 131.867 35.9003 132.077C36.2262 132.243 36.6501 132.334 37.0939 132.334C37.2272 132.334 37.3585 132.326 37.486 132.31C37.5182 132.638 37.7495 132.933 38.1326 133.128C38.4584 133.294 38.8823 133.385 39.3261 133.385C39.7698 133.385 40.1937 133.294 40.5195 133.128C40.9332 132.918 41.1704 132.591 41.1704 132.231V130.702C41.1704 130.342 40.9332 130.015 40.5195 129.805ZM40.7211 130.702C40.7211 130.953 40.1904 131.304 39.326 131.304C38.4617 131.304 37.931 130.953 37.931 130.702C37.931 130.451 38.4617 130.101 39.326 130.101C40.1904 130.101 40.7211 130.451 40.7211 130.702ZM40.7211 131.52C40.7211 131.771 40.1904 132.122 39.326 132.122C38.4617 132.122 37.931 131.771 37.931 131.52C37.931 131.483 37.9432 131.444 37.9657 131.404C38.294 131.611 38.7737 131.737 39.326 131.737C39.8782 131.737 40.358 131.611 40.6863 131.404C40.7088 131.444 40.7211 131.483 40.7211 131.52ZM37.094 127.426C37.9583 127.426 38.4891 127.776 38.4891 128.027C38.4891 128.278 37.9583 128.629 37.094 128.629C36.2297 128.629 35.6989 128.278 35.6989 128.027C35.6989 127.776 36.2296 127.426 37.094 127.426ZM35.7337 128.729C36.062 128.936 36.5418 129.061 37.094 129.061C37.6463 129.061 38.126 128.935 38.4543 128.729C38.4768 128.769 38.4891 128.808 38.4891 128.845C38.4891 129.096 37.9583 129.446 37.094 129.446C36.2297 129.446 35.6989 129.096 35.6989 128.845C35.6989 128.808 35.7112 128.769 35.7337 128.729ZM35.7336 129.547C36.0619 129.753 36.5416 129.879 37.0939 129.879C37.6462 129.879 38.1259 129.753 38.4542 129.547C38.4767 129.587 38.489 129.626 38.489 129.663C38.489 129.663 38.4889 129.664 38.4889 129.664C38.3612 129.703 38.2414 129.749 38.1326 129.805C37.9191 129.913 37.753 130.053 37.6419 130.213C37.479 130.245 37.2957 130.264 37.094 130.264C36.2297 130.264 35.6989 129.914 35.6989 129.663C35.6989 129.626 35.7111 129.587 35.7336 129.547ZM35.7337 130.365C36.0621 130.571 36.5418 130.697 37.0941 130.697C37.2286 130.697 37.3584 130.689 37.483 130.675C37.4828 130.684 37.4819 130.693 37.4819 130.702V131.057C37.3615 131.073 37.2323 131.082 37.094 131.082C36.2297 131.082 35.6989 130.732 35.6989 130.481C35.699 130.444 35.7113 130.405 35.7337 130.365ZM35.6751 131.18V131.144C36.0035 131.374 36.5079 131.515 37.0937 131.515C37.2278 131.515 37.3572 131.508 37.4817 131.493V131.873C37.3583 131.891 37.2284 131.901 37.0937 131.901C36.3103 131.901 35.6751 131.578 35.6751 131.18ZM40.7449 132.231C40.7449 132.629 40.1098 132.952 39.3263 132.952C38.5428 132.952 37.9076 132.629 37.9076 132.231V132.225V132.183C38.236 132.413 38.7404 132.555 39.3263 132.555C39.9121 132.555 40.4166 132.413 40.7449 132.183V132.231Z" fill="#93A5B1"/>
<rect x="44.8711" y="124.8" width="141.658" height="10.6576" rx="1.3322" fill="#F4F6F7"/>
<path d="M48.597 129.68C48.597 130.178 48.8857 130.493 49.4363 130.613L49.9514 130.728C50.2179 130.786 50.3289 130.915 50.3289 131.132C50.3289 131.403 50.0891 131.567 49.7116 131.567C49.3475 131.567 49.1255 131.403 49.121 131.128H48.5526C48.5659 131.71 49.0189 132.078 49.7116 132.078C50.4266 132.078 50.8973 131.687 50.8973 131.083C50.8973 130.599 50.6264 130.315 50.0713 130.195L49.5606 130.084C49.2898 130.022 49.1654 129.893 49.1654 129.662C49.1654 129.392 49.3919 129.223 49.7427 129.223C50.0624 129.223 50.2623 129.387 50.2756 129.667H50.844C50.8262 129.081 50.4088 128.717 49.7516 128.717C49.0677 128.717 48.597 129.112 48.597 129.68ZM52.313 132.078C52.8858 132.078 53.2855 131.789 53.3787 131.31H52.8769C52.8148 131.519 52.6194 131.634 52.3218 131.634C51.9621 131.634 51.7579 131.439 51.7179 131.052L53.3698 131.048V130.884C53.3698 130.2 52.9524 129.76 52.2952 129.76C51.6513 129.76 51.2028 130.235 51.2028 130.924C51.2028 131.603 51.6602 132.078 52.313 132.078ZM52.2996 130.204C52.6238 130.204 52.8325 130.404 52.8325 130.706H51.7312C51.7845 130.377 51.9799 130.204 52.2996 130.204ZM55.18 129.818C55.0912 129.796 55.0157 129.787 54.9402 129.787C54.6472 129.787 54.4384 129.933 54.3452 130.151L54.3141 129.831H53.8034V132.02H54.3452V130.955C54.3452 130.528 54.5894 130.32 54.9802 130.32H55.18V129.818ZM56.2335 132.02H56.7664L57.6812 129.827H57.1216L56.722 130.835C56.6287 131.075 56.5488 131.305 56.5177 131.443C56.491 131.323 56.4156 131.097 56.3223 130.835L55.9404 129.827H55.3631L56.2335 132.02ZM58.2635 129.387C58.4411 129.387 58.5876 129.241 58.5876 129.058C58.5876 128.876 58.4411 128.734 58.2635 128.734C58.077 128.734 57.9304 128.876 57.9304 129.058C57.9304 129.241 58.077 129.387 58.2635 129.387ZM57.9926 132.02H58.5344V129.827H57.9926V132.02ZM58.9653 130.919C58.9653 131.616 59.4005 132.078 60.0666 132.078C60.6394 132.078 61.0657 131.727 61.1324 131.217H60.5862C60.5284 131.456 60.3375 131.59 60.0666 131.59C59.7202 131.59 59.5071 131.332 59.5071 130.919C59.5071 130.506 59.738 130.244 60.0844 130.244C60.3419 130.244 60.524 130.373 60.5862 130.622H61.1279C61.0702 130.093 60.6616 129.76 60.0622 129.76C59.4138 129.76 58.9653 130.24 58.9653 130.919ZM62.517 132.078C63.0898 132.078 63.4895 131.789 63.5827 131.31H63.0809C63.0188 131.519 62.8234 131.634 62.5259 131.634C62.1662 131.634 61.9619 131.439 61.9219 131.052L63.5739 131.048V130.884C63.5739 130.2 63.1564 129.76 62.4992 129.76C61.8553 129.76 61.4068 130.235 61.4068 130.924C61.4068 131.603 61.8642 132.078 62.517 132.078ZM62.5037 130.204C62.8278 130.204 63.0365 130.404 63.0365 130.706H61.9353C61.9885 130.377 62.1839 130.204 62.5037 130.204Z" fill="#043344"/>
<rect x="190.081" y="124.8" width="73.7153" height="10.6576" rx="1.3322" fill="#F4F6F7"/>
<path d="M194.273 132.02L194.535 131.27H195.748L196.01 132.02H196.609L195.437 128.774H194.855L193.683 132.02H194.273ZM195.073 129.742C195.104 129.654 195.13 129.556 195.144 129.494C195.153 129.56 195.184 129.658 195.21 129.742L195.583 130.79H194.704L195.073 129.742ZM197.478 132.02V130.777C197.478 130.422 197.687 130.253 197.944 130.253C198.202 130.253 198.366 130.417 198.366 130.724V132.02H198.908V130.777C198.908 130.417 199.108 130.249 199.37 130.249C199.627 130.249 199.796 130.413 199.796 130.728V132.02H200.333V130.586C200.333 130.08 200.04 129.76 199.507 129.76C199.174 129.76 198.917 129.924 198.806 130.178C198.69 129.924 198.459 129.76 198.126 129.76C197.811 129.76 197.589 129.902 197.478 130.084L197.434 129.827H196.936V132.02H197.478ZM200.736 130.919C200.736 131.603 201.229 132.074 201.909 132.074C202.588 132.074 203.081 131.603 203.081 130.919C203.081 130.235 202.588 129.765 201.909 129.765C201.229 129.765 200.736 130.235 200.736 130.919ZM201.278 130.919C201.278 130.519 201.536 130.249 201.909 130.249C202.282 130.249 202.539 130.519 202.539 130.919C202.539 131.319 202.282 131.59 201.909 131.59C201.536 131.59 201.278 131.319 201.278 130.919ZM204.946 129.827V130.977C204.946 131.394 204.782 131.594 204.44 131.594C204.138 131.594 203.974 131.425 203.974 131.008V129.827H203.432V131.199C203.432 131.736 203.729 132.078 204.236 132.078C204.529 132.078 204.813 131.936 204.946 131.727L204.986 132.02H205.488V129.827H204.946ZM206.589 132.02V130.839C206.589 130.484 206.793 130.253 207.126 130.253C207.406 130.253 207.588 130.431 207.588 130.799V132.02H208.13V130.67C208.13 130.102 207.846 129.76 207.295 129.76C206.998 129.76 206.731 129.889 206.594 130.111L206.549 129.827H206.047V132.02H206.589ZM209.408 132.02V130.28H209.835V129.827H209.408V129.143H208.867V129.827H208.445V130.28H208.867V132.02H209.408Z" fill="#043344"/>
<path d="M49.8582 146.231C50.8085 146.231 51.4479 145.582 51.4479 144.628C51.4479 143.668 50.7996 143.02 49.8404 143.02H48.7968V146.231H49.8582ZM49.8093 143.42C50.542 143.42 50.995 143.881 50.995 144.628C50.995 145.365 50.542 145.826 49.8271 145.826H49.232V143.42H49.8093ZM52.8675 146.284C53.4048 146.284 53.769 146.022 53.8756 145.556H53.4848C53.4137 145.804 53.2006 145.938 52.8764 145.938C52.4634 145.938 52.2236 145.684 52.1925 145.227L53.8711 145.223V145.067C53.8711 144.423 53.467 143.997 52.8498 143.997C52.2192 143.997 51.7884 144.468 51.7884 145.147C51.7884 145.822 52.2281 146.284 52.8675 146.284ZM52.8498 144.348C53.2183 144.348 53.4537 144.588 53.4537 144.947H52.2014C52.2547 144.565 52.4856 144.348 52.8498 144.348ZM54.1597 145.6C54.1597 146.013 54.4839 146.284 54.9946 146.284C55.5097 146.284 55.8649 146.022 55.8649 145.609C55.8649 145.285 55.6829 145.116 55.3143 145.027L54.9324 144.934C54.7193 144.881 54.6127 144.783 54.6127 144.636C54.6127 144.437 54.7592 144.321 55.0212 144.321C55.2743 144.321 55.4209 144.459 55.4298 144.676H55.8294C55.8205 144.263 55.5097 143.997 55.0345 143.997C54.5549 143.997 54.2175 144.25 54.2175 144.65C54.2175 144.969 54.3995 145.16 54.7859 145.254L55.1678 145.342C55.3942 145.4 55.4653 145.489 55.4653 145.636C55.4653 145.835 55.2965 145.955 55.0035 145.955C54.7281 145.955 54.5594 145.822 54.5594 145.6H54.1597ZM56.1858 145.147C56.1858 145.831 56.6076 146.284 57.2471 146.284C57.7711 146.284 58.1752 145.969 58.2595 145.498H57.8421C57.7666 145.755 57.5446 145.911 57.2471 145.911C56.8519 145.911 56.5987 145.609 56.5987 145.143C56.5987 144.672 56.8696 144.37 57.2648 144.37C57.5446 144.37 57.7666 144.516 57.8377 144.792H58.2551C58.1796 144.308 57.7977 143.997 57.2515 143.997C56.6165 143.997 56.1858 144.468 56.1858 145.147ZM59.9434 144.041C59.859 144.024 59.7968 144.015 59.7213 144.015C59.4238 144.015 59.2062 144.166 59.1174 144.392L59.0908 144.064H58.7V146.231H59.1174V145.08C59.1174 144.663 59.3616 144.423 59.7569 144.423H59.9434V144.041ZM60.5391 143.544C60.6901 143.544 60.8145 143.42 60.8145 143.269C60.8145 143.113 60.6901 142.993 60.5391 142.993C60.3882 142.993 60.2638 143.113 60.2638 143.269C60.2638 143.42 60.3882 143.544 60.5391 143.544ZM60.3349 146.231H60.7523V144.059H60.3349V146.231ZM61.3583 147.203H61.7757V145.875C61.9178 146.142 62.2065 146.288 62.5529 146.288C63.1968 146.288 63.5609 145.791 63.5609 145.129C63.5609 144.463 63.1745 143.997 62.5529 143.997C62.2065 143.997 61.9134 144.152 61.7669 144.45L61.7358 144.059H61.3583V147.203ZM61.7802 145.147C61.7802 144.694 62.0377 144.379 62.464 144.379C62.8903 144.379 63.1435 144.699 63.1435 145.147C63.1435 145.591 62.8903 145.911 62.464 145.911C62.0377 145.911 61.7802 145.591 61.7802 145.147ZM64.6121 146.231V144.41H65.0384V144.059H64.6121V143.38H64.1947V144.059H63.7684V144.41H64.1947V146.231H64.6121ZM65.6173 143.544C65.7683 143.544 65.8926 143.42 65.8926 143.269C65.8926 143.113 65.7683 142.993 65.6173 142.993C65.4663 142.993 65.342 143.113 65.342 143.269C65.342 143.42 65.4663 143.544 65.6173 143.544ZM65.413 146.231H65.8305V144.059H65.413V146.231ZM66.2944 145.143C66.2944 145.813 66.774 146.284 67.4267 146.284C68.0751 146.284 68.5547 145.813 68.5547 145.143C68.5547 144.472 68.0751 144.001 67.4267 144.001C66.774 144.001 66.2944 144.472 66.2944 145.143ZM66.7162 145.143C66.7162 144.69 67.0049 144.374 67.4267 144.374C67.8442 144.374 68.1372 144.69 68.1372 145.143C68.1372 145.596 67.8442 145.911 67.4267 145.911C67.0049 145.911 66.7162 145.596 66.7162 145.143ZM69.4342 146.231V145.08C69.4342 144.659 69.6606 144.379 70.0514 144.379C70.3712 144.379 70.5754 144.556 70.5754 144.996V146.231H70.9928V144.903C70.9928 144.348 70.7308 143.997 70.158 143.997C69.8516 143.997 69.5763 144.143 69.4386 144.392L69.3942 144.059H69.0167V146.231H69.4342Z" fill="#A7B5BF"/>
<rect x="44.9821" y="139.121" width="141.436" height="10.4356" rx="1.22119" stroke="#D4DBE0" stroke-width="0.222034"/>
<path d="M45.2263 162.319V162.674H46.1589V163.611H46.5141V162.674H47.4467V162.319H46.5141V161.387H46.1589V162.319H45.2263ZM49.5231 163.993L49.8073 163.194H51.1573L51.4459 163.993H51.9033L50.7265 160.783H50.2425L49.0702 163.993H49.5231ZM50.429 161.475C50.4512 161.409 50.4734 161.333 50.4823 161.289C50.4912 161.338 50.5134 161.413 50.5356 161.475L51.0285 162.817H49.9405L50.429 161.475ZM53.047 164.047C53.3934 164.047 53.6865 163.896 53.8286 163.598L53.8641 163.993H54.2371V160.725H53.8242V162.173C53.6776 161.906 53.3979 161.76 53.0648 161.76C52.4209 161.76 52.0346 162.248 52.0346 162.914C52.0346 163.576 52.4165 164.047 53.047 164.047ZM53.1314 163.669C52.7051 163.669 52.4564 163.349 52.4564 162.901C52.4564 162.457 52.7051 162.137 53.1314 162.137C53.5577 162.137 53.8197 162.457 53.8197 162.901C53.8197 163.354 53.5577 163.669 53.1314 163.669ZM55.7097 164.047C56.0561 164.047 56.3492 163.896 56.4913 163.598L56.5268 163.993H56.8998V160.725H56.4868V162.173C56.3403 161.906 56.0605 161.76 55.7275 161.76C55.0836 161.76 54.6972 162.248 54.6972 162.914C54.6972 163.576 55.0791 164.047 55.7097 164.047ZM55.7941 163.669C55.3678 163.669 55.1191 163.349 55.1191 162.901C55.1191 162.457 55.3678 162.137 55.7941 162.137C56.2204 162.137 56.4824 162.457 56.4824 162.901C56.4824 163.354 56.2204 163.669 55.7941 163.669ZM59.3513 164.047C59.7021 164.047 59.9996 163.891 60.1106 163.642L60.155 163.993H60.5103V162.63C60.5103 162.044 60.1462 161.76 59.6088 161.76C59.0493 161.76 58.6763 162.057 58.6763 162.51H59.0404C59.0404 162.248 59.2403 162.093 59.5911 162.093C59.8842 162.093 60.1018 162.221 60.1018 162.586V162.648L59.4179 162.701C58.9072 162.741 58.6097 162.99 58.6097 163.389C58.6097 163.785 58.885 164.047 59.3513 164.047ZM59.4712 163.722C59.2003 163.722 59.0315 163.607 59.0315 163.376C59.0315 163.163 59.1825 163.021 59.5511 162.985L60.1062 162.941V163.056C60.1062 163.465 59.8664 163.722 59.4712 163.722ZM62.125 163.363C62.125 163.776 62.4492 164.047 62.9599 164.047C63.475 164.047 63.8302 163.785 63.8302 163.372C63.8302 163.047 63.6482 162.879 63.2796 162.79L62.8977 162.697C62.6845 162.643 62.578 162.546 62.578 162.399C62.578 162.199 62.7245 162.084 62.9865 162.084C63.2396 162.084 63.3862 162.221 63.395 162.439H63.7947C63.7858 162.026 63.475 161.76 62.9998 161.76C62.5202 161.76 62.1827 162.013 62.1827 162.412C62.1827 162.732 62.3648 162.923 62.7511 163.016L63.133 163.105C63.3595 163.163 63.4306 163.252 63.4306 163.398C63.4306 163.598 63.2618 163.718 62.9687 163.718C62.6934 163.718 62.5247 163.585 62.5247 163.363H62.125ZM65.2301 164.047C65.7674 164.047 66.1316 163.785 66.2381 163.318H65.8474C65.7763 163.567 65.5632 163.7 65.239 163.7C64.826 163.7 64.5862 163.447 64.5551 162.99L66.2337 162.985V162.83C66.2337 162.186 65.8296 161.76 65.2123 161.76C64.5818 161.76 64.151 162.23 64.151 162.91C64.151 163.585 64.5907 164.047 65.2301 164.047ZM65.2123 162.11C65.5809 162.11 65.8163 162.35 65.8163 162.71H64.564C64.6173 162.328 64.8482 162.11 65.2123 162.11ZM67.9433 161.804C67.859 161.786 67.7968 161.777 67.7213 161.777C67.4238 161.777 67.2062 161.928 67.1174 162.155L67.0907 161.826H66.6999V163.993H67.1174V162.843C67.1174 162.426 67.3616 162.186 67.7568 162.186H67.9433V161.804ZM69.0083 163.993H69.4212L70.3271 161.822H69.892L69.4079 163.034C69.3324 163.225 69.2614 163.412 69.2259 163.554C69.1903 163.42 69.1282 163.238 69.0527 163.034L68.5775 161.822H68.1334L69.0083 163.993ZM70.8635 161.307C71.0145 161.307 71.1388 161.182 71.1388 161.031C71.1388 160.876 71.0145 160.756 70.8635 160.756C70.7125 160.756 70.5882 160.876 70.5882 161.031C70.5882 161.182 70.7125 161.307 70.8635 161.307ZM70.6593 163.993H71.0767V161.822H70.6593V163.993ZM71.5406 162.91C71.5406 163.594 71.9625 164.047 72.6019 164.047C73.1259 164.047 73.53 163.731 73.6144 163.261H73.197C73.1215 163.518 72.8994 163.674 72.6019 163.674C72.2067 163.674 71.9536 163.372 71.9536 162.905C71.9536 162.435 72.2245 162.133 72.6197 162.133C72.8994 162.133 73.1215 162.279 73.1925 162.555H73.6099C73.5345 162.07 73.1526 161.76 72.6064 161.76C71.9713 161.76 71.5406 162.23 71.5406 162.91ZM74.9918 164.047C75.5291 164.047 75.8933 163.785 75.9998 163.318H75.6091C75.538 163.567 75.3248 163.7 75.0007 163.7C74.5877 163.7 74.3479 163.447 74.3168 162.99L75.9954 162.985V162.83C75.9954 162.186 75.5913 161.76 74.974 161.76C74.3435 161.76 73.9127 162.23 73.9127 162.91C73.9127 163.585 74.3523 164.047 74.9918 164.047ZM74.974 162.11C75.3426 162.11 75.578 162.35 75.578 162.71H74.3257C74.379 162.328 74.6099 162.11 74.974 162.11Z" fill="#32C69A"/>
<path fill-rule="evenodd" clip-rule="evenodd" d="M260.433 142.935C260.548 142.818 260.735 142.817 260.852 142.931C260.968 143.046 260.97 143.234 260.855 143.35L259.192 145.038C259.098 145.134 259.098 145.288 259.192 145.384C259.281 145.475 259.43 145.475 259.518 145.384L261.576 143.293C261.876 142.987 261.876 142.494 261.576 142.188C261.289 141.895 260.782 141.902 260.501 142.188L258.255 144.468C257.748 144.986 257.748 145.816 258.255 146.334C258.748 146.836 259.593 146.828 260.078 146.333L262.49 143.884C262.605 143.767 262.792 143.766 262.909 143.88C263.025 143.995 263.027 144.182 262.912 144.299L260.501 146.748C259.786 147.477 258.559 147.489 257.832 146.748C257.099 146.001 257.099 144.801 257.833 144.053L260.079 141.773C260.589 141.253 261.478 141.241 261.999 141.773C262.525 142.31 262.525 143.171 261.998 143.708L259.942 145.797C259.624 146.126 259.091 146.127 258.769 145.799C258.45 145.473 258.45 144.95 258.77 144.624L260.433 142.935Z" fill="#93A5B1"/>
<mask id="mask1_965_8983" style="mask-type:luminance" maskUnits="userSpaceOnUse" x="257" y="141" width="6" height="7">
<path fill-rule="evenodd" clip-rule="evenodd" d="M260.433 142.935C260.548 142.818 260.735 142.817 260.852 142.931C260.968 143.046 260.97 143.234 260.855 143.35L259.192 145.038C259.098 145.134 259.098 145.288 259.192 145.384C259.281 145.475 259.43 145.475 259.518 145.384L261.576 143.293C261.876 142.987 261.876 142.494 261.576 142.188C261.289 141.895 260.782 141.902 260.501 142.188L258.255 144.468C257.748 144.986 257.748 145.816 258.255 146.334C258.748 146.836 259.593 146.828 260.078 146.333L262.49 143.884C262.605 143.767 262.792 143.766 262.909 143.88C263.025 143.995 263.027 144.182 262.912 144.299L260.501 146.748C259.786 147.477 258.559 147.489 257.832 146.748C257.099 146.001 257.099 144.801 257.833 144.053L260.079 141.773C260.589 141.253 261.478 141.241 261.999 141.773C262.525 142.31 262.525 143.171 261.998 143.708L259.942 145.797C259.624 146.126 259.091 146.127 258.769 145.799C258.45 145.473 258.45 144.95 258.77 144.624L260.433 142.935Z" fill="white"/>
</mask>
<g mask="url(#mask1_965_8983)">
</g>
<path d="M193.851 144.628C193.851 145.627 194.344 146.288 195.174 146.288C196 146.288 196.493 145.627 196.493 144.628C196.493 143.633 195.978 142.958 195.174 142.958C194.366 142.958 193.851 143.633 193.851 144.628ZM194.282 144.628C194.282 143.828 194.61 143.349 195.174 143.349C195.738 143.349 196.062 143.828 196.062 144.628C196.062 145.418 195.738 145.898 195.174 145.898C194.61 145.898 194.282 145.418 194.282 144.628ZM197.143 146.284C197.312 146.284 197.458 146.142 197.458 145.973C197.458 145.8 197.312 145.658 197.143 145.658C196.97 145.658 196.823 145.8 196.823 145.973C196.823 146.142 196.97 146.284 197.143 146.284ZM197.793 144.628C197.793 145.627 198.286 146.288 199.116 146.288C199.942 146.288 200.435 145.627 200.435 144.628C200.435 143.633 199.92 142.958 199.116 142.958C198.308 142.958 197.793 143.633 197.793 144.628ZM198.224 144.628C198.224 143.828 198.552 143.349 199.116 143.349C199.68 143.349 200.004 143.828 200.004 144.628C200.004 145.418 199.68 145.898 199.116 145.898C198.552 145.898 198.224 145.418 198.224 144.628ZM200.872 144.628C200.872 145.627 201.365 146.288 202.195 146.288C203.021 146.288 203.514 145.627 203.514 144.628C203.514 143.633 202.999 142.958 202.195 142.958C201.387 142.958 200.872 143.633 200.872 144.628ZM201.303 144.628C201.303 143.828 201.631 143.349 202.195 143.349C202.759 143.349 203.083 143.828 203.083 144.628C203.083 145.418 202.759 145.898 202.195 145.898C201.631 145.898 201.303 145.418 201.303 144.628Z" fill="#A7B5BF"/>
<path d="M232.872 146.617H233.205V142.718H232.872V146.617ZM235.157 143.886C235.157 144.348 235.428 144.65 235.952 144.77L236.481 144.89C236.787 144.961 236.925 145.12 236.925 145.374C236.925 145.693 236.654 145.893 236.227 145.893C235.823 145.893 235.566 145.698 235.557 145.391H235.113C235.139 145.942 235.575 146.284 236.227 146.284C236.911 146.284 237.36 145.915 237.36 145.338C237.36 144.885 237.093 144.601 236.569 144.481L236.041 144.357C235.739 144.286 235.592 144.13 235.592 143.873C235.592 143.557 235.854 143.353 236.259 143.353C236.618 143.353 236.845 143.54 236.867 143.859H237.307C237.271 143.304 236.876 142.962 236.263 142.962C235.601 142.962 235.157 143.335 235.157 143.886ZM238.04 146.231L238.324 145.431H239.674L239.963 146.231H240.42L239.243 143.02H238.759L237.587 146.231H238.04ZM238.946 143.713C238.968 143.646 238.99 143.571 238.999 143.526C239.008 143.575 239.03 143.651 239.052 143.713L239.545 145.054H238.457L238.946 143.713ZM241.282 146.231V144.961H242.104L242.703 146.231H243.187L242.534 144.876C242.934 144.747 243.156 144.428 243.156 143.984C243.156 143.384 242.747 143.02 242.059 143.02H240.847V146.231H241.282ZM241.282 143.411H242.059C242.459 143.411 242.699 143.615 242.699 143.988C242.699 144.357 242.468 144.574 242.064 144.574H241.282V143.411Z" fill="#A7B5BF"/>
<rect x="190.192" y="139.121" width="62.8356" height="10.4356" rx="1.22119" stroke="#D4DBE0" stroke-width="0.222034"/>
<path fill-rule="evenodd" clip-rule="evenodd" d="M248.785 143.747C248.842 143.689 248.936 143.689 248.994 143.747C249.052 143.805 249.052 143.898 248.994 143.956L247.81 145.14L246.626 143.956C246.568 143.898 246.568 143.805 246.626 143.747C246.683 143.689 246.777 143.689 246.835 143.747L247.81 144.722L248.785 143.747Z" fill="#93A5B1"/>
<mask id="mask2_965_8983" style="mask-type:luminance" maskUnits="userSpaceOnUse" x="246" y="143" width="4" height="3">
<path fill-rule="evenodd" clip-rule="evenodd" d="M248.785 143.747C248.842 143.689 248.936 143.689 248.994 143.747C249.052 143.805 249.052 143.898 248.994 143.956L247.81 145.14L246.626 143.956C246.568 143.898 246.568 143.805 246.626 143.747C246.683 143.689 246.777 143.689 246.835 143.747L247.81 144.722L248.785 143.747Z" fill="white"/>
</mask>
<g mask="url(#mask2_965_8983)">
</g>
<path fill-rule="evenodd" clip-rule="evenodd" d="M41.1704 172.759C41.1704 172.596 41.0379 172.463 40.8744 172.463H35.5456C35.3821 172.463 35.2495 172.596 35.2495 172.759C35.2495 172.923 35.3821 173.055 35.5456 173.055H40.8744C41.0379 173.055 41.1704 172.923 41.1704 172.759ZM39.0982 173.647C39.2618 173.647 39.3943 173.78 39.3943 173.943C39.3943 174.107 39.2618 174.24 39.0982 174.24H35.5457C35.3822 174.24 35.2497 174.107 35.2497 173.943C35.2497 173.78 35.3822 173.647 35.5457 173.647H39.0982ZM41.1706 175.128C41.1706 174.964 41.038 174.832 40.8745 174.832H35.5457C35.3822 174.832 35.2497 174.964 35.2497 175.128C35.2497 175.291 35.3822 175.424 35.5457 175.424H40.8745C41.038 175.424 41.1706 175.291 41.1706 175.128ZM39.3943 176.312C39.3943 176.148 39.2618 176.016 39.0982 176.016H35.5457C35.3822 176.016 35.2497 176.148 35.2497 176.312C35.2497 176.475 35.3822 176.608 35.5457 176.608H39.0982C39.2618 176.608 39.3943 176.475 39.3943 176.312Z" fill="#93A5B1"/>
<path d="M48.4993 173.705H49.4496V176.427H50.018V173.705H50.9683V173.181H48.4993V173.705ZM50.9368 177.444C51.0567 177.475 51.1899 177.493 51.3409 177.493C51.7006 177.493 51.9315 177.324 52.0958 176.916L53.1705 174.233H52.6109L52.0159 175.832L51.4519 174.233H50.8791L51.7628 176.52L51.7006 176.685C51.6073 176.942 51.4741 176.991 51.261 176.991H50.9368V177.444ZM53.4782 177.444H54.0199V176.134C54.1576 176.356 54.4418 176.485 54.7704 176.485C55.4232 176.485 55.7962 175.987 55.7962 175.304C55.7962 174.615 55.3877 174.167 54.7704 174.167C54.4374 174.167 54.1487 174.313 54.0155 174.566L53.98 174.233H53.4782V177.444ZM54.0244 175.33C54.0244 174.935 54.2686 174.66 54.6416 174.66C55.0235 174.66 55.25 174.939 55.25 175.33C55.25 175.721 55.0235 175.996 54.6416 175.996C54.2686 175.996 54.0244 175.725 54.0244 175.33ZM57.209 176.485C57.7818 176.485 58.1815 176.196 58.2747 175.717H57.7729C57.7108 175.925 57.5154 176.041 57.2179 176.041C56.8582 176.041 56.6539 175.845 56.6139 175.459L58.2659 175.455V175.29C58.2659 174.606 57.8484 174.167 57.1912 174.167C56.5473 174.167 56.0988 174.642 56.0988 175.33C56.0988 176.01 56.5562 176.485 57.209 176.485ZM57.1957 174.611C57.5198 174.611 57.7285 174.811 57.7285 175.113H56.6273C56.6805 174.784 56.8759 174.611 57.1957 174.611ZM60.5491 176.485C60.8911 176.485 61.1886 176.329 61.2818 176.103L61.3218 176.427H61.797V175.095C61.797 174.487 61.4328 174.167 60.8422 174.167C60.2472 174.167 59.8564 174.478 59.8564 174.953H60.3182C60.3182 174.722 60.4958 174.589 60.8156 174.589C61.0909 174.589 61.2685 174.709 61.2685 175.006V175.055L60.6113 175.104C60.0917 175.144 59.7987 175.397 59.7987 175.801C59.7987 176.214 60.0829 176.485 60.5491 176.485ZM60.7268 176.076C60.4825 176.076 60.3493 175.979 60.3493 175.779C60.3493 175.601 60.4781 175.49 60.8156 175.459L61.273 175.424V175.539C61.273 175.876 61.0598 176.076 60.7268 176.076ZM64.1567 176.427V175.264C64.1567 174.86 64.1522 174.553 64.1211 174.358L64.9427 176.427H65.4667L66.2926 174.353C66.2615 174.584 66.2615 174.775 66.2615 175.428V176.427H66.8122V173.181H66.2527L65.2047 175.765L64.1567 173.181H63.606V176.427H64.1567ZM68.4321 176.485C69.0049 176.485 69.4046 176.196 69.4979 175.717H68.9961C68.9339 175.925 68.7385 176.041 68.441 176.041C68.0813 176.041 67.877 175.845 67.837 175.459L69.489 175.455V175.29C69.489 174.606 69.0716 174.167 68.4143 174.167C67.7704 174.167 67.3219 174.642 67.3219 175.33C67.3219 176.01 67.7793 176.485 68.4321 176.485ZM68.4188 174.611C68.7429 174.611 68.9517 174.811 68.9517 175.113H67.8504C67.9037 174.784 68.099 174.611 68.4188 174.611ZM69.7538 175.761C69.7538 176.192 70.1002 176.485 70.6464 176.485C71.1882 176.485 71.5656 176.21 71.5656 175.765C71.5656 175.428 71.3791 175.259 71.0105 175.175L70.6153 175.082C70.4288 175.037 70.3311 174.957 70.3311 174.833C70.3311 174.669 70.4555 174.571 70.6686 174.571C70.8773 174.571 71.0017 174.691 71.0061 174.877H71.5212C71.5168 174.451 71.1837 174.167 70.6908 174.167C70.1846 174.167 69.8204 174.424 69.8204 174.855C69.8204 175.206 70.0114 175.392 70.4066 175.481L70.8018 175.575C70.9972 175.619 71.0549 175.699 71.0549 175.81C71.0549 175.97 70.9173 176.072 70.6642 176.072C70.4155 176.072 70.2734 175.952 70.2689 175.761H69.7538ZM71.8094 175.761C71.8094 176.192 72.1557 176.485 72.702 176.485C73.2437 176.485 73.6212 176.21 73.6212 175.765C73.6212 175.428 73.4347 175.259 73.0661 175.175L72.6709 175.082C72.4844 175.037 72.3867 174.957 72.3867 174.833C72.3867 174.669 72.511 174.571 72.7242 174.571C72.9329 174.571 73.0572 174.691 73.0616 174.877H73.5768C73.5723 174.451 73.2393 174.167 72.7464 174.167C72.2401 174.167 71.876 174.424 71.876 174.855C71.876 175.206 72.0669 175.392 72.4622 175.481L72.8574 175.575C73.0528 175.619 73.1105 175.699 73.1105 175.81C73.1105 175.97 72.9728 176.072 72.7197 176.072C72.471 176.072 72.3289 175.952 72.3245 175.761H71.8094ZM74.6864 176.485C75.0284 176.485 75.3259 176.329 75.4192 176.103L75.4591 176.427H75.9343V175.095C75.9343 174.487 75.5701 174.167 74.9795 174.167C74.3845 174.167 73.9937 174.478 73.9937 174.953H74.4555C74.4555 174.722 74.6332 174.589 74.9529 174.589C75.2282 174.589 75.4058 174.709 75.4058 175.006V175.055L74.7486 175.104C74.2291 175.144 73.936 175.397 73.936 175.801C73.936 176.214 74.2202 176.485 74.6864 176.485ZM74.8641 176.076C74.6198 176.076 74.4866 175.979 74.4866 175.779C74.4866 175.601 74.6154 175.49 74.9529 175.459L75.4103 175.424V175.539C75.4103 175.876 75.1971 176.076 74.8641 176.076ZM76.3422 175.281C76.3422 175.916 76.7507 176.383 77.3724 176.383C77.6877 176.383 77.9586 176.254 78.0962 176.05V176.414C78.0962 176.778 77.8564 177.013 77.4834 177.013C77.1504 177.013 76.9328 176.845 76.8972 176.56H76.3555C76.4221 177.147 76.8528 177.506 77.4834 177.506C78.1939 177.506 78.6336 177.049 78.6336 176.316V174.233H78.1318L78.1007 174.535C77.9719 174.3 77.7143 174.162 77.3857 174.162C76.7596 174.162 76.3422 174.642 76.3422 175.281ZM76.8884 175.268C76.8884 174.908 77.1193 174.638 77.479 174.638C77.8564 174.638 78.0829 174.895 78.0829 175.268C78.0829 175.65 77.852 175.912 77.479 175.912C77.1237 175.912 76.8884 175.637 76.8884 175.268ZM80.1756 176.485C80.7485 176.485 81.1481 176.196 81.2414 175.717H80.7396C80.6774 175.925 80.482 176.041 80.1845 176.041C79.8248 176.041 79.6205 175.845 79.5806 175.459L81.2325 175.455V175.29C81.2325 174.606 80.8151 174.167 80.1579 174.167C79.514 174.167 79.0654 174.642 79.0654 175.33C79.0654 176.01 79.5228 176.485 80.1756 176.485ZM80.1623 174.611C80.4865 174.611 80.6952 174.811 80.6952 175.113H79.5939C79.6472 174.784 79.8426 174.611 80.1623 174.611ZM82.7342 175.326C82.7342 176.01 83.2271 176.48 83.9065 176.48C84.586 176.48 85.0789 176.01 85.0789 175.326C85.0789 174.642 84.586 174.171 83.9065 174.171C83.2271 174.171 82.7342 174.642 82.7342 175.326ZM83.276 175.326C83.276 174.926 83.5335 174.655 83.9065 174.655C84.2796 174.655 84.5371 174.926 84.5371 175.326C84.5371 175.725 84.2796 175.996 83.9065 175.996C83.5335 175.996 83.276 175.725 83.276 175.326ZM86.8849 174.225C86.7961 174.202 86.7206 174.193 86.6451 174.193C86.352 174.193 86.1433 174.34 86.0501 174.558L86.019 174.238H85.5083V176.427H86.0501V175.361C86.0501 174.935 86.2943 174.726 86.6851 174.726H86.8849V174.225ZM89.1946 176.427V174.686H89.6209V174.233H89.1946V173.55H88.6528V174.233H88.2309V174.686H88.6528V176.427H89.1946ZM89.7667 177.444C89.8866 177.475 90.0198 177.493 90.1708 177.493C90.5305 177.493 90.7614 177.324 90.9257 176.916L92.0004 174.233H91.4409L90.8458 175.832L90.2818 174.233H89.709L90.5927 176.52L90.5305 176.685C90.4373 176.942 90.304 176.991 90.0909 176.991H89.7667V177.444ZM92.3081 177.444H92.8499V176.134C92.9875 176.356 93.2717 176.485 93.6003 176.485C94.2531 176.485 94.6261 175.987 94.6261 175.304C94.6261 174.615 94.2176 174.167 93.6003 174.167C93.2673 174.167 92.9786 174.313 92.8454 174.566L92.8099 174.233H92.3081V177.444ZM92.8543 175.33C92.8543 174.935 93.0985 174.66 93.4716 174.66C93.8535 174.66 94.0799 174.939 94.0799 175.33C94.0799 175.721 93.8535 175.996 93.4716 175.996C93.0985 175.996 92.8543 175.725 92.8543 175.33ZM96.0389 176.485C96.6117 176.485 97.0114 176.196 97.1047 175.717H96.6029C96.5407 175.925 96.3453 176.041 96.0478 176.041C95.6881 176.041 95.4838 175.845 95.4438 175.459L97.0958 175.455V175.29C97.0958 174.606 96.6784 174.167 96.0211 174.167C95.3772 174.167 94.9287 174.642 94.9287 175.33C94.9287 176.01 95.3861 176.485 96.0389 176.485ZM96.0256 174.611C96.3497 174.611 96.5585 174.811 96.5585 175.113H95.4572C95.5105 174.784 95.7058 174.611 96.0256 174.611ZM99.4146 173.927C99.4146 173.736 99.2902 173.621 99.1304 173.621C99.0815 173.621 99.0416 173.629 99.006 173.643C99.006 173.487 99.1393 173.367 99.3302 173.332V173.119C98.9749 173.163 98.7263 173.452 98.7263 173.825C98.7263 174.091 98.8773 174.26 99.086 174.26C99.2814 174.26 99.4146 174.122 99.4146 173.927ZM100.294 173.927C100.294 173.736 100.165 173.621 100.005 173.621C99.9563 173.621 99.9164 173.629 99.8808 173.647C99.8808 173.487 100.019 173.367 100.209 173.332V173.119C99.8542 173.163 99.6055 173.452 99.6055 173.825C99.6055 174.091 99.7565 174.26 99.9652 174.26C100.161 174.26 100.294 174.122 100.294 173.927ZM101.735 175.428C101.735 175.814 102.006 176.05 102.454 176.05C102.774 176.05 103.063 175.894 103.151 175.672C103.214 175.916 103.409 176.05 103.715 176.05C104.226 176.05 104.555 175.601 104.555 174.917C104.555 173.878 103.769 173.123 102.685 173.123C101.597 173.123 100.78 173.936 100.78 175.024C100.78 176.116 101.593 176.929 102.685 176.929C103.08 176.929 103.453 176.813 103.764 176.591L103.609 176.289C103.329 176.485 103.005 176.596 102.685 176.596C101.797 176.596 101.14 175.925 101.14 175.024C101.14 174.127 101.797 173.456 102.685 173.456C103.569 173.456 104.195 174.065 104.195 174.917C104.195 175.397 104.031 175.721 103.786 175.721C103.636 175.721 103.56 175.641 103.56 175.472V174.784C103.56 174.247 103.245 173.94 102.69 173.94C102.143 173.94 101.793 174.225 101.793 174.655H102.21C102.21 174.442 102.374 174.322 102.667 174.322C102.938 174.322 103.08 174.451 103.08 174.704V174.749L102.481 174.797C101.992 174.833 101.735 175.073 101.735 175.428ZM102.237 175.41C102.237 175.237 102.361 175.148 102.663 175.122L103.085 175.086V175.193C103.085 175.495 102.894 175.677 102.583 175.677C102.352 175.677 102.237 175.588 102.237 175.41ZM105.733 173.554C105.733 173.288 105.582 173.119 105.373 173.119C105.178 173.119 105.045 173.256 105.045 173.452C105.045 173.647 105.173 173.758 105.333 173.758C105.382 173.758 105.422 173.749 105.458 173.736C105.458 173.891 105.32 174.011 105.129 174.047V174.26C105.484 174.216 105.733 173.927 105.733 173.554ZM106.612 173.554C106.612 173.288 106.461 173.119 106.253 173.119C106.057 173.119 105.924 173.256 105.924 173.452C105.924 173.647 106.048 173.758 106.208 173.758C106.257 173.758 106.297 173.749 106.332 173.736C106.332 173.891 106.199 174.011 106.008 174.047V174.26C106.364 174.216 106.612 173.927 106.612 173.554ZM107.117 176.48C107.313 176.48 107.477 176.321 107.477 176.13C107.477 175.934 107.313 175.774 107.117 175.774C106.922 175.774 106.758 175.934 106.758 176.13C106.758 176.321 106.922 176.48 107.117 176.48ZM108.41 176.48C108.605 176.48 108.769 176.321 108.769 176.13C108.769 175.934 108.605 175.774 108.41 175.774C108.214 175.774 108.05 175.934 108.05 176.13C108.05 176.321 108.214 176.48 108.41 176.48ZM109.702 176.48C109.897 176.48 110.062 176.321 110.062 176.13C110.062 175.934 109.897 175.774 109.702 175.774C109.507 175.774 109.342 175.934 109.342 176.13C109.342 176.321 109.507 176.48 109.702 176.48Z" fill="#BEC9D0"/>
<rect x="44.9821" y="169.318" width="219.592" height="28.6424" rx="1.22119" stroke="#D4DBE0" stroke-width="0.222034"/>
<line x1="45.3154" y1="153.998" x2="264.685" y2="153.997" stroke="#BEC9D0" stroke-width="0.222034"/>
</g>
<defs>
<filter id="filter0_dd_965_8983" x="20" y="20" width="270" height="217.156" filterUnits="userSpaceOnUse" color-interpolation-filters="sRGB">
<feFlood flood-opacity="0" result="BackgroundImageFix"/>
<feColorMatrix in="SourceAlpha" type="matrix" values="0 0 0 0 0 0 0 0 0 0 0 0 0 0 0 0 0 0 127 0" result="hardAlpha"/>
<feOffset dy="4"/>
<feGaussianBlur stdDeviation="2"/>
<feComposite in2="hardAlpha" operator="out"/>
<feColorMatrix type="matrix" values="0 0 0 0 0 0 0 0 0 0 0 0 0 0 0 0 0 0 0.25 0"/>
<feBlend mode="normal" in2="BackgroundImageFix" result="effect1_dropShadow_965_8983"/>
<feColorMatrix in="SourceAlpha" type="matrix" values="0 0 0 0 0 0 0 0 0 0 0 0 0 0 0 0 0 0 127 0" result="hardAlpha"/>
<feOffset dy="4"/>
<feGaussianBlur stdDeviation="2"/>
<feComposite in2="hardAlpha" operator="out"/>
<feColorMatrix type="matrix" values="0 0 0 0 0 0 0 0 0 0 0 0 0 0 0 0 0 0 0.25 0"/>
<feBlend mode="normal" in2="effect1_dropShadow_965_8983" result="effect2_dropShadow_965_8983"/>
<feBlend mode="normal" in="SourceGraphic" in2="effect2_dropShadow_965_8983" result="shape"/>
</filter>
<filter id="filter1_ddd_965_8983" x="0.0203393" y="0.0169494" width="309.959" height="258.003" filterUnits="userSpaceOnUse" color-interpolation-filters="sRGB">
<feFlood flood-opacity="0" result="BackgroundImageFix"/>
<feColorMatrix in="SourceAlpha" type="matrix" values="0 0 0 0 0 0 0 0 0 0 0 0 0 0 0 0 0 0 127 0" result="hardAlpha"/>
<feMorphology radius="3.10847" operator="erode" in="SourceAlpha" result="effect1_dropShadow_965_8983"/>
<feOffset dy="4.88475"/>
<feGaussianBlur stdDeviation="3.33051"/>
<feColorMatrix type="matrix" values="0 0 0 0 0.364706 0 0 0 0 0.447059 0 0 0 0 0.54902 0 0 0 0.16 0"/>
<feBlend mode="normal" in2="BackgroundImageFix" result="effect1_dropShadow_965_8983"/>
<feColorMatrix in="SourceAlpha" type="matrix" values="0 0 0 0 0 0 0 0 0 0 0 0 0 0 0 0 0 0 127 0" result="hardAlpha"/>
<feMorphology radius="3.55254" operator="dilate" in="SourceAlpha" result="effect2_dropShadow_965_8983"/>
<feOffset dy="3.99661"/>
<feGaussianBlur stdDeviation="10.2136"/>
<feColorMatrix type="matrix" values="0 0 0 0 0.364706 0 0 0 0 0.447059 0 0 0 0 0.54902 0 0 0 0.08 0"/>
<feBlend mode="normal" in2="effect1_dropShadow_965_8983" result="effect2_dropShadow_965_8983"/>
<feColorMatrix in="SourceAlpha" type="matrix" values="0 0 0 0 0 0 0 0 0 0 0 0 0 0 0 0 0 0 127 0" result="hardAlpha"/>
<feMorphology radius="1.3322" operator="dilate" in="SourceAlpha" result="effect3_dropShadow_965_8983"/>
<feOffset dy="10.6576"/>
<feGaussianBlur stdDeviation="8.43729"/>
<feColorMatrix type="matrix" values="0 0 0 0 0.364706 0 0 0 0 0.447059 0 0 0 0 0.54902 0 0 0 0.1 0"/>
<feBlend mode="normal" in2="effect2_dropShadow_965_8983" result="effect3_dropShadow_965_8983"/>
<feBlend mode="normal" in="SourceGraphic" in2="effect3_dropShadow_965_8983" result="shape"/>
</filter>
<filter id="filter2_ddd_965_8983" x="5.34895" y="5.34581" width="299.302" height="247.346" filterUnits="userSpaceOnUse" color-interpolation-filters="sRGB">
<feFlood flood-opacity="0" result="BackgroundImageFix"/>
<feColorMatrix in="SourceAlpha" type="matrix" values="0 0 0 0 0 0 0 0 0 0 0 0 0 0 0 0 0 0 127 0" result="hardAlpha"/>
<feMorphology radius="3.10847" operator="erode" in="SourceAlpha" result="effect1_dropShadow_965_8983"/>
<feOffset dy="4.88475"/>
<feGaussianBlur stdDeviation="3.33051"/>
<feColorMatrix type="matrix" values="0 0 0 0 0.364706 0 0 0 0 0.447059 0 0 0 0 0.54902 0 0 0 0.16 0"/>
<feBlend mode="normal" in2="BackgroundImageFix" result="effect1_dropShadow_965_8983"/>
<feColorMatrix in="SourceAlpha" type="matrix" values="0 0 0 0 0 0 0 0 0 0 0 0 0 0 0 0 0 0 127 0" result="hardAlpha"/>
<feMorphology radius="3.55254" operator="dilate" in="SourceAlpha" result="effect2_dropShadow_965_8983"/>
<feOffset dy="3.99661"/>
<feGaussianBlur stdDeviation="10.2136"/>
<feColorMatrix type="matrix" values="0 0 0 0 0.364706 0 0 0 0 0.447059 0 0 0 0 0.54902 0 0 0 0.08 0"/>
<feBlend mode="normal" in2="effect1_dropShadow_965_8983" result="effect2_dropShadow_965_8983"/>
<feColorMatrix in="SourceAlpha" type="matrix" values="0 0 0 0 0 0 0 0 0 0 0 0 0 0 0 0 0 0 127 0" result="hardAlpha"/>
<feMorphology radius="1.3322" operator="dilate" in="SourceAlpha" result="effect3_dropShadow_965_8983"/>
<feOffset dy="10.6576"/>
<feGaussianBlur stdDeviation="8.43729"/>
<feColorMatrix type="matrix" values="0 0 0 0 0.364706 0 0 0 0 0.447059 0 0 0 0 0.54902 0 0 0 0.1 0"/>
<feBlend mode="normal" in2="effect2_dropShadow_965_8983" result="effect3_dropShadow_965_8983"/>
<feBlend mode="normal" in="SourceGraphic" in2="effect3_dropShadow_965_8983" result="shape"/>
</filter>
<filter id="filter3_ddd_965_8983" x="24.8879" y="95.0475" width="260.224" height="133.664" filterUnits="userSpaceOnUse" color-interpolation-filters="sRGB">
<feFlood flood-opacity="0" result="BackgroundImageFix"/>
<feColorMatrix in="SourceAlpha" type="matrix" values="0 0 0 0 0 0 0 0 0 0 0 0 0 0 0 0 0 0 127 0" result="hardAlpha"/>
<feMorphology radius="0.444068" operator="erode" in="SourceAlpha" result="effect1_dropShadow_965_8983"/>
<feOffset dy="0.888136"/>
<feGaussianBlur stdDeviation="0.888136"/>
<feColorMatrix type="matrix" values="0 0 0 0 0.364706 0 0 0 0 0.447059 0 0 0 0 0.54902 0 0 0 0.16 0"/>
<feBlend mode="normal" in2="BackgroundImageFix" result="effect1_dropShadow_965_8983"/>
<feColorMatrix in="SourceAlpha" type="matrix" values="0 0 0 0 0 0 0 0 0 0 0 0 0 0 0 0 0 0 127 0" result="hardAlpha"/>
<feOffset dy="0.444068"/>
<feGaussianBlur stdDeviation="2.22034"/>
<feColorMatrix type="matrix" values="0 0 0 0 0.364706 0 0 0 0 0.447059 0 0 0 0 0.54902 0 0 0 0.08 0"/>
<feBlend mode="normal" in2="effect1_dropShadow_965_8983" result="effect2_dropShadow_965_8983"/>
<feColorMatrix in="SourceAlpha" type="matrix" values="0 0 0 0 0 0 0 0 0 0 0 0 0 0 0 0 0 0 127 0" result="hardAlpha"/>
<feOffset dy="1.77627"/>
<feGaussianBlur stdDeviation="1.11017"/>
<feColorMatrix type="matrix" values="0 0 0 0 0.364706 0 0 0 0 0.447059 0 0 0 0 0.54902 0 0 0 0.1 0"/>
<feBlend mode="normal" in2="effect2_dropShadow_965_8983" result="effect3_dropShadow_965_8983"/>
<feBlend mode="normal" in="SourceGraphic" in2="effect3_dropShadow_965_8983" result="shape"/>
</filter>
<filter id="filter4_ddd_965_8983" x="87.0579" y="184.305" width="135.441" height="63.0577" filterUnits="userSpaceOnUse" color-interpolation-filters="sRGB">
<feFlood flood-opacity="0" result="BackgroundImageFix"/>
<feColorMatrix in="SourceAlpha" type="matrix" values="0 0 0 0 0 0 0 0 0 0 0 0 0 0 0 0 0 0 127 0" result="hardAlpha"/>
<feMorphology radius="3.10847" operator="erode" in="SourceAlpha" result="effect1_dropShadow_965_8983"/>
<feOffset dy="4.88475"/>
<feGaussianBlur stdDeviation="3.33051"/>
<feColorMatrix type="matrix" values="0 0 0 0 0.364706 0 0 0 0 0.447059 0 0 0 0 0.54902 0 0 0 0.16 0"/>
<feBlend mode="normal" in2="BackgroundImageFix" result="effect1_dropShadow_965_8983"/>
<feColorMatrix in="SourceAlpha" type="matrix" values="0 0 0 0 0 0 0 0 0 0 0 0 0 0 0 0 0 0 127 0" result="hardAlpha"/>
<feMorphology radius="3.55254" operator="dilate" in="SourceAlpha" result="effect2_dropShadow_965_8983"/>
<feOffset dy="3.99661"/>
<feGaussianBlur stdDeviation="10.2136"/>
<feColorMatrix type="matrix" values="0 0 0 0 0.364706 0 0 0 0 0.447059 0 0 0 0 0.54902 0 0 0 0.08 0"/>
<feBlend mode="normal" in2="effect1_dropShadow_965_8983" result="effect2_dropShadow_965_8983"/>
<feColorMatrix in="SourceAlpha" type="matrix" values="0 0 0 0 0 0 0 0 0 0 0 0 0 0 0 0 0 0 127 0" result="hardAlpha"/>
<feMorphology radius="1.3322" operator="dilate" in="SourceAlpha" result="effect3_dropShadow_965_8983"/>
<feOffset dy="10.6576"/>
<feGaussianBlur stdDeviation="8.43729"/>
<feColorMatrix type="matrix" values="0 0 0 0 0.364706 0 0 0 0 0.447059 0 0 0 0 0.54902 0 0 0 0.1 0"/>
<feBlend mode="normal" in2="effect2_dropShadow_965_8983" result="effect3_dropShadow_965_8983"/>
<feBlend mode="normal" in="SourceGraphic" in2="effect3_dropShadow_965_8983" result="shape"/>
</filter>
<radialGradient id="paint0_radial_965_8983" cx="0" cy="0" r="1" gradientUnits="userSpaceOnUse" gradientTransform="translate(155 110.053) rotate(-90) scale(94.7546 97.2091)">
<stop stop-color="#8479FF"/>
<stop offset="1" stop-color="white" stop-opacity="0"/>
</radialGradient>
</defs>
</svg>
