<svg width="620" height="517" viewBox="0 0 620 517" fill="none" xmlns="http://www.w3.org/2000/svg">
<path d="M8 435.783L8.00001 305.217C8.00001 270.51 36.5338 242 71.2706 242L549.729 242C584.466 242 613 270.51 613 305.217L613 435.783C613 470.49 584.466 499 549.729 499L71.6842 499C36.5338 499 8 470.49 8 435.783Z" fill="#EB9A2F"/>
<g filter="url(#filter0_ddd_1001_6789)">
<rect x="48" y="40" width="524" height="418.312" rx="22.2034" fill="white"/>
</g>
<g filter="url(#filter1_ddd_1001_6789)">
<rect x="58.6577" y="50.6577" width="502.685" height="396.997" rx="15.9864" fill="white"/>
</g>
<g filter="url(#filter2_ddd_1001_6789)">
<rect x="58.6577" y="198.088" width="502.685" height="249.566" rx="15.9864" fill="white"/>
</g>
<path d="M92.5754 214.259C93.3268 214.259 93.817 213.737 93.817 213.018C93.817 212.277 93.3321 211.781 92.5754 211.781H91.078V215.634H91.6002V214.259H92.5754ZM92.4848 212.25C92.975 212.25 93.2681 212.527 93.2681 213.012C93.2681 213.487 92.9804 213.79 92.4635 213.79H91.6002V212.25H92.4848ZM94.3862 215.634L94.7273 214.675H96.3472L96.6936 215.634H97.2425L95.8303 211.781H95.2495L93.8427 215.634H94.3862ZM95.4733 212.613C95.4999 212.533 95.5266 212.442 95.5373 212.389C95.5479 212.447 95.5746 212.538 95.6012 212.613L96.1927 214.222H94.8871L95.4733 212.613ZM98.2808 214.067V215.634H98.803V214.067L100.098 211.781H99.5277L98.6751 213.321C98.6058 213.449 98.5952 213.481 98.5472 213.577C98.5046 213.487 98.4726 213.412 98.4193 213.321L97.5614 211.781H96.9752L98.2808 214.067ZM101.113 215.634V213.987C101.113 213.449 101.102 213.055 101.075 212.868L102.194 215.634H102.685L103.809 212.858C103.782 213.129 103.777 213.391 103.777 214.11V215.634H104.289V211.781H103.766L102.44 215.021L101.113 211.781H100.601V215.634H101.113ZM107.536 215.634V215.149H105.708V213.929H107.355V213.465H105.708V212.261H107.536V211.781H105.186V215.634H107.536ZM108.815 215.634V212.655L110.786 215.634H111.309V211.781H110.786V214.76L108.815 211.781H108.293V215.634H108.815ZM111.833 212.261H112.995V215.634H113.517V212.261H114.673V211.781H111.833V212.261ZM117.167 215.634V213.987C117.167 213.449 117.156 213.055 117.13 212.868L118.249 215.634H118.739L119.863 212.858C119.837 213.129 119.831 213.391 119.831 214.11V215.634H120.343V211.781H119.821L118.494 215.021L117.167 211.781H116.655V215.634H117.167ZM124.714 213.705C124.714 212.533 123.952 211.712 122.86 211.712C121.773 211.712 121.011 212.538 121.011 213.705C121.011 214.877 121.767 215.698 122.855 215.698C123.947 215.698 124.714 214.877 124.714 213.705ZM124.165 213.705C124.165 214.595 123.643 215.197 122.86 215.197C122.077 215.197 121.56 214.6 121.56 213.705C121.56 212.81 122.077 212.218 122.86 212.218C123.643 212.218 124.165 212.81 124.165 213.705ZM125.904 215.634V212.655L127.876 215.634H128.398V211.781H127.876V214.76L125.904 211.781H125.382V215.634H125.904ZM128.923 212.261H130.084V215.634H130.606V212.261H131.763V211.781H128.923V212.261ZM132.81 215.634V213.923H134.718V215.634H135.24V211.781H134.718V213.439H132.81V211.781H132.288V215.634H132.81ZM136.176 212.613C136.331 212.671 136.453 212.693 136.613 212.714C136.512 212.804 136.421 212.895 136.309 213.055L136.102 213.353L136.352 213.524L136.565 213.231C136.672 213.087 136.73 212.964 136.773 212.836C136.821 212.948 136.88 213.071 136.991 213.231L137.199 213.524L137.444 213.353L137.237 213.055C137.135 212.895 137.055 212.81 136.944 212.714C137.066 212.698 137.205 212.677 137.38 212.613L137.732 212.49L137.62 212.208L137.285 212.325C137.098 212.389 136.991 212.453 136.88 212.522C136.906 212.399 136.928 212.261 136.928 212.074V211.707H136.629V212.074C136.629 212.261 136.645 212.389 136.677 212.522C136.565 212.447 136.459 212.389 136.267 212.325L135.936 212.213L135.83 212.49L136.176 212.613Z" fill="#93A5B1"/>
<path d="M267.066 181.227V179.096H262.689V176.922H266.569V174.904H262.689V172.843H267.066V170.712H260.387V181.227H267.066ZM270.484 181.227L271.678 179.181L272.9 181.227H275.415L273.156 177.746L275.5 174.122H273.056L271.834 176.282L270.527 174.122H267.997L270.385 177.788L267.997 181.227H270.484ZM276.464 184.638H278.653V180.517C279.065 181.057 279.974 181.426 280.955 181.426C283.072 181.426 284.294 179.806 284.294 177.561C284.294 175.273 282.916 173.895 280.941 173.895C279.932 173.895 279.037 174.335 278.639 174.989L278.525 174.122H276.464V184.638ZM278.667 177.675C278.667 176.609 279.378 175.898 280.401 175.898C281.438 175.898 282.092 176.623 282.092 177.675C282.092 178.726 281.438 179.451 280.401 179.451C279.378 179.451 278.667 178.741 278.667 177.675ZM288.851 181.412C290.798 181.412 292.204 180.403 292.46 178.826H290.456C290.3 179.337 289.718 179.636 288.893 179.636C287.927 179.636 287.401 179.195 287.273 178.257L292.432 178.229V177.675C292.432 175.358 291.039 173.895 288.808 173.895C286.662 173.895 285.17 175.444 285.17 177.661C285.17 179.849 286.705 181.412 288.851 181.412ZM288.822 175.671C289.703 175.671 290.258 176.154 290.258 176.907H287.302C287.472 176.055 287.956 175.671 288.822 175.671ZM295.916 181.227V177.334C295.916 176.453 296.47 175.884 297.337 175.884C298.09 175.884 298.587 176.467 298.587 177.362V181.227H300.776V176.836C300.776 174.975 299.795 173.895 298.104 173.895C297.181 173.895 296.371 174.25 295.93 174.861L295.788 174.122H293.728V181.227H295.916ZM301.75 178.982C301.75 180.417 302.93 181.412 304.806 181.412C306.653 181.412 307.946 180.488 307.946 178.968C307.946 177.831 307.307 177.291 306.141 177.035L304.82 176.751C304.323 176.637 304.053 176.453 304.053 176.126C304.053 175.742 304.365 175.486 304.863 175.486C305.388 175.486 305.687 175.813 305.687 176.296H307.761C307.761 174.861 306.61 173.895 304.962 173.895C303.257 173.895 301.992 174.747 301.992 176.225C301.992 177.476 302.632 178.044 303.939 178.328L305.246 178.613C305.772 178.726 305.886 178.954 305.886 179.167C305.886 179.536 305.573 179.778 304.891 179.778C304.223 179.778 303.854 179.479 303.825 178.982H301.75ZM312.386 181.412C314.333 181.412 315.74 180.403 315.996 178.826H313.992C313.836 179.337 313.253 179.636 312.429 179.636C311.463 179.636 310.937 179.195 310.809 178.257L315.967 178.229V177.675C315.967 175.358 314.575 173.895 312.344 173.895C310.198 173.895 308.706 175.444 308.706 177.661C308.706 179.849 310.241 181.412 312.386 181.412ZM312.358 175.671C313.239 175.671 313.793 176.154 313.793 176.907H310.837C311.008 176.055 311.491 175.671 312.358 175.671ZM325.841 181.398C328.47 181.398 330.431 179.849 330.801 177.504H328.413C328.129 178.542 327.177 179.181 325.884 179.181C324.193 179.181 323.141 177.945 323.141 175.97C323.141 173.966 324.179 172.758 325.884 172.758C327.148 172.758 328.044 173.355 328.356 174.406H330.786C330.459 172.048 328.57 170.541 325.941 170.541C322.8 170.541 320.711 172.701 320.711 175.984C320.711 179.309 322.686 181.398 325.841 181.398ZM334.189 181.227V170.513H332.001V181.227H334.189ZM337.977 181.412C339.042 181.412 339.98 180.943 340.208 180.289L340.35 181.227H342.282V177.078C342.282 175.046 341.117 173.895 339.056 173.895C337.024 173.895 335.703 174.946 335.703 176.552H337.522C337.522 175.913 338.019 175.557 338.943 175.557C339.724 175.557 340.151 175.927 340.151 176.623V176.737L338.161 176.893C336.456 177.021 335.532 177.831 335.532 179.138C335.532 180.531 336.47 181.412 337.977 181.412ZM338.744 179.792C338.076 179.792 337.763 179.55 337.763 179.039C337.763 178.584 338.104 178.371 339.056 178.286L340.165 178.186V178.57C340.165 179.38 339.582 179.792 338.744 179.792ZM344.932 173.014C345.614 173.014 346.168 172.46 346.168 171.763C346.168 171.067 345.614 170.527 344.932 170.527C344.235 170.527 343.681 171.067 343.681 171.763C343.681 172.46 344.235 173.014 344.932 173.014ZM343.852 181.227H346.04V174.122H343.852V181.227ZM349.87 181.227V177.419C349.87 176.225 350.51 175.884 351.135 175.884C351.831 175.884 352.286 176.311 352.286 177.192V181.227H354.474V177.419C354.474 176.211 355.1 175.87 355.725 175.87C356.421 175.87 356.89 176.296 356.89 177.192V181.227H359.078V176.581C359.078 174.961 358.169 173.895 356.336 173.895C355.313 173.895 354.474 174.392 354.105 175.145C353.693 174.392 353.011 173.895 351.945 173.895C350.922 173.895 350.225 174.364 349.87 174.861L349.728 174.122H347.682V181.227H349.87Z" fill="#284B64"/>
<path d="M58.6577 66.6441C58.6577 57.8151 65.8151 50.6577 74.6442 50.6577H545.356C554.185 50.6577 561.342 57.8151 561.342 66.6442V138.583H58.6577V66.6441Z" fill="url(#paint0_radial_1001_6789)"/>
<circle cx="310" cy="132.366" r="25.7559" fill="#8479FF"/>
<path fill-rule="evenodd" clip-rule="evenodd" d="M302.895 127.629C302.895 126.975 303.425 126.445 304.079 126.445L313.553 126.445C314.207 126.445 314.737 126.975 314.737 127.629C314.737 128.284 314.207 128.814 313.553 128.814L304.079 128.814C303.425 128.814 302.895 128.284 302.895 127.629Z" fill="white"/>
<path fill-rule="evenodd" clip-rule="evenodd" d="M302.895 132.366C302.895 131.712 303.425 131.182 304.079 131.182L309.408 131.182C310.062 131.182 310.592 131.712 310.592 132.366C310.592 133.02 310.062 133.55 309.408 133.55L304.079 133.55C303.425 133.55 302.895 133.02 302.895 132.366Z" fill="white"/>
<path fill-rule="evenodd" clip-rule="evenodd" d="M302.895 137.103C302.895 136.449 303.425 135.919 304.079 135.919L309.408 135.919C310.062 135.919 310.592 136.449 310.592 137.103C310.592 137.757 310.062 138.287 309.408 138.287L304.079 138.287C303.425 138.287 302.895 137.757 302.895 137.103Z" fill="white"/>
<path d="M301.711 120.524C299.749 120.524 298.158 122.115 298.158 124.077V140.655C298.158 142.618 299.749 144.208 301.711 144.208H312.368L310 141.84H301.711C301.057 141.84 300.527 141.309 300.527 140.655V124.077C300.527 123.423 301.057 122.893 301.711 122.893H315.921C316.575 122.893 317.105 123.423 317.105 124.077V129.208L319.473 130.787V124.077C319.473 122.115 317.883 120.524 315.921 120.524H301.711Z" fill="white"/>
<path d="M315.921 127.629C311.954 127.629 308.816 129.739 308.816 132.395V140.628C308.816 143.307 311.93 145.392 315.921 145.392C319.912 145.392 323.026 143.295 323.026 140.626V132.49C323.002 129.739 319.888 127.629 315.921 127.629ZM320.658 140.853C320.658 141.889 318.645 143.045 315.921 143.045C313.197 143.045 311.184 141.853 311.184 140.853V140.602C311.184 140.58 311.189 140.557 311.199 140.538C311.21 140.519 311.226 140.501 311.245 140.489C311.264 140.477 311.286 140.469 311.308 140.468C311.331 140.467 311.353 140.472 311.373 140.483C312.784 141.163 314.311 141.484 315.897 141.484C317.471 141.484 319.057 141.164 320.468 140.483C320.488 140.472 320.51 140.467 320.532 140.468C320.555 140.469 320.577 140.477 320.596 140.489C320.605 140.494 320.614 140.502 320.621 140.51C320.637 140.526 320.644 140.549 320.649 140.571C320.654 140.592 320.657 140.613 320.657 140.634L320.658 140.853ZM320.658 136.755C320.658 137.791 318.645 138.947 315.921 138.947C313.197 138.947 311.184 137.755 311.184 136.755V136.505C311.184 136.482 311.189 136.459 311.199 136.44C311.21 136.42 311.226 136.403 311.245 136.391C311.264 136.379 311.286 136.372 311.308 136.371C311.331 136.37 311.353 136.374 311.373 136.385C312.784 137.065 314.311 137.386 315.897 137.386C317.471 137.386 319.057 137.067 320.468 136.385C320.488 136.374 320.51 136.37 320.532 136.371C320.555 136.372 320.577 136.379 320.596 136.391C320.61 136.4 320.623 136.412 320.633 136.426C320.639 136.435 320.643 136.446 320.645 136.456C320.653 136.489 320.657 136.522 320.657 136.555V136.755H320.658ZM315.921 134.735C313.221 134.735 311.184 133.491 311.184 132.395C311.184 131.299 313.197 129.999 315.921 129.999C318.645 129.999 320.658 131.287 320.658 132.395C320.658 133.503 318.621 134.735 315.921 134.735Z" fill="white"/>
<path d="M283.15 75.9583C284.706 75.9583 285.729 74.9032 285.729 73.4005C285.729 71.8764 284.717 70.8533 283.15 70.8533H280.07V78.644H281.434V75.9583H283.15ZM282.884 72.0683C283.789 72.0683 284.301 72.5372 284.301 73.3898C284.301 74.2424 283.8 74.7434 282.862 74.7434H281.434V72.0683H282.884ZM288.043 78.7826C288.864 78.7826 289.578 78.4096 289.802 77.866L289.898 78.644H291.038V75.4468C291.038 73.9867 290.164 73.2193 288.747 73.2193C287.319 73.2193 286.381 73.9653 286.381 75.1057H287.489C287.489 74.5515 287.915 74.2318 288.683 74.2318C289.344 74.2318 289.77 74.5195 289.77 75.2336V75.3508L288.193 75.4681C286.946 75.564 286.242 76.1715 286.242 77.1413C286.242 78.1325 286.924 78.7826 288.043 78.7826ZM288.47 77.8021C287.883 77.8021 287.564 77.5676 287.564 77.088C287.564 76.6617 287.873 76.3953 288.683 76.3207L289.781 76.2354V76.5125C289.781 77.3225 289.269 77.8021 288.47 77.8021ZM291.711 81.0846C291.999 81.1592 292.319 81.2019 292.681 81.2019C293.545 81.2019 294.099 80.7969 294.493 79.8164L297.072 73.3792H295.729L294.301 77.2159L292.948 73.3792H291.573L293.694 78.8679L293.545 79.2622C293.321 79.8803 293.001 79.9976 292.489 79.9976H291.711V81.0846ZM302.239 78.644V75.7345H303.913L305.234 78.644H306.726L305.245 75.4468C306.161 75.0737 306.652 74.3277 306.652 73.2833C306.652 71.7486 305.618 70.8533 303.849 70.8533H300.875V78.644H302.239ZM302.239 72.0683H303.849C304.712 72.0683 305.224 72.5052 305.224 73.2833C305.224 74.0719 304.712 74.5302 303.849 74.5302H302.239V72.0683ZM309.804 78.7826C311.179 78.7826 312.138 78.0898 312.362 76.9388H311.157C311.008 77.4397 310.539 77.7168 309.825 77.7168C308.962 77.7168 308.472 77.2479 308.376 76.3207L312.34 76.31V75.9157C312.34 74.2744 311.339 73.2193 309.761 73.2193C308.216 73.2193 307.139 74.3597 307.139 76.0116C307.139 77.6422 308.237 78.7826 309.804 78.7826ZM309.772 74.2851C310.55 74.2851 311.051 74.7647 311.051 75.4894H308.408C308.536 74.7007 309.004 74.2851 309.772 74.2851ZM313.072 75.9477C313.072 77.5889 313.967 78.7826 315.534 78.7826C316.312 78.7826 317.005 78.4735 317.335 77.9406V81.0846H318.624V73.3792H317.431L317.346 74.1785C317.026 73.571 316.333 73.2193 315.534 73.2193C314.052 73.2193 313.072 74.2957 313.072 75.9477ZM314.372 76.0116C314.372 75.0737 314.926 74.4023 315.832 74.4023C316.738 74.4023 317.324 75.0631 317.324 76.0116C317.324 76.9601 316.738 77.6103 315.832 77.6103C314.926 77.6103 314.372 76.9495 314.372 76.0116ZM323.55 73.3792V76.1395C323.55 77.1413 323.155 77.6209 322.335 77.6209C321.61 77.6209 321.216 77.2159 321.216 76.2141V73.3792H319.916V76.6724C319.916 77.962 320.63 78.7826 321.845 78.7826C322.548 78.7826 323.23 78.4415 323.55 77.9406L323.646 78.644H324.85V73.3792H323.55ZM328.444 78.7826C329.819 78.7826 330.778 78.0898 331.002 76.9388H329.798C329.649 77.4397 329.18 77.7168 328.466 77.7168C327.602 77.7168 327.112 77.2479 327.016 76.3207L330.981 76.31V75.9157C330.981 74.2744 329.979 73.2193 328.402 73.2193C326.856 73.2193 325.78 74.3597 325.78 76.0116C325.78 77.6422 326.878 78.7826 328.444 78.7826ZM328.412 74.2851C329.19 74.2851 329.691 74.7647 329.691 75.4894H327.048C327.176 74.7007 327.645 74.2851 328.412 74.2851ZM331.616 77.0454C331.616 78.0792 332.448 78.7826 333.759 78.7826C335.059 78.7826 335.965 78.1218 335.965 77.0561C335.965 76.2461 335.517 75.8411 334.632 75.6386L333.684 75.4148C333.236 75.3082 333.002 75.1164 333.002 74.818C333.002 74.4236 333.3 74.1892 333.812 74.1892C334.313 74.1892 334.611 74.4769 334.622 74.9245H335.858C335.847 73.9014 335.048 73.2193 333.865 73.2193C332.65 73.2193 331.776 73.8375 331.776 74.8712C331.776 75.7132 332.235 76.1608 333.183 76.374L334.132 76.5978C334.601 76.7044 334.739 76.8962 334.739 77.1626C334.739 77.5463 334.409 77.7914 333.801 77.7914C333.204 77.7914 332.863 77.5037 332.853 77.0454H331.616ZM338.745 78.644V74.4663H339.768V73.3792H338.745V71.7379H337.445V73.3792H336.432V74.4663H337.445V78.644H338.745Z" fill="#284B64"/>
<g filter="url(#filter3_ddd_1001_6789)">
<rect x="222.075" y="408.576" width="174.963" height="28.4203" rx="10.6576" fill="#1A938A"/>
</g>
<path d="M276.032 421.177C276.032 422.371 276.724 423.127 278.046 423.415L279.282 423.692C279.922 423.831 280.188 424.14 280.188 424.662C280.188 425.312 279.613 425.706 278.707 425.706C277.833 425.706 277.3 425.312 277.289 424.651H275.925C275.957 426.047 277.044 426.932 278.707 426.932C280.423 426.932 281.552 425.994 281.552 424.545C281.552 423.383 280.902 422.701 279.57 422.413L278.344 422.147C277.694 421.998 277.396 421.688 277.396 421.134C277.396 420.484 277.939 420.079 278.781 420.079C279.549 420.079 280.028 420.473 280.06 421.145H281.424C281.382 419.738 280.38 418.864 278.803 418.864C277.161 418.864 276.032 419.813 276.032 421.177ZM284.95 426.932C286.325 426.932 287.284 426.239 287.508 425.088H286.303C286.154 425.589 285.685 425.866 284.971 425.866C284.108 425.866 283.618 425.397 283.522 424.47L287.486 424.459V424.065C287.486 422.424 286.485 421.369 284.907 421.369C283.362 421.369 282.285 422.509 282.285 424.161C282.285 425.792 283.383 426.932 284.95 426.932ZM284.918 422.434C285.696 422.434 286.197 422.914 286.197 423.639H283.554C283.682 422.85 284.151 422.434 284.918 422.434ZM289.827 426.793V423.959C289.827 423.106 290.318 422.552 291.117 422.552C291.788 422.552 292.225 422.978 292.225 423.863V426.793H293.525V423.554C293.525 422.189 292.843 421.369 291.522 421.369C290.808 421.369 290.168 421.678 289.838 422.211L289.731 421.529H288.527V426.793H289.827ZM296.966 426.932C297.766 426.932 298.448 426.58 298.768 425.973L298.853 426.793H300.046V418.864H298.757V422.2C298.427 421.678 297.776 421.369 297.041 421.369C295.453 421.369 294.494 422.541 294.494 424.182C294.494 425.813 295.442 426.932 296.966 426.932ZM297.254 425.738C296.348 425.738 295.794 425.078 295.794 424.14C295.794 423.202 296.348 422.53 297.254 422.53C298.16 422.53 298.746 423.191 298.746 424.14C298.746 425.088 298.16 425.738 297.254 425.738ZM305.83 426.793V423.884H307.503L308.825 426.793H310.317L308.836 423.596C309.752 423.223 310.242 422.477 310.242 421.433C310.242 419.898 309.209 419.003 307.439 419.003H304.466V426.793H305.83ZM305.83 420.218H307.439C308.303 420.218 308.814 420.655 308.814 421.433C308.814 422.221 308.303 422.68 307.439 422.68H305.83V420.218ZM313.395 426.932C314.769 426.932 315.729 426.239 315.952 425.088H314.748C314.599 425.589 314.13 425.866 313.416 425.866C312.553 425.866 312.062 425.397 311.966 424.47L315.931 424.459V424.065C315.931 422.424 314.929 421.369 313.352 421.369C311.807 421.369 310.73 422.509 310.73 424.161C310.73 425.792 311.828 426.932 313.395 426.932ZM313.363 422.434C314.141 422.434 314.641 422.914 314.641 423.639H311.998C312.126 422.85 312.595 422.434 313.363 422.434ZM316.663 424.097C316.663 425.738 317.558 426.932 319.124 426.932C319.902 426.932 320.595 426.623 320.926 426.09V429.234H322.215V421.529H321.022L320.936 422.328C320.617 421.72 319.924 421.369 319.124 421.369C317.643 421.369 316.663 422.445 316.663 424.097ZM317.963 424.161C317.963 423.223 318.517 422.552 319.423 422.552C320.329 422.552 320.915 423.212 320.915 424.161C320.915 425.11 320.329 425.76 319.423 425.76C318.517 425.76 317.963 425.099 317.963 424.161ZM327.141 421.529V424.289C327.141 425.291 326.746 425.77 325.926 425.77C325.201 425.77 324.807 425.365 324.807 424.364V421.529H323.506V424.822C323.506 426.111 324.22 426.932 325.435 426.932C326.139 426.932 326.821 426.591 327.141 426.09L327.236 426.793H328.441V421.529H327.141ZM332.035 426.932C333.41 426.932 334.369 426.239 334.593 425.088H333.388C333.239 425.589 332.77 425.866 332.056 425.866C331.193 425.866 330.703 425.397 330.607 424.47L334.571 424.459V424.065C334.571 422.424 333.57 421.369 331.992 421.369C330.447 421.369 329.371 422.509 329.371 424.161C329.371 425.792 330.468 426.932 332.035 426.932ZM332.003 422.434C332.781 422.434 333.282 422.914 333.282 423.639H330.639C330.767 422.85 331.236 422.434 332.003 422.434ZM335.207 425.195C335.207 426.229 336.038 426.932 337.349 426.932C338.65 426.932 339.555 426.271 339.555 425.205C339.555 424.395 339.108 423.991 338.223 423.788L337.275 423.564C336.827 423.458 336.593 423.266 336.593 422.967C336.593 422.573 336.891 422.339 337.403 422.339C337.903 422.339 338.202 422.626 338.213 423.074H339.449C339.438 422.051 338.639 421.369 337.456 421.369C336.241 421.369 335.367 421.987 335.367 423.021C335.367 423.863 335.825 424.31 336.774 424.523L337.722 424.747C338.191 424.854 338.33 425.046 338.33 425.312C338.33 425.696 337.999 425.941 337.392 425.941C336.795 425.941 336.454 425.653 336.443 425.195H335.207ZM342.336 426.793V422.616H343.359V421.529H342.336V419.887H341.036V421.529H340.023V422.616H341.036V426.793H342.336Z" fill="white"/>
<path fill-rule="evenodd" clip-rule="evenodd" d="M78.789 225.62H74.052V225.62C74.052 225.293 73.7869 225.028 73.4599 225.028C73.1329 225.028 72.8678 225.293 72.8678 225.62V225.62H71.6837C71.0297 225.62 70.4995 226.151 70.4995 226.805V235.686C70.4995 236.34 71.0297 236.87 71.6837 236.87H81.1571C81.8111 236.87 82.3413 236.34 82.3413 235.686V226.805C82.3413 226.151 81.8111 225.62 81.1571 225.62H79.9732V225.62C79.9732 225.293 79.7081 225.028 79.3811 225.028C79.0541 225.028 78.789 225.293 78.789 225.62V225.62ZM78.789 226.804H74.052C74.052 227.131 73.7869 227.396 73.4599 227.396C73.1329 227.396 72.8679 227.131 72.8678 226.804H71.6834V228.581H81.1568V226.804H79.9732C79.9731 227.131 79.7081 227.396 79.3811 227.396C79.0541 227.396 78.7891 227.131 78.789 226.804ZM71.6834 235.686V229.765H81.1568V235.686H71.6834ZM77.9517 230.949L75.8286 233.072L74.8897 232.133C74.6585 231.902 74.2836 231.902 74.0523 232.133C73.8211 232.364 73.8211 232.739 74.0523 232.971L75.8286 234.747L78.7891 231.786C79.0203 231.555 79.0203 231.18 78.7891 230.949C78.5578 230.718 78.1829 230.718 77.9517 230.949Z" fill="#93A5B1"/>
<path d="M101.12 232.965V231.943H98.7039V230.176H101.581V229.128H97.567V235.62H98.7039V232.965H101.12ZM104.071 235.736C105.217 235.736 106.016 235.159 106.202 234.199H105.199C105.074 234.617 104.684 234.848 104.089 234.848C103.369 234.848 102.961 234.457 102.881 233.684L106.185 233.675V233.347C106.185 231.979 105.35 231.1 104.035 231.1C102.748 231.1 101.85 232.05 101.85 233.427C101.85 234.786 102.765 235.736 104.071 235.736ZM104.044 231.988C104.693 231.988 105.11 232.388 105.11 232.991H102.907C103.014 232.334 103.405 231.988 104.044 231.988ZM108.055 235.62L108.126 234.936C108.384 235.443 108.944 235.736 109.601 235.736C110.862 235.736 111.688 234.803 111.688 233.453C111.688 232.068 110.924 231.091 109.672 231.091C109.006 231.091 108.42 231.384 108.135 231.872V229.013H107.052V235.62H108.055ZM108.144 233.409C108.144 232.618 108.633 232.068 109.379 232.068C110.142 232.068 110.595 232.627 110.595 233.409C110.595 234.19 110.142 234.741 109.379 234.741C108.633 234.741 108.144 234.199 108.144 233.409ZM113.729 235.23C113.729 234.679 113.41 234.315 112.966 234.315C112.566 234.315 112.291 234.599 112.291 235.025C112.291 235.381 112.575 235.638 112.921 235.638C113.028 235.638 113.108 235.62 113.179 235.585C113.179 235.896 112.877 236.135 112.477 236.207V236.642C113.196 236.553 113.729 235.967 113.729 235.23ZM119.218 235.611V234.555H116.518L117.691 233.551C118.676 232.707 119.174 232.023 119.174 231.118C119.174 229.803 118.312 229.013 116.927 229.013C115.55 229.013 114.644 229.936 114.635 231.357H115.763C115.772 230.522 116.216 230.025 116.927 230.025C117.611 230.025 118.01 230.443 118.01 231.18C118.01 231.801 117.717 232.228 116.838 232.974L114.715 234.768V235.62L119.218 235.611ZM119.919 232.388C119.919 234.395 120.94 235.736 122.663 235.736C124.386 235.736 125.416 234.395 125.416 232.388C125.416 230.371 124.324 229.004 122.663 229.004C121.002 229.004 119.919 230.371 119.919 232.388ZM121.038 232.388C121.038 230.851 121.642 230.007 122.663 230.007C123.693 230.007 124.297 230.851 124.297 232.388C124.297 233.888 123.693 234.732 122.663 234.732C121.642 234.732 121.038 233.888 121.038 232.388ZM130.71 235.611V234.555H128.01L129.183 233.551C130.168 232.707 130.666 232.023 130.666 231.118C130.666 229.803 129.804 229.013 128.419 229.013C127.042 229.013 126.136 229.936 126.127 231.357H127.255C127.264 230.522 127.708 230.025 128.419 230.025C129.103 230.025 129.502 230.443 129.502 231.18C129.502 231.801 129.209 232.228 128.33 232.974L126.207 234.768V235.62L130.71 235.611ZM133.39 232.405C134.296 232.405 134.722 232.885 134.722 233.542C134.722 234.262 134.251 234.723 133.541 234.723C132.848 234.723 132.386 234.297 132.386 233.551H131.267C131.267 234.954 132.253 235.736 133.523 235.736C134.837 235.736 135.876 234.892 135.876 233.56C135.876 232.414 135.104 231.686 134.109 231.491L135.69 230.034V229.128H131.569V230.132H134.269L132.599 231.668V232.405H133.39Z" fill="#043344"/>
<path fill-rule="evenodd" clip-rule="evenodd" d="M518.885 230.653C519 230.537 519.188 230.537 519.303 230.653V230.653C519.419 230.769 519.419 230.956 519.303 231.072L516.935 233.44L514.567 231.072C514.451 230.956 514.451 230.769 514.567 230.653V230.653C514.682 230.537 514.87 230.537 514.985 230.653L516.935 232.603L518.885 230.653Z" fill="#93A5B1"/>
<mask id="mask0_1001_6789" style="mask-type:luminance" maskUnits="userSpaceOnUse" x="514" y="230" width="6" height="4">
<path fill-rule="evenodd" clip-rule="evenodd" d="M518.885 230.653C519 230.537 519.188 230.537 519.303 230.653V230.653C519.419 230.769 519.419 230.956 519.303 231.072L516.935 233.44L514.567 231.072C514.451 230.956 514.451 230.769 514.567 230.653V230.653C514.682 230.537 514.87 230.537 514.985 230.653L516.935 232.603L518.885 230.653Z" fill="white"/>
</mask>
<g mask="url(#mask0_1001_6789)">
</g>
<rect x="90.1863" y="221.624" width="436.963" height="20.4271" rx="2.22034" stroke="#32C69A" stroke-width="0.888136"/>
<path fill-rule="evenodd" clip-rule="evenodd" d="M81.0396 259.609C80.3879 259.278 79.54 259.095 78.6526 259.095C78.3892 259.095 78.1291 259.112 77.8768 259.143V256.054C77.8768 255.334 77.4022 254.68 76.5752 254.259C75.9235 253.927 75.0756 253.745 74.1882 253.745C73.3008 253.745 72.4529 253.927 71.8011 254.259C70.9739 254.68 70.4995 255.334 70.4995 256.054V262.36C70.4995 263.08 70.9739 263.734 71.8011 264.155C72.4529 264.486 73.3006 264.669 74.1882 264.669C74.4548 264.669 74.7175 264.652 74.9726 264.619C75.0369 265.277 75.4996 265.867 76.2657 266.256C76.9173 266.588 77.7651 266.771 78.6526 266.771C79.54 266.771 80.3879 266.588 81.0396 266.256C81.8668 265.836 82.3413 265.181 82.3413 264.461V261.405C82.3413 260.685 81.8668 260.03 81.0396 259.609ZM81.443 261.405C81.443 261.907 80.3816 262.608 78.6529 262.608C76.9242 262.608 75.8628 261.907 75.8628 261.405C75.8628 260.903 76.9242 260.202 78.6529 260.202C80.3816 260.202 81.443 260.903 81.443 261.405ZM81.443 263.041C81.443 263.543 80.3816 264.244 78.6529 264.244C76.9242 264.244 75.8628 263.543 75.8628 263.041C75.8628 262.967 75.8873 262.888 75.9323 262.808C76.5889 263.222 77.5483 263.474 78.6529 263.474C79.7573 263.474 80.7169 263.222 81.3736 262.808C81.4185 262.888 81.443 262.967 81.443 263.041ZM74.1884 254.851C75.9171 254.851 76.9786 255.552 76.9786 256.054C76.9786 256.556 75.9171 257.257 74.1884 257.257C72.4598 257.257 71.3983 256.557 71.3983 256.054C71.3983 255.552 72.4597 254.851 74.1884 254.851ZM71.4678 257.458C72.1244 257.871 73.084 258.123 74.1884 258.123C75.293 258.123 76.2524 257.871 76.909 257.458C76.954 257.538 76.9786 257.616 76.9786 257.69C76.9786 258.192 75.9171 258.893 74.1884 258.893C72.4598 258.893 71.3983 258.192 71.3983 257.69C71.3983 257.616 71.4228 257.538 71.4678 257.458ZM71.468 259.094C72.1247 259.507 73.0841 259.759 74.1887 259.759C75.2932 259.759 76.2527 259.507 76.9093 259.094C76.9543 259.174 76.9789 259.252 76.9789 259.326C76.9789 259.327 76.9788 259.328 76.9786 259.329C76.7233 259.405 76.4836 259.499 76.2661 259.61C75.839 259.827 75.5069 260.107 75.2846 260.426C74.9589 260.49 74.5923 260.529 74.1888 260.529C72.4603 260.529 71.3987 259.828 71.3987 259.326C71.3986 259.252 71.4231 259.174 71.468 259.094ZM71.4679 260.729C72.1245 261.143 73.084 261.395 74.1886 261.395C74.4576 261.395 74.7172 261.379 74.9665 261.351C74.966 261.369 74.9643 261.387 74.9643 261.405V262.114C74.7234 262.146 74.4651 262.165 74.1884 262.165C72.4598 262.165 71.3983 261.464 71.3983 260.962C71.3985 260.888 71.4229 260.81 71.4679 260.729ZM71.351 262.36V262.288C72.0078 262.747 73.0167 263.031 74.1883 263.031C74.4566 263.031 74.7153 263.015 74.9642 262.987V263.747C74.7174 263.783 74.4577 263.803 74.1883 263.803C72.6214 263.803 71.351 263.157 71.351 262.36ZM81.4903 264.461C81.4903 265.258 80.2199 265.905 78.653 265.905C77.0859 265.905 75.8156 265.258 75.8156 264.461V264.449V264.367C76.4724 264.826 77.4812 265.11 78.653 265.11C79.8247 265.11 80.8337 264.826 81.4903 264.367V264.461Z" fill="#93A5B1"/>
<rect x="89.7422" y="249.6" width="283.315" height="21.3153" rx="2.66441" fill="#F4F6F7"/>
<path d="M97.194 259.36C97.194 260.355 97.7713 260.986 98.8726 261.225L99.9028 261.456C100.436 261.572 100.658 261.829 100.658 262.265C100.658 262.806 100.178 263.135 99.4232 263.135C98.695 263.135 98.2509 262.806 98.242 262.256H97.1052C97.1319 263.419 98.0378 264.156 99.4232 264.156C100.853 264.156 101.795 263.375 101.795 262.167C101.795 261.199 101.253 260.63 100.143 260.391L99.1213 260.168C98.5795 260.044 98.3308 259.787 98.3308 259.325C98.3308 258.783 98.7838 258.446 99.4854 258.446C100.125 258.446 100.525 258.774 100.551 259.334H101.688C101.652 258.161 100.818 257.433 99.5032 257.433C98.1355 257.433 97.194 258.223 97.194 259.36ZM104.626 264.156C105.772 264.156 106.571 263.579 106.757 262.62H105.754C105.63 263.037 105.239 263.268 104.644 263.268C103.924 263.268 103.516 262.877 103.436 262.105L106.74 262.096V261.767C106.74 260.399 105.905 259.52 104.59 259.52C103.303 259.52 102.406 260.47 102.406 261.847C102.406 263.206 103.32 264.156 104.626 264.156ZM104.599 260.408C105.248 260.408 105.665 260.808 105.665 261.412H103.462C103.569 260.755 103.96 260.408 104.599 260.408ZM110.36 259.636C110.182 259.591 110.031 259.573 109.88 259.573C109.294 259.573 108.877 259.867 108.69 260.302L108.628 259.662H107.607V264.041H108.69V261.909C108.69 261.057 109.179 260.639 109.96 260.639H110.36V259.636ZM112.467 264.041H113.533L115.362 259.653H114.243L113.444 261.669C113.257 262.149 113.098 262.611 113.035 262.886C112.982 262.646 112.831 262.193 112.645 261.669L111.881 259.653H110.726L112.467 264.041ZM116.527 258.774C116.882 258.774 117.175 258.481 117.175 258.117C117.175 257.753 116.882 257.469 116.527 257.469C116.154 257.469 115.861 257.753 115.861 258.117C115.861 258.481 116.154 258.774 116.527 258.774ZM115.985 264.041H117.069V259.653H115.985V264.041ZM117.931 261.838C117.931 263.233 118.801 264.156 120.133 264.156C121.279 264.156 122.131 263.455 122.265 262.433H121.172C121.057 262.913 120.675 263.179 120.133 263.179C119.44 263.179 119.014 262.664 119.014 261.838C119.014 261.012 119.476 260.488 120.169 260.488C120.684 260.488 121.048 260.746 121.172 261.243H122.256C122.14 260.186 121.323 259.52 120.124 259.52C118.828 259.52 117.931 260.479 117.931 261.838ZM125.034 264.156C126.18 264.156 126.979 263.579 127.165 262.62H126.162C126.038 263.037 125.647 263.268 125.052 263.268C124.332 263.268 123.924 262.877 123.844 262.105L127.148 262.096V261.767C127.148 260.399 126.313 259.52 124.998 259.52C123.711 259.52 122.814 260.47 122.814 261.847C122.814 263.206 123.728 264.156 125.034 264.156ZM125.007 260.408C125.656 260.408 126.073 260.808 126.073 261.412H123.871C123.977 260.755 124.368 260.408 125.007 260.408Z" fill="#043344"/>
<rect x="380.162" y="249.6" width="147.431" height="21.3153" rx="2.66441" fill="#F4F6F7"/>
<path d="M388.546 264.041L389.07 262.54H391.495L392.019 264.041H393.218L390.873 257.549H389.709L387.365 264.041H388.546ZM390.145 259.485C390.207 259.307 390.26 259.112 390.287 258.987C390.305 259.12 390.367 259.316 390.42 259.485L391.166 261.581H389.407L390.145 259.485ZM394.955 264.041V261.554C394.955 260.843 395.373 260.506 395.888 260.506C396.403 260.506 396.732 260.835 396.732 261.447V264.041H397.815V261.554C397.815 260.835 398.215 260.497 398.739 260.497C399.254 260.497 399.591 260.826 399.591 261.456V264.041H400.666V261.172C400.666 260.16 400.08 259.52 399.014 259.52C398.348 259.52 397.833 259.849 397.611 260.355C397.38 259.849 396.918 259.52 396.252 259.52C395.621 259.52 395.177 259.804 394.955 260.168L394.867 259.653H393.872V264.041H394.955ZM401.472 261.838C401.472 263.206 402.458 264.147 403.817 264.147C405.176 264.147 406.162 263.206 406.162 261.838C406.162 260.47 405.176 259.529 403.817 259.529C402.458 259.529 401.472 260.47 401.472 261.838ZM402.556 261.838C402.556 261.039 403.071 260.497 403.817 260.497C404.563 260.497 405.078 261.039 405.078 261.838C405.078 262.638 404.563 263.179 403.817 263.179C403.071 263.179 402.556 262.638 402.556 261.838ZM409.892 259.653V261.954C409.892 262.789 409.563 263.188 408.879 263.188C408.275 263.188 407.947 262.851 407.947 262.016V259.653H406.863V262.398C406.863 263.472 407.458 264.156 408.471 264.156C409.057 264.156 409.625 263.872 409.892 263.455L409.972 264.041H410.975V259.653H409.892ZM413.178 264.041V261.678C413.178 260.968 413.586 260.506 414.252 260.506C414.812 260.506 415.176 260.861 415.176 261.598V264.041H416.26V261.341C416.26 260.204 415.691 259.52 414.59 259.52C413.995 259.52 413.462 259.778 413.187 260.222L413.098 259.653H412.094V264.041H413.178ZM418.816 264.041V260.559H419.669V259.653H418.816V258.286H417.733V259.653H416.889V260.559H417.733V264.041H418.816Z" fill="#043344"/>
<path d="M99.7163 292.461C101.617 292.461 102.896 291.165 102.896 289.255C102.896 287.337 101.599 286.04 99.6808 286.04H97.5937V292.461H99.7163ZM99.6186 286.839C101.084 286.839 101.99 287.763 101.99 289.255C101.99 290.729 101.084 291.653 99.6542 291.653H98.4641V286.839H99.6186ZM105.735 292.568C106.81 292.568 107.538 292.044 107.751 291.111H106.97C106.827 291.609 106.401 291.875 105.753 291.875C104.927 291.875 104.447 291.369 104.385 290.454L107.742 290.445V290.134C107.742 288.846 106.934 287.994 105.7 287.994C104.438 287.994 103.577 288.935 103.577 290.294C103.577 291.644 104.456 292.568 105.735 292.568ZM105.7 288.695C106.437 288.695 106.907 289.175 106.907 289.894H104.403C104.509 289.131 104.971 288.695 105.7 288.695ZM108.319 291.2C108.319 292.026 108.968 292.568 109.989 292.568C111.019 292.568 111.73 292.044 111.73 291.218C111.73 290.569 111.366 290.232 110.629 290.054L109.865 289.868C109.439 289.761 109.225 289.566 109.225 289.273C109.225 288.873 109.518 288.642 110.042 288.642C110.549 288.642 110.842 288.918 110.86 289.353H111.659C111.641 288.527 111.019 287.994 110.069 287.994C109.11 287.994 108.435 288.5 108.435 289.299C108.435 289.939 108.799 290.321 109.572 290.507L110.336 290.685C110.788 290.8 110.931 290.978 110.931 291.271C110.931 291.671 110.593 291.911 110.007 291.911C109.456 291.911 109.119 291.644 109.119 291.2H108.319ZM112.372 290.294C112.372 291.662 113.215 292.568 114.494 292.568C115.542 292.568 116.35 291.937 116.519 290.996H115.684C115.533 291.511 115.089 291.822 114.494 291.822C113.704 291.822 113.197 291.218 113.197 290.285C113.197 289.344 113.739 288.74 114.53 288.74C115.089 288.74 115.533 289.033 115.675 289.584H116.51C116.359 288.616 115.595 287.994 114.503 287.994C113.233 287.994 112.372 288.935 112.372 290.294ZM119.887 288.083C119.718 288.047 119.594 288.029 119.443 288.029C118.848 288.029 118.412 288.331 118.235 288.784L118.182 288.127H117.4V292.461H118.235V290.161C118.235 289.326 118.723 288.846 119.514 288.846H119.887V288.083ZM121.078 287.088C121.38 287.088 121.629 286.839 121.629 286.537C121.629 286.226 121.38 285.987 121.078 285.987C120.776 285.987 120.528 286.226 120.528 286.537C120.528 286.839 120.776 287.088 121.078 287.088ZM120.67 292.461H121.505V288.118H120.67V292.461ZM122.717 294.406H123.551V291.751C123.836 292.284 124.413 292.577 125.106 292.577C126.394 292.577 127.122 291.582 127.122 290.259C127.122 288.926 126.349 287.994 125.106 287.994C124.413 287.994 123.827 288.305 123.534 288.9L123.472 288.118H122.717V294.406ZM123.56 290.294C123.56 289.388 124.075 288.758 124.928 288.758C125.781 288.758 126.287 289.397 126.287 290.294C126.287 291.182 125.781 291.822 124.928 291.822C124.075 291.822 123.56 291.182 123.56 290.294ZM129.224 292.461V288.82H130.077V288.118H129.224V286.759H128.389V288.118H127.537V288.82H128.389V292.461H129.224ZM131.235 287.088C131.537 287.088 131.785 286.839 131.785 286.537C131.785 286.226 131.537 285.987 131.235 285.987C130.933 285.987 130.684 286.226 130.684 286.537C130.684 286.839 130.933 287.088 131.235 287.088ZM130.826 292.461H131.661V288.118H130.826V292.461ZM132.589 290.285C132.589 291.626 133.548 292.568 134.853 292.568C136.15 292.568 137.109 291.626 137.109 290.285C137.109 288.944 136.15 288.003 134.853 288.003C133.548 288.003 132.589 288.944 132.589 290.285ZM133.432 290.285C133.432 289.379 134.01 288.749 134.853 288.749C135.688 288.749 136.274 289.379 136.274 290.285C136.274 291.191 135.688 291.822 134.853 291.822C134.01 291.822 133.432 291.191 133.432 290.285ZM138.868 292.461V290.161C138.868 289.317 139.321 288.758 140.103 288.758C140.742 288.758 141.151 289.113 141.151 289.992V292.461H141.986V289.806C141.986 288.695 141.462 287.994 140.316 287.994C139.703 287.994 139.153 288.287 138.877 288.784L138.788 288.118H138.033V292.461H138.868Z" fill="#A7B5BF"/>
<rect x="89.9642" y="278.243" width="282.871" height="20.8712" rx="2.44237" stroke="#D4DBE0" stroke-width="0.444068"/>
<path d="M90.4527 324.638V325.349H92.3178V327.223H93.0283V325.349H94.8934V324.638H93.0283V322.773H92.3178V324.638H90.4527ZM99.0462 327.987L99.6146 326.388H102.315L102.892 327.987H103.807L101.453 321.565H100.485L98.1403 327.987H99.0462ZM100.858 322.951C100.902 322.818 100.947 322.667 100.965 322.578C100.982 322.676 101.027 322.827 101.071 322.951L102.057 325.633H99.8811L100.858 322.951ZM106.094 328.093C106.787 328.093 107.373 327.791 107.657 327.196L107.728 327.987H108.474V321.45H107.648V324.345C107.355 323.812 106.796 323.519 106.13 323.519C104.842 323.519 104.069 324.496 104.069 325.828C104.069 327.152 104.833 328.093 106.094 328.093ZM106.263 327.338C105.41 327.338 104.913 326.699 104.913 325.802C104.913 324.914 105.41 324.274 106.263 324.274C107.115 324.274 107.639 324.914 107.639 325.802C107.639 326.708 107.115 327.338 106.263 327.338ZM111.419 328.093C112.112 328.093 112.698 327.791 112.983 327.196L113.054 327.987H113.8V321.45H112.974V324.345C112.681 323.812 112.121 323.519 111.455 323.519C110.167 323.519 109.394 324.496 109.394 325.828C109.394 327.152 110.158 328.093 111.419 328.093ZM111.588 327.338C110.736 327.338 110.238 326.699 110.238 325.802C110.238 324.914 110.736 324.274 111.588 324.274C112.441 324.274 112.965 324.914 112.965 325.802C112.965 326.708 112.441 327.338 111.588 327.338ZM118.703 328.093C119.404 328.093 119.999 327.782 120.221 327.285L120.31 327.987H121.021V325.26C121.021 324.088 120.292 323.519 119.218 323.519C118.099 323.519 117.353 324.114 117.353 325.02H118.081C118.081 324.496 118.481 324.185 119.182 324.185C119.768 324.185 120.204 324.443 120.204 325.171V325.296L118.836 325.402C117.814 325.482 117.219 325.979 117.219 326.779C117.219 327.569 117.77 328.093 118.703 328.093ZM118.942 327.445C118.401 327.445 118.063 327.214 118.063 326.752C118.063 326.326 118.365 326.042 119.102 325.971L120.212 325.882V326.113C120.212 326.93 119.733 327.445 118.942 327.445ZM124.25 326.725C124.25 327.551 124.898 328.093 125.92 328.093C126.95 328.093 127.66 327.569 127.66 326.743C127.66 326.095 127.296 325.757 126.559 325.58L125.795 325.393C125.369 325.287 125.156 325.091 125.156 324.798C125.156 324.399 125.449 324.168 125.973 324.168C126.479 324.168 126.772 324.443 126.79 324.878H127.589C127.572 324.052 126.95 323.519 126 323.519C125.04 323.519 124.365 324.025 124.365 324.825C124.365 325.464 124.73 325.846 125.502 326.033L126.266 326.21C126.719 326.326 126.861 326.503 126.861 326.796C126.861 327.196 126.524 327.436 125.937 327.436C125.387 327.436 125.049 327.169 125.049 326.725H124.25ZM130.46 328.093C131.535 328.093 132.263 327.569 132.476 326.637H131.695C131.553 327.134 131.126 327.4 130.478 327.4C129.652 327.4 129.172 326.894 129.11 325.979L132.467 325.971V325.66C132.467 324.372 131.659 323.519 130.425 323.519C129.164 323.519 128.302 324.461 128.302 325.82C128.302 327.169 129.181 328.093 130.46 328.093ZM130.425 324.221C131.162 324.221 131.633 324.7 131.633 325.42H129.128C129.235 324.656 129.696 324.221 130.425 324.221ZM135.887 323.608C135.718 323.573 135.594 323.555 135.443 323.555C134.848 323.555 134.412 323.857 134.235 324.31L134.181 323.652H133.4V327.987H134.235V325.686C134.235 324.851 134.723 324.372 135.514 324.372H135.887V323.608ZM138.017 327.987H138.842L140.654 323.644H139.784L138.816 326.068C138.665 326.45 138.523 326.823 138.452 327.107C138.381 326.841 138.256 326.477 138.105 326.068L137.155 323.644H136.267L138.017 327.987ZM141.727 322.613C142.029 322.613 142.278 322.365 142.278 322.063C142.278 321.752 142.029 321.512 141.727 321.512C141.425 321.512 141.176 321.752 141.176 322.063C141.176 322.365 141.425 322.613 141.727 322.613ZM141.319 327.987H142.153V323.644H141.319V327.987ZM143.081 325.82C143.081 327.187 143.925 328.093 145.204 328.093C146.252 328.093 147.06 327.463 147.229 326.521H146.394C146.243 327.036 145.799 327.347 145.204 327.347C144.413 327.347 143.907 326.743 143.907 325.811C143.907 324.869 144.449 324.265 145.239 324.265C145.799 324.265 146.243 324.558 146.385 325.109H147.22C147.069 324.141 146.305 323.519 145.213 323.519C143.943 323.519 143.081 324.461 143.081 325.82ZM149.984 328.093C151.058 328.093 151.787 327.569 152 326.637H151.218C151.076 327.134 150.65 327.4 150.001 327.4C149.175 327.4 148.696 326.894 148.634 325.979L151.991 325.971V325.66C151.991 324.372 151.183 323.519 149.948 323.519C148.687 323.519 147.825 324.461 147.825 325.82C147.825 327.169 148.705 328.093 149.984 328.093ZM149.948 324.221C150.685 324.221 151.156 324.7 151.156 325.42H148.651C148.758 324.656 149.22 324.221 149.948 324.221Z" fill="#32C69A"/>
<path fill-rule="evenodd" clip-rule="evenodd" d="M520.867 285.869C521.096 285.636 521.471 285.633 521.704 285.863V285.863C521.937 286.092 521.94 286.467 521.711 286.7L518.385 290.077C518.198 290.269 518.198 290.577 518.385 290.768C518.563 290.95 518.861 290.949 519.037 290.767L523.153 286.586C523.754 285.973 523.754 284.988 523.153 284.375C522.58 283.79 521.565 283.803 521.004 284.376L516.511 288.937C515.497 289.971 515.497 291.633 516.511 292.667C517.496 293.672 519.188 293.656 520.157 292.666L524.981 287.767C525.211 287.534 525.586 287.531 525.819 287.761V287.761C526.052 287.99 526.055 288.365 525.825 288.598L521.002 293.496C519.573 294.955 517.118 294.978 515.666 293.496C514.2 292.001 514.2 289.603 515.667 288.107L520.159 283.546C521.179 282.505 522.956 282.483 523.999 283.546C525.051 284.62 525.051 286.342 523.998 287.416L519.884 291.595C519.248 292.252 518.184 292.255 517.539 291.597C516.901 290.945 516.901 289.9 517.54 289.247L520.867 285.869Z" fill="#93A5B1"/>
<mask id="mask1_1001_6789" style="mask-type:luminance" maskUnits="userSpaceOnUse" x="514" y="282" width="12" height="13">
<path fill-rule="evenodd" clip-rule="evenodd" d="M520.867 285.869C521.096 285.636 521.471 285.633 521.704 285.863V285.863C521.937 286.092 521.94 286.467 521.711 286.7L518.385 290.077C518.198 290.269 518.198 290.577 518.385 290.768C518.563 290.95 518.861 290.949 519.037 290.767L523.153 286.586C523.754 285.973 523.754 284.988 523.153 284.375C522.58 283.79 521.565 283.803 521.004 284.376L516.511 288.937C515.497 289.971 515.497 291.633 516.511 292.667C517.496 293.672 519.188 293.656 520.157 292.666L524.981 287.767C525.211 287.534 525.586 287.531 525.819 287.761V287.761C526.052 287.99 526.055 288.365 525.825 288.598L521.002 293.496C519.573 294.955 517.118 294.978 515.666 293.496C514.2 292.001 514.2 289.603 515.667 288.107L520.159 283.546C521.179 282.505 522.956 282.483 523.999 283.546C525.051 284.62 525.051 286.342 523.998 287.416L519.884 291.595C519.248 292.252 518.184 292.255 517.539 291.597C516.901 290.945 516.901 289.9 517.54 289.247L520.867 285.869Z" fill="white"/>
</mask>
<g mask="url(#mask1_1001_6789)">
</g>
<path d="M387.702 289.255C387.702 291.253 388.688 292.577 390.348 292.577C392 292.577 392.986 291.253 392.986 289.255C392.986 287.266 391.956 285.916 390.348 285.916C388.732 285.916 387.702 287.266 387.702 289.255ZM388.563 289.255C388.563 287.656 389.221 286.697 390.348 286.697C391.476 286.697 392.125 287.656 392.125 289.255C392.125 290.836 391.476 291.795 390.348 291.795C389.221 291.795 388.563 290.836 388.563 289.255ZM394.286 292.568C394.623 292.568 394.917 292.284 394.917 291.946C394.917 291.6 394.623 291.315 394.286 291.315C393.94 291.315 393.646 291.6 393.646 291.946C393.646 292.284 393.94 292.568 394.286 292.568ZM395.586 289.255C395.586 291.253 396.572 292.577 398.232 292.577C399.884 292.577 400.87 291.253 400.87 289.255C400.87 287.266 399.84 285.916 398.232 285.916C396.616 285.916 395.586 287.266 395.586 289.255ZM396.447 289.255C396.447 287.656 397.104 286.697 398.232 286.697C399.36 286.697 400.009 287.656 400.009 289.255C400.009 290.836 399.36 291.795 398.232 291.795C397.104 291.795 396.447 290.836 396.447 289.255ZM401.744 289.255C401.744 291.253 402.73 292.577 404.39 292.577C406.042 292.577 407.028 291.253 407.028 289.255C407.028 287.266 405.998 285.916 404.39 285.916C402.774 285.916 401.744 287.266 401.744 289.255ZM402.605 289.255C402.605 287.656 403.262 286.697 404.39 286.697C405.518 286.697 406.167 287.656 406.167 289.255C406.167 290.836 405.518 291.795 404.39 291.795C403.262 291.795 402.605 290.836 402.605 289.255Z" fill="#A7B5BF"/>
<path d="M464.743 293.234H465.41V285.436H464.743V293.234ZM469.314 287.772C469.314 288.695 469.856 289.299 470.904 289.539L471.961 289.779C472.574 289.921 472.849 290.241 472.849 290.747C472.849 291.387 472.307 291.786 471.455 291.786C470.647 291.786 470.132 291.395 470.114 290.783H469.226C469.279 291.884 470.149 292.568 471.455 292.568C472.823 292.568 473.72 291.831 473.72 290.676C473.72 289.77 473.187 289.202 472.139 288.962L471.082 288.713C470.478 288.571 470.185 288.26 470.185 287.745C470.185 287.115 470.709 286.706 471.517 286.706C472.236 286.706 472.689 287.079 472.734 287.719H473.613C473.542 286.608 472.752 285.925 471.526 285.925C470.203 285.925 469.314 286.671 469.314 287.772ZM475.08 292.461L475.648 290.863H478.348L478.925 292.461H479.84L477.487 286.04H476.519L474.174 292.461H475.08ZM476.892 287.425C476.936 287.292 476.98 287.141 476.998 287.052C477.016 287.15 477.06 287.301 477.105 287.425L478.091 290.108H475.915L476.892 287.425ZM481.564 292.461V289.921H483.207L484.406 292.461H485.374L484.069 289.752C484.868 289.495 485.312 288.855 485.312 287.967C485.312 286.768 484.495 286.04 483.118 286.04H480.694V292.461H481.564ZM481.564 286.822H483.118C483.918 286.822 484.397 287.23 484.397 287.976C484.397 288.713 483.935 289.148 483.127 289.148H481.564V286.822Z" fill="#A7B5BF"/>
<rect x="380.384" y="278.243" width="125.671" height="20.8712" rx="2.44237" stroke="#D4DBE0" stroke-width="0.444068"/>
<path fill-rule="evenodd" clip-rule="evenodd" d="M497.57 287.494C497.686 287.378 497.873 287.378 497.989 287.494V287.494C498.105 287.609 498.105 287.797 497.989 287.912L495.621 290.281L493.252 287.912C493.137 287.797 493.137 287.609 493.252 287.494V287.494C493.368 287.378 493.555 287.378 493.671 287.494L495.621 289.443L497.57 287.494Z" fill="#93A5B1"/>
<mask id="mask2_1001_6789" style="mask-type:luminance" maskUnits="userSpaceOnUse" x="493" y="287" width="6" height="4">
<path fill-rule="evenodd" clip-rule="evenodd" d="M497.57 287.494C497.686 287.378 497.873 287.378 497.989 287.494V287.494C498.105 287.609 498.105 287.797 497.989 287.912L495.621 290.281L493.252 287.912C493.137 287.797 493.137 287.609 493.252 287.494V287.494C493.368 287.378 493.555 287.378 493.671 287.494L495.621 289.443L497.57 287.494Z" fill="white"/>
</mask>
<g mask="url(#mask2_1001_6789)">
</g>
<path fill-rule="evenodd" clip-rule="evenodd" d="M82.3413 345.519C82.3413 345.192 82.0762 344.927 81.7492 344.927H71.0916C70.7646 344.927 70.4995 345.192 70.4995 345.519C70.4995 345.846 70.7646 346.111 71.0916 346.111H81.7492C82.0762 346.111 82.3413 345.846 82.3413 345.519ZM78.1969 347.295C78.5239 347.295 78.789 347.56 78.789 347.887C78.789 348.214 78.5239 348.479 78.1969 348.479H71.0918C70.7648 348.479 70.4998 348.214 70.4998 347.887C70.4998 347.56 70.7648 347.295 71.0918 347.295H78.1969ZM82.3416 350.255C82.3416 349.928 82.0765 349.663 81.7495 349.663H71.0918C70.7648 349.663 70.4998 349.928 70.4998 350.255C70.4998 350.582 70.7648 350.847 71.0918 350.847H81.7495C82.0765 350.847 82.3416 350.582 82.3416 350.255ZM78.789 352.624C78.789 352.297 78.5239 352.032 78.1969 352.032H71.0918C70.7648 352.032 70.4998 352.297 70.4998 352.624C70.4998 352.951 70.7648 353.216 71.0918 353.216H78.1969C78.5239 353.216 78.789 352.951 78.789 352.624Z" fill="#93A5B1"/>
<path d="M96.9986 347.41H98.8992V352.854H100.036V347.41H101.937V346.362H96.9986V347.41ZM101.874 354.888C102.113 354.95 102.38 354.986 102.682 354.986C103.401 354.986 103.863 354.648 104.192 353.831L106.341 348.467H105.222L104.032 351.664L102.904 348.467H101.758L103.526 353.041L103.401 353.369C103.215 353.884 102.948 353.982 102.522 353.982H101.874V354.888ZM106.956 354.888H108.04V352.268C108.315 352.712 108.884 352.97 109.541 352.97C110.846 352.97 111.592 351.975 111.592 350.607C111.592 349.231 110.775 348.334 109.541 348.334C108.875 348.334 108.297 348.627 108.031 349.133L107.96 348.467H106.956V354.888ZM108.049 350.661C108.049 349.87 108.537 349.319 109.283 349.319C110.047 349.319 110.5 349.879 110.5 350.661C110.5 351.442 110.047 351.993 109.283 351.993C108.537 351.993 108.049 351.451 108.049 350.661ZM114.418 352.97C115.564 352.97 116.363 352.392 116.549 351.433H115.546C115.422 351.851 115.031 352.082 114.436 352.082C113.716 352.082 113.308 351.691 113.228 350.918L116.532 350.909V350.581C116.532 349.213 115.697 348.334 114.382 348.334C113.095 348.334 112.198 349.284 112.198 350.661C112.198 352.019 113.112 352.97 114.418 352.97ZM114.391 349.222C115.04 349.222 115.457 349.621 115.457 350.225H113.255C113.361 349.568 113.752 349.222 114.391 349.222ZM121.098 352.97C121.782 352.97 122.377 352.659 122.564 352.206L122.644 352.854H123.594V350.19C123.594 348.973 122.866 348.334 121.684 348.334C120.494 348.334 119.713 348.955 119.713 349.906H120.636C120.636 349.444 120.992 349.177 121.631 349.177C122.182 349.177 122.537 349.417 122.537 350.012V350.11L121.223 350.208C120.183 350.288 119.597 350.794 119.597 351.602C119.597 352.428 120.166 352.97 121.098 352.97ZM121.454 352.153C120.965 352.153 120.699 351.957 120.699 351.558C120.699 351.202 120.956 350.98 121.631 350.918L122.546 350.847V351.078C122.546 351.753 122.12 352.153 121.454 352.153ZM128.313 352.854V350.527C128.313 349.719 128.304 349.106 128.242 348.716L129.885 352.854H130.933L132.585 348.707C132.523 349.168 132.523 349.55 132.523 350.856V352.854H133.624V346.362H132.505L130.409 351.531L128.313 346.362H127.212V352.854H128.313ZM136.864 352.97C138.01 352.97 138.809 352.392 138.996 351.433H137.992C137.868 351.851 137.477 352.082 136.882 352.082C136.163 352.082 135.754 351.691 135.674 350.918L138.978 350.909V350.581C138.978 349.213 138.143 348.334 136.829 348.334C135.541 348.334 134.644 349.284 134.644 350.661C134.644 352.019 135.559 352.97 136.864 352.97ZM136.838 349.222C137.486 349.222 137.903 349.621 137.903 350.225H135.701C135.807 349.568 136.198 349.222 136.838 349.222ZM139.508 351.522C139.508 352.384 140.2 352.97 141.293 352.97C142.376 352.97 143.131 352.419 143.131 351.531C143.131 350.856 142.758 350.518 142.021 350.35L141.231 350.163C140.858 350.074 140.662 349.915 140.662 349.666C140.662 349.337 140.911 349.142 141.337 349.142C141.755 349.142 142.003 349.382 142.012 349.755H143.042C143.034 348.902 142.367 348.334 141.382 348.334C140.369 348.334 139.641 348.849 139.641 349.71C139.641 350.412 140.023 350.785 140.813 350.963L141.604 351.149C141.994 351.238 142.11 351.398 142.11 351.62C142.11 351.939 141.835 352.144 141.328 352.144C140.831 352.144 140.547 351.904 140.538 351.522H139.508ZM143.619 351.522C143.619 352.384 144.311 352.97 145.404 352.97C146.487 352.97 147.242 352.419 147.242 351.531C147.242 350.856 146.869 350.518 146.132 350.35L145.342 350.163C144.969 350.074 144.773 349.915 144.773 349.666C144.773 349.337 145.022 349.142 145.448 349.142C145.866 349.142 146.114 349.382 146.123 349.755H147.154C147.145 348.902 146.479 348.334 145.493 348.334C144.48 348.334 143.752 348.849 143.752 349.71C143.752 350.412 144.134 350.785 144.924 350.963L145.715 351.149C146.106 351.238 146.221 351.398 146.221 351.62C146.221 351.939 145.946 352.144 145.439 352.144C144.942 352.144 144.658 351.904 144.649 351.522H143.619ZM149.373 352.97C150.057 352.97 150.652 352.659 150.838 352.206L150.918 352.854H151.869V350.19C151.869 348.973 151.14 348.334 149.959 348.334C148.769 348.334 147.987 348.955 147.987 349.906H148.911C148.911 349.444 149.266 349.177 149.906 349.177C150.456 349.177 150.812 349.417 150.812 350.012V350.11L149.497 350.208C148.458 350.288 147.872 350.794 147.872 351.602C147.872 352.428 148.44 352.97 149.373 352.97ZM149.728 352.153C149.24 352.153 148.973 351.957 148.973 351.558C148.973 351.202 149.231 350.98 149.906 350.918L150.821 350.847V351.078C150.821 351.753 150.394 352.153 149.728 352.153ZM152.684 350.563C152.684 351.833 153.501 352.765 154.745 352.765C155.375 352.765 155.917 352.508 156.192 352.099V352.828C156.192 353.556 155.713 354.027 154.967 354.027C154.301 354.027 153.866 353.689 153.794 353.121H152.711C152.844 354.293 153.706 355.012 154.967 355.012C156.388 355.012 157.267 354.098 157.267 352.632V348.467H156.264L156.201 349.071C155.944 348.6 155.429 348.325 154.771 348.325C153.519 348.325 152.684 349.284 152.684 350.563ZM153.777 350.536C153.777 349.817 154.239 349.275 154.958 349.275C155.713 349.275 156.166 349.79 156.166 350.536C156.166 351.3 155.704 351.824 154.958 351.824C154.247 351.824 153.777 351.273 153.777 350.536ZM160.351 352.97C161.497 352.97 162.296 352.392 162.483 351.433H161.479C161.355 351.851 160.964 352.082 160.369 352.082C159.65 352.082 159.241 351.691 159.161 350.918L162.465 350.909V350.581C162.465 349.213 161.63 348.334 160.316 348.334C159.028 348.334 158.131 349.284 158.131 350.661C158.131 352.019 159.046 352.97 160.351 352.97ZM160.325 349.222C160.973 349.222 161.39 349.621 161.39 350.225H159.188C159.294 349.568 159.685 349.222 160.325 349.222ZM165.468 350.652C165.468 352.019 166.454 352.961 167.813 352.961C169.172 352.961 170.158 352.019 170.158 350.652C170.158 349.284 169.172 348.343 167.813 348.343C166.454 348.343 165.468 349.284 165.468 350.652ZM166.552 350.652C166.552 349.852 167.067 349.311 167.813 349.311C168.559 349.311 169.074 349.852 169.074 350.652C169.074 351.451 168.559 351.993 167.813 351.993C167.067 351.993 166.552 351.451 166.552 350.652ZM173.77 348.449C173.592 348.405 173.441 348.387 173.29 348.387C172.704 348.387 172.287 348.68 172.1 349.115L172.038 348.476H171.017V352.854H172.1V350.723C172.1 349.87 172.589 349.453 173.37 349.453H173.77V348.449ZM178.389 352.854V349.373H179.242V348.467H178.389V347.099H177.306V348.467H176.462V349.373H177.306V352.854H178.389ZM179.533 354.888C179.773 354.95 180.04 354.986 180.342 354.986C181.061 354.986 181.523 354.648 181.851 353.831L184.001 348.467H182.882L181.692 351.664L180.564 348.467H179.418L181.185 353.041L181.061 353.369C180.875 353.884 180.608 353.982 180.182 353.982H179.533V354.888ZM184.616 354.888H185.7V352.268C185.975 352.712 186.543 352.97 187.201 352.97C188.506 352.97 189.252 351.975 189.252 350.607C189.252 349.231 188.435 348.334 187.201 348.334C186.535 348.334 185.957 348.627 185.691 349.133L185.62 348.467H184.616V354.888ZM185.709 350.661C185.709 349.87 186.197 349.319 186.943 349.319C187.707 349.319 188.16 349.879 188.16 350.661C188.16 351.442 187.707 351.993 186.943 351.993C186.197 351.993 185.709 351.451 185.709 350.661ZM192.078 352.97C193.223 352.97 194.023 352.392 194.209 351.433H193.206C193.081 351.851 192.691 352.082 192.096 352.082C191.376 352.082 190.968 351.691 190.888 350.918L194.192 350.909V350.581C194.192 349.213 193.357 348.334 192.042 348.334C190.754 348.334 189.857 349.284 189.857 350.661C189.857 352.019 190.772 352.97 192.078 352.97ZM192.051 349.222C192.699 349.222 193.117 349.621 193.117 350.225H190.914C191.021 349.568 191.412 349.222 192.051 349.222ZM198.829 347.854C198.829 347.472 198.58 347.241 198.261 347.241C198.163 347.241 198.083 347.259 198.012 347.286C198.012 346.975 198.279 346.735 198.66 346.664V346.238C197.95 346.326 197.453 346.904 197.453 347.65C197.453 348.183 197.755 348.52 198.172 348.52C198.563 348.52 198.829 348.245 198.829 347.854ZM200.588 347.854C200.588 347.472 200.33 347.241 200.01 347.241C199.913 347.241 199.833 347.259 199.762 347.295C199.762 346.975 200.037 346.735 200.419 346.664V346.238C199.708 346.326 199.211 346.904 199.211 347.65C199.211 348.183 199.513 348.52 199.93 348.52C200.321 348.52 200.588 348.245 200.588 347.854ZM203.47 350.856C203.47 351.629 204.012 352.099 204.909 352.099C205.548 352.099 206.125 351.788 206.303 351.344C206.427 351.833 206.818 352.099 207.431 352.099C208.452 352.099 209.109 351.202 209.109 349.835C209.109 347.756 207.537 346.247 205.37 346.247C203.194 346.247 201.56 347.872 201.56 350.048C201.56 352.233 203.186 353.858 205.37 353.858C206.161 353.858 206.907 353.627 207.529 353.183L207.218 352.579C206.658 352.97 206.01 353.192 205.37 353.192C203.594 353.192 202.28 351.851 202.28 350.048C202.28 348.254 203.594 346.913 205.37 346.913C207.138 346.913 208.39 348.129 208.39 349.835C208.39 350.794 208.061 351.442 207.573 351.442C207.271 351.442 207.12 351.282 207.12 350.945V349.568C207.12 348.494 206.489 347.881 205.379 347.881C204.287 347.881 203.585 348.449 203.585 349.311H204.42C204.42 348.884 204.749 348.644 205.335 348.644C205.877 348.644 206.161 348.902 206.161 349.408V349.497L204.962 349.595C203.985 349.666 203.47 350.145 203.47 350.856ZM204.473 350.82C204.473 350.474 204.722 350.296 205.326 350.243L206.17 350.172V350.385C206.17 350.989 205.788 351.353 205.166 351.353C204.704 351.353 204.473 351.176 204.473 350.82ZM211.466 347.108C211.466 346.575 211.164 346.238 210.747 346.238C210.356 346.238 210.089 346.513 210.089 346.904C210.089 347.295 210.347 347.517 210.667 347.517C210.764 347.517 210.844 347.499 210.915 347.472C210.915 347.783 210.64 348.023 210.258 348.094V348.52C210.969 348.431 211.466 347.854 211.466 347.108ZM213.225 347.108C213.225 346.575 212.923 346.238 212.505 346.238C212.114 346.238 211.848 346.513 211.848 346.904C211.848 347.295 212.097 347.517 212.416 347.517C212.514 347.517 212.594 347.499 212.665 347.472C212.665 347.783 212.399 348.023 212.017 348.094V348.52C212.727 348.431 213.225 347.854 213.225 347.108ZM214.235 352.961C214.626 352.961 214.954 352.641 214.954 352.259C214.954 351.868 214.626 351.549 214.235 351.549C213.844 351.549 213.516 351.868 213.516 352.259C213.516 352.641 213.844 352.961 214.235 352.961ZM216.82 352.961C217.21 352.961 217.539 352.641 217.539 352.259C217.539 351.868 217.21 351.549 216.82 351.549C216.429 351.549 216.1 351.868 216.1 352.259C216.1 352.641 216.429 352.961 216.82 352.961ZM219.404 352.961C219.795 352.961 220.124 352.641 220.124 352.259C220.124 351.868 219.795 351.549 219.404 351.549C219.013 351.549 218.685 351.868 218.685 352.259C218.685 352.641 219.013 352.961 219.404 352.961Z" fill="#BEC9D0"/>
<rect x="89.9642" y="338.636" width="439.183" height="57.2847" rx="2.44237" stroke="#D4DBE0" stroke-width="0.444068"/>
<line x1="90.6304" y1="307.995" x2="529.369" y2="307.995" stroke="#BEC9D0" stroke-width="0.444068"/>
<defs>
<filter id="filter0_ddd_1001_6789" x="0.0406785" y="0.0338988" width="619.919" height="516.007" filterUnits="userSpaceOnUse" color-interpolation-filters="sRGB">
<feFlood flood-opacity="0" result="BackgroundImageFix"/>
<feColorMatrix in="SourceAlpha" type="matrix" values="0 0 0 0 0 0 0 0 0 0 0 0 0 0 0 0 0 0 127 0" result="hardAlpha"/>
<feMorphology radius="6.21695" operator="erode" in="SourceAlpha" result="effect1_dropShadow_1001_6789"/>
<feOffset dy="9.76949"/>
<feGaussianBlur stdDeviation="6.66102"/>
<feColorMatrix type="matrix" values="0 0 0 0 0.364706 0 0 0 0 0.447059 0 0 0 0 0.54902 0 0 0 0.16 0"/>
<feBlend mode="normal" in2="BackgroundImageFix" result="effect1_dropShadow_1001_6789"/>
<feColorMatrix in="SourceAlpha" type="matrix" values="0 0 0 0 0 0 0 0 0 0 0 0 0 0 0 0 0 0 127 0" result="hardAlpha"/>
<feMorphology radius="7.10508" operator="dilate" in="SourceAlpha" result="effect2_dropShadow_1001_6789"/>
<feOffset dy="7.99322"/>
<feGaussianBlur stdDeviation="20.4271"/>
<feColorMatrix type="matrix" values="0 0 0 0 0.364706 0 0 0 0 0.447059 0 0 0 0 0.54902 0 0 0 0.08 0"/>
<feBlend mode="normal" in2="effect1_dropShadow_1001_6789" result="effect2_dropShadow_1001_6789"/>
<feColorMatrix in="SourceAlpha" type="matrix" values="0 0 0 0 0 0 0 0 0 0 0 0 0 0 0 0 0 0 127 0" result="hardAlpha"/>
<feMorphology radius="2.66441" operator="dilate" in="SourceAlpha" result="effect3_dropShadow_1001_6789"/>
<feOffset dy="21.3153"/>
<feGaussianBlur stdDeviation="16.8746"/>
<feColorMatrix type="matrix" values="0 0 0 0 0.364706 0 0 0 0 0.447059 0 0 0 0 0.54902 0 0 0 0.1 0"/>
<feBlend mode="normal" in2="effect2_dropShadow_1001_6789" result="effect3_dropShadow_1001_6789"/>
<feBlend mode="normal" in="SourceGraphic" in2="effect3_dropShadow_1001_6789" result="shape"/>
</filter>
<filter id="filter1_ddd_1001_6789" x="10.6984" y="10.6916" width="598.604" height="494.691" filterUnits="userSpaceOnUse" color-interpolation-filters="sRGB">
<feFlood flood-opacity="0" result="BackgroundImageFix"/>
<feColorMatrix in="SourceAlpha" type="matrix" values="0 0 0 0 0 0 0 0 0 0 0 0 0 0 0 0 0 0 127 0" result="hardAlpha"/>
<feMorphology radius="6.21695" operator="erode" in="SourceAlpha" result="effect1_dropShadow_1001_6789"/>
<feOffset dy="9.76949"/>
<feGaussianBlur stdDeviation="6.66102"/>
<feColorMatrix type="matrix" values="0 0 0 0 0.364706 0 0 0 0 0.447059 0 0 0 0 0.54902 0 0 0 0.16 0"/>
<feBlend mode="normal" in2="BackgroundImageFix" result="effect1_dropShadow_1001_6789"/>
<feColorMatrix in="SourceAlpha" type="matrix" values="0 0 0 0 0 0 0 0 0 0 0 0 0 0 0 0 0 0 127 0" result="hardAlpha"/>
<feMorphology radius="7.10508" operator="dilate" in="SourceAlpha" result="effect2_dropShadow_1001_6789"/>
<feOffset dy="7.99322"/>
<feGaussianBlur stdDeviation="20.4271"/>
<feColorMatrix type="matrix" values="0 0 0 0 0.364706 0 0 0 0 0.447059 0 0 0 0 0.54902 0 0 0 0.08 0"/>
<feBlend mode="normal" in2="effect1_dropShadow_1001_6789" result="effect2_dropShadow_1001_6789"/>
<feColorMatrix in="SourceAlpha" type="matrix" values="0 0 0 0 0 0 0 0 0 0 0 0 0 0 0 0 0 0 127 0" result="hardAlpha"/>
<feMorphology radius="2.66441" operator="dilate" in="SourceAlpha" result="effect3_dropShadow_1001_6789"/>
<feOffset dy="21.3153"/>
<feGaussianBlur stdDeviation="16.8746"/>
<feColorMatrix type="matrix" values="0 0 0 0 0.364706 0 0 0 0 0.447059 0 0 0 0 0.54902 0 0 0 0.1 0"/>
<feBlend mode="normal" in2="effect2_dropShadow_1001_6789" result="effect3_dropShadow_1001_6789"/>
<feBlend mode="normal" in="SourceGraphic" in2="effect3_dropShadow_1001_6789" result="shape"/>
</filter>
<filter id="filter2_ddd_1001_6789" x="49.7764" y="190.095" width="520.448" height="267.329" filterUnits="userSpaceOnUse" color-interpolation-filters="sRGB">
<feFlood flood-opacity="0" result="BackgroundImageFix"/>
<feColorMatrix in="SourceAlpha" type="matrix" values="0 0 0 0 0 0 0 0 0 0 0 0 0 0 0 0 0 0 127 0" result="hardAlpha"/>
<feMorphology radius="0.888136" operator="erode" in="SourceAlpha" result="effect1_dropShadow_1001_6789"/>
<feOffset dy="1.77627"/>
<feGaussianBlur stdDeviation="1.77627"/>
<feColorMatrix type="matrix" values="0 0 0 0 0.364706 0 0 0 0 0.447059 0 0 0 0 0.54902 0 0 0 0.16 0"/>
<feBlend mode="normal" in2="BackgroundImageFix" result="effect1_dropShadow_1001_6789"/>
<feColorMatrix in="SourceAlpha" type="matrix" values="0 0 0 0 0 0 0 0 0 0 0 0 0 0 0 0 0 0 127 0" result="hardAlpha"/>
<feOffset dy="0.888136"/>
<feGaussianBlur stdDeviation="4.44068"/>
<feColorMatrix type="matrix" values="0 0 0 0 0.364706 0 0 0 0 0.447059 0 0 0 0 0.54902 0 0 0 0.08 0"/>
<feBlend mode="normal" in2="effect1_dropShadow_1001_6789" result="effect2_dropShadow_1001_6789"/>
<feColorMatrix in="SourceAlpha" type="matrix" values="0 0 0 0 0 0 0 0 0 0 0 0 0 0 0 0 0 0 127 0" result="hardAlpha"/>
<feOffset dy="3.55254"/>
<feGaussianBlur stdDeviation="2.22034"/>
<feColorMatrix type="matrix" values="0 0 0 0 0.364706 0 0 0 0 0.447059 0 0 0 0 0.54902 0 0 0 0.1 0"/>
<feBlend mode="normal" in2="effect2_dropShadow_1001_6789" result="effect3_dropShadow_1001_6789"/>
<feBlend mode="normal" in="SourceGraphic" in2="effect3_dropShadow_1001_6789" result="shape"/>
</filter>
<filter id="filter3_ddd_1001_6789" x="174.115" y="368.61" width="270.881" height="126.115" filterUnits="userSpaceOnUse" color-interpolation-filters="sRGB">
<feFlood flood-opacity="0" result="BackgroundImageFix"/>
<feColorMatrix in="SourceAlpha" type="matrix" values="0 0 0 0 0 0 0 0 0 0 0 0 0 0 0 0 0 0 127 0" result="hardAlpha"/>
<feMorphology radius="6.21695" operator="erode" in="SourceAlpha" result="effect1_dropShadow_1001_6789"/>
<feOffset dy="9.76949"/>
<feGaussianBlur stdDeviation="6.66102"/>
<feColorMatrix type="matrix" values="0 0 0 0 0.364706 0 0 0 0 0.447059 0 0 0 0 0.54902 0 0 0 0.16 0"/>
<feBlend mode="normal" in2="BackgroundImageFix" result="effect1_dropShadow_1001_6789"/>
<feColorMatrix in="SourceAlpha" type="matrix" values="0 0 0 0 0 0 0 0 0 0 0 0 0 0 0 0 0 0 127 0" result="hardAlpha"/>
<feMorphology radius="7.10508" operator="dilate" in="SourceAlpha" result="effect2_dropShadow_1001_6789"/>
<feOffset dy="7.99322"/>
<feGaussianBlur stdDeviation="20.4271"/>
<feColorMatrix type="matrix" values="0 0 0 0 0.364706 0 0 0 0 0.447059 0 0 0 0 0.54902 0 0 0 0.08 0"/>
<feBlend mode="normal" in2="effect1_dropShadow_1001_6789" result="effect2_dropShadow_1001_6789"/>
<feColorMatrix in="SourceAlpha" type="matrix" values="0 0 0 0 0 0 0 0 0 0 0 0 0 0 0 0 0 0 127 0" result="hardAlpha"/>
<feMorphology radius="2.66441" operator="dilate" in="SourceAlpha" result="effect3_dropShadow_1001_6789"/>
<feOffset dy="21.3153"/>
<feGaussianBlur stdDeviation="16.8746"/>
<feColorMatrix type="matrix" values="0 0 0 0 0.364706 0 0 0 0 0.447059 0 0 0 0 0.54902 0 0 0 0.1 0"/>
<feBlend mode="normal" in2="effect2_dropShadow_1001_6789" result="effect3_dropShadow_1001_6789"/>
<feBlend mode="normal" in="SourceGraphic" in2="effect3_dropShadow_1001_6789" result="shape"/>
</filter>
<radialGradient id="paint0_radial_1001_6789" cx="0" cy="0" r="1" gradientUnits="userSpaceOnUse" gradientTransform="translate(310 220.106) rotate(-90) scale(189.509 194.418)">
<stop stop-color="#8479FF"/>
<stop offset="1" stop-color="white" stop-opacity="0"/>
</radialGradient>
</defs>
</svg>
