<svg width="80" height="80" viewBox="0 0 80 80" fill="none" xmlns="http://www.w3.org/2000/svg">
<circle cx="40" cy="40" r="39" fill="white" stroke="#E9EDEF" stroke-width="2"/>
<path d="M40.0095 40.7487C39.3073 40.7487 38.6278 40.4758 38.1294 39.9754L23.6775 25.3266C22.9299 24.5532 22.7034 23.4386 23.1112 22.4378C23.5189 21.437 24.4703 20.8 25.5576 20.8H54.4615C55.5261 20.8 56.4775 21.437 56.9079 22.4378C57.3156 23.4386 57.0891 24.5532 56.3416 25.3266L41.8897 39.9526C41.3687 40.453 40.7117 40.7487 40.0095 40.7487ZM26.8261 23.9846L40.0095 37.3368L53.1703 23.9846H26.8261Z" fill="#1A938A"/>
<path d="M55.277 56.5802L40.7571 41.8632C40.3494 41.4538 39.6698 41.4538 39.2394 41.8632L24.7195 56.5802C24.0626 57.2626 24.5383 58.3999 25.467 58.3999H54.5295C55.4809 58.3999 55.9566 57.2399 55.277 56.5802Z" fill="#043344"/>
</svg>
